<ttFont>
    <TTGlyph name=".notdef" xMin="123" yMin="-500" xMax="543" yMax="1050">
      <contour>
        <pt x="123" y="-500" on="1"/>
        <pt x="123" y="1050" on="1"/>
        <pt x="543" y="1050" on="1"/>
        <pt x="543" y="-500" on="1"/>
      </contour>
      <contour>
        <pt x="178" y="-448" on="1"/>
        <pt x="489" y="-448" on="1"/>
        <pt x="489" y="998" on="1"/>
        <pt x="178" y="998" on="1"/>
      </contour>
      <contour>
        <pt x="384" y="451" on="0"/>
        <pt x="435" y="387" on="0"/>
        <pt x="435" y="336" on="1"/>
        <pt x="435" y="283" on="0"/>
        <pt x="390" y="225" on="0"/>
        <pt x="340" y="218" on="1"/>
        <pt x="340" y="173" on="1"/>
        <pt x="340" y="162" on="0"/>
        <pt x="325" y="149" on="0"/>
        <pt x="315" y="149" on="1"/>
        <pt x="305" y="149" on="0"/>
        <pt x="290" y="162" on="0"/>
        <pt x="290" y="173" on="1"/>
        <pt x="290" y="257" on="1"/>
        <pt x="343" y="260" on="0"/>
        <pt x="381" y="293" on="0"/>
        <pt x="381" y="334" on="1"/>
        <pt x="381" y="367" on="0"/>
        <pt x="355" y="403" on="0"/>
        <pt x="320" y="403" on="1"/>
        <pt x="291" y="403" on="0"/>
        <pt x="268" y="392" on="1"/>
        <pt x="260" y="389" on="0"/>
        <pt x="255" y="389" on="1"/>
        <pt x="244" y="389" on="0"/>
        <pt x="231" y="402" on="0"/>
        <pt x="231" y="412" on="1"/>
        <pt x="231" y="431" on="0"/>
        <pt x="290" y="451" on="0"/>
        <pt x="324" y="451" on="1"/>
      </contour>
      <contour>
        <pt x="330" y="120" on="0"/>
        <pt x="350" y="100" on="0"/>
        <pt x="350" y="85" on="1"/>
        <pt x="350" y="69" on="0"/>
        <pt x="330" y="48" on="0"/>
        <pt x="315" y="48" on="1"/>
        <pt x="300" y="48" on="0"/>
        <pt x="280" y="69" on="0"/>
        <pt x="280" y="85" on="1"/>
        <pt x="280" y="100" on="0"/>
        <pt x="300" y="120" on="0"/>
        <pt x="315" y="120" on="1"/>
      </contour>
    </TTGlyph>
    <TTGlyph name="A" xMin="-13" yMin="0" xMax="604" yMax="693">
      <contour>
        <pt x="192" y="149" on="1"/>
        <pt x="157" y="0" on="1"/>
        <pt x="-13" y="0" on="1"/>
        <pt x="196" y="693" on="1"/>
        <pt x="395" y="693" on="1"/>
        <pt x="604" y="0" on="1"/>
        <pt x="430" y="0" on="1"/>
        <pt x="395" y="149" on="1"/>
      </contour>
      <contour>
        <pt x="293" y="574" on="1"/>
        <pt x="220" y="268" on="1"/>
        <pt x="366" y="268" on="1"/>
      </contour>
    </TTGlyph>
    <TTGlyph name="AE" xMin="-23" yMin="0" xMax="812" yMax="693">
      <contour>
        <pt x="812" y="0" on="1"/>
        <pt x="444" y="0" on="1"/>
        <pt x="418" y="149" on="1"/>
        <pt x="203" y="149" on="1"/>
        <pt x="153" y="0" on="1"/>
        <pt x="-23" y="0" on="1"/>
        <pt x="249" y="693" on="1"/>
        <pt x="775" y="693" on="1"/>
        <pt x="758" y="576" on="1"/>
        <pt x="488" y="576" on="1"/>
        <pt x="522" y="408" on="1"/>
        <pt x="766" y="408" on="1"/>
        <pt x="766" y="293" on="1"/>
        <pt x="546" y="293" on="1"/>
        <pt x="582" y="118" on="1"/>
        <pt x="812" y="118" on="1"/>
      </contour>
      <contour>
        <pt x="345" y="573" on="1"/>
        <pt x="243" y="268" on="1"/>
        <pt x="398" y="268" on="1"/>
      </contour>
    </TTGlyph>
    <TTGlyph name="AEacute" xMin="-23" yMin="0" xMax="812" yMax="956">
      <component glyphName="AE" x="0" y="0" flags="0x0"/>
      <component glyphName="acute.case" x="311" y="0" flags="0x0"/>
    </TTGlyph>
    <TTGlyph name="Aacute" xMin="-13" yMin="0" xMax="604" yMax="956">
      <component glyphName="A" x="0" y="0" flags="0x0"/>
      <component glyphName="acute.case" x="123" y="0" flags="0x0"/>
    </TTGlyph>
    <TTGlyph name="Abreve" xMin="-13" yMin="0" xMax="604" yMax="928">
      <component glyphName="A" x="0" y="0" flags="0x0"/>
      <component glyphName="breve.case" x="93" y="0" flags="0x0"/>
    </TTGlyph>
    <TTGlyph name="Acircumflex" xMin="-13" yMin="0" xMax="604" yMax="949">
      <component glyphName="A" x="0" y="0" flags="0x0"/>
      <component glyphName="circumflex.case" x="76" y="0" flags="0x0"/>
    </TTGlyph>
    <TTGlyph name="Adieresis" xMin="-13" yMin="0" xMax="604" yMax="925">
      <component glyphName="A" x="0" y="0" flags="0x0"/>
      <component glyphName="dieresis.case" x="67" y="0" flags="0x0"/>
    </TTGlyph>
    <TTGlyph name="Agrave" xMin="-13" yMin="0" xMax="604" yMax="956">
      <component glyphName="A" x="0" y="0" flags="0x0"/>
      <component glyphName="grave.case" x="119" y="0" flags="0x0"/>
    </TTGlyph>
    <TTGlyph name="Alpha" xMin="-13" yMin="0" xMax="604" yMax="693">
      <contour>
        <pt x="192" y="149" on="1"/>
        <pt x="157" y="0" on="1"/>
        <pt x="-13" y="0" on="1"/>
        <pt x="196" y="693" on="1"/>
        <pt x="395" y="693" on="1"/>
        <pt x="604" y="0" on="1"/>
        <pt x="430" y="0" on="1"/>
        <pt x="395" y="149" on="1"/>
      </contour>
      <contour>
        <pt x="293" y="574" on="1"/>
        <pt x="220" y="268" on="1"/>
        <pt x="366" y="268" on="1"/>
      </contour>
    </TTGlyph>
    <TTGlyph name="Alphatonos" xMin="-59" yMin="0" xMax="604" yMax="724">
      <component glyphName="A" x="0" y="0" flags="0x0"/>
      <component glyphName="tonos.case" x="-101" y="0" flags="0x0"/>
    </TTGlyph>
    <TTGlyph name="Amacron" xMin="-13" yMin="0" xMax="604" yMax="888">
      <component glyphName="A" x="0" y="0" flags="0x0"/>
      <component glyphName="macron.case" x="112" y="-2" flags="0x0"/>
    </TTGlyph>
    <TTGlyph name="Aogonek" xMin="-13" yMin="-245" xMax="604" yMax="693">
      <contour>
        <pt x="402" y="-43" on="0"/>
        <pt x="402" y="-102" on="1"/>
        <pt x="402" y="-147" on="0"/>
        <pt x="455" y="-147" on="1"/>
        <pt x="484" y="-147" on="0"/>
        <pt x="516" y="-140" on="1"/>
        <pt x="505" y="-238" on="1"/>
        <pt x="468" y="-245" on="0"/>
        <pt x="435" y="-245" on="1"/>
        <pt x="370" y="-245" on="0"/>
        <pt x="289" y="-182" on="0"/>
        <pt x="289" y="-129" on="1"/>
        <pt x="289" y="-76" on="0"/>
        <pt x="359" y="-1" on="0"/>
        <pt x="424" y="26" on="1"/>
        <pt x="395" y="149" on="1"/>
        <pt x="192" y="149" on="1"/>
        <pt x="157" y="0" on="1"/>
        <pt x="-13" y="0" on="1"/>
        <pt x="196" y="693" on="1"/>
        <pt x="395" y="693" on="1"/>
        <pt x="604" y="0" on="1"/>
        <pt x="520" y="0" on="1"/>
      </contour>
      <contour>
        <pt x="293" y="574" on="1"/>
        <pt x="220" y="268" on="1"/>
        <pt x="366" y="268" on="1"/>
      </contour>
    </TTGlyph>
    <TTGlyph name="Aring" xMin="-13" yMin="0" xMax="604" yMax="993">
      <component glyphName="A" x="0" y="0" flags="0x0"/>
      <component glyphName="ring.case" x="127" y="0" flags="0x0"/>
    </TTGlyph>
    <TTGlyph name="Atilde" xMin="-13" yMin="0" xMax="604" yMax="918">
      <component glyphName="A" x="0" y="0" flags="0x0"/>
      <component glyphName="tilde.case" x="77" y="0" flags="0x0"/>
    </TTGlyph>
    <TTGlyph name="B" xMin="65" yMin="0" xMax="590" yMax="693">
      <contour>
        <pt x="503" y="354" on="0"/>
        <pt x="590" y="278" on="0"/>
        <pt x="590" y="202" on="1"/>
        <pt x="590" y="91" on="0"/>
        <pt x="431" y="0" on="0"/>
        <pt x="288" y="0" on="1"/>
        <pt x="65" y="0" on="1"/>
        <pt x="65" y="693" on="1"/>
        <pt x="261" y="693" on="1"/>
        <pt x="407" y="693" on="0"/>
        <pt x="561" y="610" on="0"/>
        <pt x="561" y="516" on="1"/>
        <pt x="561" y="455" on="0"/>
        <pt x="488" y="380" on="0"/>
        <pt x="434" y="367" on="1"/>
      </contour>
      <contour>
        <pt x="229" y="416" on="1"/>
        <pt x="290" y="416" on="1"/>
        <pt x="394" y="416" on="0"/>
        <pt x="394" y="500" on="1"/>
        <pt x="394" y="542" on="0"/>
        <pt x="338" y="577" on="0"/>
        <pt x="277" y="577" on="1"/>
        <pt x="229" y="577" on="1"/>
      </contour>
      <contour>
        <pt x="354" y="119" on="0"/>
        <pt x="421" y="158" on="0"/>
        <pt x="421" y="211" on="1"/>
        <pt x="421" y="307" on="0"/>
        <pt x="301" y="307" on="1"/>
        <pt x="229" y="307" on="1"/>
        <pt x="229" y="119" on="1"/>
        <pt x="289" y="119" on="1"/>
      </contour>
    </TTGlyph>
    <TTGlyph name="Beta" xMin="65" yMin="0" xMax="590" yMax="693">
      <component glyphName="B" x="0" y="0" flags="0x0"/>
    </TTGlyph>
    <TTGlyph name="C" xMin="33" yMin="-17" xMax="567" yMax="710">
      <contour>
        <pt x="413" y="710" on="0"/>
        <pt x="514" y="672" on="0"/>
        <pt x="559" y="634" on="1"/>
        <pt x="479" y="539" on="1"/>
        <pt x="421" y="589" on="0"/>
        <pt x="355" y="589" on="1"/>
        <pt x="286" y="589" on="0"/>
        <pt x="205" y="470" on="0"/>
        <pt x="205" y="348" on="1"/>
        <pt x="205" y="227" on="0"/>
        <pt x="286" y="110" on="0"/>
        <pt x="358" y="110" on="1"/>
        <pt x="395" y="110" on="0"/>
        <pt x="456" y="140" on="0"/>
        <pt x="493" y="168" on="1"/>
        <pt x="567" y="72" on="1"/>
        <pt x="529" y="34" on="0"/>
        <pt x="417" y="-17" on="0"/>
        <pt x="350" y="-17" on="1"/>
        <pt x="254" y="-17" on="0"/>
        <pt x="112" y="67" on="0"/>
        <pt x="33" y="232" on="0"/>
        <pt x="33" y="348" on="1"/>
        <pt x="33" y="461" on="0"/>
        <pt x="114" y="625" on="0"/>
        <pt x="255" y="710" on="0"/>
        <pt x="345" y="710" on="1"/>
      </contour>
    </TTGlyph>
    <TTGlyph name="Cacute" xMin="33" yMin="-17" xMax="567" yMax="956">
      <component glyphName="C" x="0" y="0" flags="0x0"/>
      <component glyphName="acute.case" x="181" y="0" flags="0x0"/>
    </TTGlyph>
    <TTGlyph name="Cacute.loclPLK" xMin="33" yMin="-17" xMax="567" yMax="965">
      <component glyphName="C" x="0" y="0" flags="0x0"/>
      <component glyphName="acute.case.loclPLK" x="183" y="0" flags="0x0"/>
    </TTGlyph>
    <TTGlyph name="Ccaron" xMin="33" yMin="-17" xMax="567" yMax="944">
      <component glyphName="C" x="0" y="0" flags="0x0"/>
      <component glyphName="caron.case" x="134" y="0" flags="0x0"/>
    </TTGlyph>
    <TTGlyph name="Ccedilla" xMin="33" yMin="-262" xMax="567" yMax="710">
      <contour>
        <pt x="534" y="39" on="0"/>
        <pt x="440" y="-9" on="0"/>
        <pt x="384" y="-15" on="1"/>
        <pt x="384" y="-48" on="1"/>
        <pt x="436" y="-54" on="0"/>
        <pt x="487" y="-105" on="0"/>
        <pt x="487" y="-147" on="1"/>
        <pt x="487" y="-198" on="0"/>
        <pt x="406" y="-262" on="0"/>
        <pt x="338" y="-262" on="1"/>
        <pt x="305" y="-262" on="0"/>
        <pt x="246" y="-245" on="0"/>
        <pt x="226" y="-232" on="1"/>
        <pt x="262" y="-159" on="1"/>
        <pt x="296" y="-176" on="0"/>
        <pt x="326" y="-176" on="1"/>
        <pt x="373" y="-176" on="0"/>
        <pt x="373" y="-146" on="1"/>
        <pt x="373" y="-128" on="0"/>
        <pt x="329" y="-112" on="0"/>
        <pt x="281" y="-112" on="1"/>
        <pt x="293" y="-13" on="1"/>
        <pt x="172" y="5" on="0"/>
        <pt x="33" y="191" on="0"/>
        <pt x="33" y="348" on="1"/>
        <pt x="33" y="461" on="0"/>
        <pt x="114" y="625" on="0"/>
        <pt x="255" y="710" on="0"/>
        <pt x="345" y="710" on="1"/>
        <pt x="413" y="710" on="0"/>
        <pt x="514" y="672" on="0"/>
        <pt x="559" y="634" on="1"/>
        <pt x="479" y="539" on="1"/>
        <pt x="421" y="589" on="0"/>
        <pt x="355" y="589" on="1"/>
        <pt x="286" y="589" on="0"/>
        <pt x="205" y="470" on="0"/>
        <pt x="205" y="348" on="1"/>
        <pt x="205" y="227" on="0"/>
        <pt x="286" y="110" on="0"/>
        <pt x="358" y="110" on="1"/>
        <pt x="395" y="110" on="0"/>
        <pt x="456" y="140" on="0"/>
        <pt x="493" y="168" on="1"/>
        <pt x="567" y="72" on="1"/>
      </contour>
    </TTGlyph>
    <TTGlyph name="Ccircumflex" xMin="33" yMin="-17" xMax="567" yMax="949">
      <component glyphName="C" x="0" y="0" flags="0x0"/>
      <component glyphName="circumflex.case" x="134" y="0" flags="0x0"/>
    </TTGlyph>
    <TTGlyph name="Cdotaccent" xMin="33" yMin="-17" xMax="567" yMax="937">
      <component glyphName="C" x="0" y="0" flags="0x0"/>
      <component glyphName="dotaccent.case" x="230" y="0" flags="0x0"/>
    </TTGlyph>
    <TTGlyph name="Chi" xMin="-4" yMin="0" xMax="585" yMax="693">
      <component glyphName="X" x="0" y="0" flags="0x0"/>
    </TTGlyph>
    <TTGlyph name="D" xMin="65" yMin="0" xMax="618" yMax="693">
      <contour>
        <pt x="421" y="693" on="0"/>
        <pt x="618" y="546" on="0"/>
        <pt x="618" y="350" on="1"/>
        <pt x="618" y="157" on="0"/>
        <pt x="426" y="0" on="0"/>
        <pt x="273" y="0" on="1"/>
        <pt x="65" y="0" on="1"/>
        <pt x="65" y="693" on="1"/>
        <pt x="258" y="693" on="1"/>
      </contour>
      <contour>
        <pt x="229" y="119" on="1"/>
        <pt x="283" y="119" on="1"/>
        <pt x="364" y="119" on="0"/>
        <pt x="448" y="220" on="0"/>
        <pt x="448" y="350" on="1"/>
        <pt x="448" y="439" on="0"/>
        <pt x="406" y="537" on="0"/>
        <pt x="334" y="574" on="0"/>
        <pt x="281" y="574" on="1"/>
        <pt x="229" y="574" on="1"/>
      </contour>
    </TTGlyph>
    <TTGlyph name="Dcaron" xMin="65" yMin="0" xMax="618" yMax="944">
      <component glyphName="D" x="0" y="0" flags="0x0"/>
      <component glyphName="caron.case" x="76" y="0" flags="0x0"/>
    </TTGlyph>
    <TTGlyph name="Dcroat" xMin="14" yMin="0" xMax="632" yMax="694">
      <component glyphName="Eth" x="0" y="0" flags="0x0"/>
    </TTGlyph>
    <TTGlyph name="Delta" xMin="-13" yMin="0" xMax="612" yMax="693">
      <contour>
        <pt x="-13" y="0" on="1"/>
        <pt x="201" y="693" on="1"/>
        <pt x="399" y="693" on="1"/>
        <pt x="612" y="0" on="1"/>
      </contour>
      <contour>
        <pt x="411" y="120" on="1"/>
        <pt x="298" y="572" on="1"/>
        <pt x="184" y="120" on="1"/>
      </contour>
    </TTGlyph>
    <TTGlyph name="E" xMin="65" yMin="0" xMax="490" yMax="693">
      <contour>
        <pt x="229" y="576" on="1"/>
        <pt x="229" y="410" on="1"/>
        <pt x="442" y="410" on="1"/>
        <pt x="442" y="295" on="1"/>
        <pt x="229" y="295" on="1"/>
        <pt x="229" y="118" on="1"/>
        <pt x="490" y="118" on="1"/>
        <pt x="490" y="0" on="1"/>
        <pt x="65" y="0" on="1"/>
        <pt x="65" y="693" on="1"/>
        <pt x="490" y="693" on="1"/>
        <pt x="473" y="576" on="1"/>
      </contour>
    </TTGlyph>
    <TTGlyph name="Eacute" xMin="65" yMin="0" xMax="490" yMax="956">
      <component glyphName="E" x="0" y="0" flags="0x0"/>
      <component glyphName="acute.case" x="106" y="0" flags="0x0"/>
    </TTGlyph>
    <TTGlyph name="Ebreve" xMin="65" yMin="0" xMax="490" yMax="928">
      <component glyphName="E" x="0" y="0" flags="0x0"/>
      <component glyphName="breve.case" x="76" y="0" flags="0x0"/>
    </TTGlyph>
    <TTGlyph name="Ecaron" xMin="65" yMin="0" xMax="490" yMax="944">
      <component glyphName="E" x="0" y="0" flags="0x0"/>
      <component glyphName="caron.case" x="59" y="0" flags="0x0"/>
    </TTGlyph>
    <TTGlyph name="Ecircumflex" xMin="65" yMin="0" xMax="490" yMax="949">
      <component glyphName="E" x="0" y="0" flags="0x0"/>
      <component glyphName="circumflex.case" x="59" y="0" flags="0x0"/>
    </TTGlyph>
    <TTGlyph name="Edieresis" xMin="65" yMin="0" xMax="490" yMax="925">
      <component glyphName="E" x="0" y="0" flags="0x0"/>
      <component glyphName="dieresis.case" x="50" y="0" flags="0x0"/>
    </TTGlyph>
    <TTGlyph name="Edotaccent" xMin="65" yMin="0" xMax="490" yMax="937">
      <component glyphName="E" x="0" y="0" flags="0x0"/>
      <component glyphName="dotaccent.case" x="155" y="0" flags="0x0"/>
    </TTGlyph>
    <TTGlyph name="Egrave" xMin="65" yMin="0" xMax="490" yMax="956">
      <component glyphName="E" x="0" y="0" flags="0x0"/>
      <component glyphName="grave.case" x="102" y="0" flags="0x0"/>
    </TTGlyph>
    <TTGlyph name="Emacron" xMin="65" yMin="0" xMax="490" yMax="888">
      <component glyphName="E" x="0" y="0" flags="0x0"/>
      <component glyphName="macron.case" x="95" y="-2" flags="0x0"/>
    </TTGlyph>
    <TTGlyph name="Eng" xMin="65" yMin="-221" xMax="599" yMax="693">
      <contour>
        <pt x="599" y="-23" on="0"/>
        <pt x="546" y="-131" on="0"/>
        <pt x="454" y="-196" on="0"/>
        <pt x="385" y="-221" on="1"/>
        <pt x="337" y="-116" on="1"/>
        <pt x="392" y="-92" on="0"/>
        <pt x="443" y="-45" on="0"/>
        <pt x="451" y="0" on="1"/>
        <pt x="389" y="0" on="1"/>
        <pt x="191" y="530" on="1"/>
        <pt x="187" y="530" on="1"/>
        <pt x="211" y="393" on="0"/>
        <pt x="211" y="254" on="1"/>
        <pt x="211" y="0" on="1"/>
        <pt x="65" y="0" on="1"/>
        <pt x="65" y="693" on="1"/>
        <pt x="270" y="693" on="1"/>
        <pt x="472" y="162" on="1"/>
        <pt x="476" y="162" on="1"/>
        <pt x="466" y="206" on="0"/>
        <pt x="452" y="337" on="0"/>
        <pt x="452" y="413" on="1"/>
        <pt x="452" y="693" on="1"/>
        <pt x="599" y="693" on="1"/>
        <pt x="599" y="60" on="1"/>
      </contour>
    </TTGlyph>
    <TTGlyph name="Eogonek" xMin="65" yMin="-246" xMax="490" yMax="693">
      <contour>
        <pt x="490" y="118" on="1"/>
        <pt x="490" y="0" on="1"/>
        <pt x="449" y="0" on="1"/>
        <pt x="331" y="-45" on="0"/>
        <pt x="331" y="-102" on="1"/>
        <pt x="331" y="-148" on="0"/>
        <pt x="384" y="-148" on="1"/>
        <pt x="408" y="-148" on="0"/>
        <pt x="445" y="-140" on="1"/>
        <pt x="434" y="-238" on="1"/>
        <pt x="400" y="-246" on="0"/>
        <pt x="364" y="-246" on="1"/>
        <pt x="299" y="-246" on="0"/>
        <pt x="218" y="-182" on="0"/>
        <pt x="218" y="-129" on="1"/>
        <pt x="218" y="-50" on="0"/>
        <pt x="300" y="0" on="1"/>
        <pt x="65" y="0" on="1"/>
        <pt x="65" y="693" on="1"/>
        <pt x="490" y="693" on="1"/>
        <pt x="473" y="576" on="1"/>
        <pt x="229" y="576" on="1"/>
        <pt x="229" y="410" on="1"/>
        <pt x="442" y="410" on="1"/>
        <pt x="442" y="295" on="1"/>
        <pt x="229" y="295" on="1"/>
        <pt x="229" y="118" on="1"/>
      </contour>
    </TTGlyph>
    <TTGlyph name="Epsilon" xMin="65" yMin="0" xMax="490" yMax="693">
      <contour>
        <pt x="229" y="576" on="1"/>
        <pt x="229" y="410" on="1"/>
        <pt x="442" y="410" on="1"/>
        <pt x="442" y="295" on="1"/>
        <pt x="229" y="295" on="1"/>
        <pt x="229" y="118" on="1"/>
        <pt x="490" y="118" on="1"/>
        <pt x="490" y="0" on="1"/>
        <pt x="65" y="0" on="1"/>
        <pt x="65" y="693" on="1"/>
        <pt x="490" y="693" on="1"/>
        <pt x="473" y="576" on="1"/>
      </contour>
    </TTGlyph>
    <TTGlyph name="Epsilontonos" xMin="-144" yMin="0" xMax="490" yMax="724">
      <component glyphName="E" x="0" y="0" flags="0x0"/>
      <component glyphName="tonos.case" x="-186" y="0" flags="0x0"/>
    </TTGlyph>
    <TTGlyph name="Eta" xMin="65" yMin="0" xMax="601" yMax="693">
      <contour>
        <pt x="229" y="297" on="1"/>
        <pt x="229" y="0" on="1"/>
        <pt x="65" y="0" on="1"/>
        <pt x="65" y="693" on="1"/>
        <pt x="229" y="693" on="1"/>
        <pt x="229" y="425" on="1"/>
        <pt x="437" y="425" on="1"/>
        <pt x="437" y="693" on="1"/>
        <pt x="601" y="693" on="1"/>
        <pt x="601" y="0" on="1"/>
        <pt x="437" y="0" on="1"/>
        <pt x="437" y="297" on="1"/>
      </contour>
    </TTGlyph>
    <TTGlyph name="Etatonos" xMin="-144" yMin="0" xMax="601" yMax="724">
      <component glyphName="H" x="0" y="0" flags="0x0"/>
      <component glyphName="tonos.case" x="-186" y="0" flags="0x0"/>
    </TTGlyph>
    <TTGlyph name="Eth" xMin="14" yMin="0" xMax="632" yMax="694">
      <contour>
        <pt x="435" y="694" on="0"/>
        <pt x="632" y="546" on="0"/>
        <pt x="632" y="350" on="1"/>
        <pt x="632" y="157" on="0"/>
        <pt x="440" y="0" on="0"/>
        <pt x="287" y="0" on="1"/>
        <pt x="79" y="0" on="1"/>
        <pt x="79" y="304" on="1"/>
        <pt x="14" y="304" on="1"/>
        <pt x="14" y="402" on="1"/>
        <pt x="79" y="402" on="1"/>
        <pt x="79" y="694" on="1"/>
        <pt x="272" y="694" on="1"/>
      </contour>
      <contour>
        <pt x="378" y="119" on="0"/>
        <pt x="462" y="220" on="0"/>
        <pt x="462" y="350" on="1"/>
        <pt x="462" y="439" on="0"/>
        <pt x="421" y="538" on="0"/>
        <pt x="348" y="575" on="0"/>
        <pt x="295" y="575" on="1"/>
        <pt x="243" y="575" on="1"/>
        <pt x="243" y="402" on="1"/>
        <pt x="377" y="402" on="1"/>
        <pt x="377" y="304" on="1"/>
        <pt x="243" y="304" on="1"/>
        <pt x="243" y="119" on="1"/>
        <pt x="297" y="119" on="1"/>
      </contour>
    </TTGlyph>
    <TTGlyph name="Euro" xMin="9" yMin="-17" xMax="582" yMax="690">
      <contour>
        <pt x="270" y="157" on="0"/>
        <pt x="342" y="98" on="0"/>
        <pt x="401" y="98" on="1"/>
        <pt x="473" y="98" on="0"/>
        <pt x="547" y="141" on="1"/>
        <pt x="547" y="20" on="1"/>
        <pt x="505" y="1" on="0"/>
        <pt x="430" y="-17" on="0"/>
        <pt x="386" y="-17" on="1"/>
        <pt x="270" y="-17" on="0"/>
        <pt x="120" y="107" on="0"/>
        <pt x="95" y="220" on="1"/>
        <pt x="9" y="220" on="1"/>
        <pt x="31" y="302" on="1"/>
        <pt x="91" y="302" on="1"/>
        <pt x="91" y="373" on="1"/>
        <pt x="9" y="373" on="1"/>
        <pt x="31" y="456" on="1"/>
        <pt x="97" y="456" on="1"/>
        <pt x="126" y="564" on="0"/>
        <pt x="285" y="690" on="0"/>
        <pt x="391" y="690" on="1"/>
        <pt x="496" y="690" on="0"/>
        <pt x="582" y="632" on="1"/>
        <pt x="526" y="536" on="1"/>
        <pt x="495" y="557" on="0"/>
        <pt x="433" y="576" on="0"/>
        <pt x="397" y="576" on="1"/>
        <pt x="347" y="576" on="0"/>
        <pt x="275" y="516" on="0"/>
        <pt x="258" y="456" on="1"/>
        <pt x="500" y="456" on="1"/>
        <pt x="478" y="373" on="1"/>
        <pt x="250" y="373" on="1"/>
        <pt x="250" y="302" on="1"/>
        <pt x="463" y="302" on="1"/>
        <pt x="442" y="220" on="1"/>
        <pt x="255" y="220" on="1"/>
      </contour>
    </TTGlyph>
    <TTGlyph name="Euro.osf" xMin="9" yMin="-17" xMax="582" yMax="690">
      <component glyphName="Euro" x="0" y="0" flags="0x0"/>
    </TTGlyph>
    <TTGlyph name="Euro.tf" xMin="9" yMin="-17" xMax="569" yMax="710">
      <contour>
        <pt x="267" y="160" on="0"/>
        <pt x="333" y="98" on="0"/>
        <pt x="392" y="98" on="1"/>
        <pt x="461" y="98" on="0"/>
        <pt x="535" y="141" on="1"/>
        <pt x="535" y="20" on="1"/>
        <pt x="492" y="1" on="0"/>
        <pt x="417" y="-17" on="0"/>
        <pt x="374" y="-17" on="1"/>
        <pt x="262" y="-17" on="0"/>
        <pt x="118" y="110" on="0"/>
        <pt x="95" y="230" on="1"/>
        <pt x="9" y="230" on="1"/>
        <pt x="31" y="312" on="1"/>
        <pt x="91" y="312" on="1"/>
        <pt x="91" y="383" on="1"/>
        <pt x="9" y="383" on="1"/>
        <pt x="31" y="466" on="1"/>
        <pt x="97" y="466" on="1"/>
        <pt x="125" y="582" on="0"/>
        <pt x="276" y="710" on="0"/>
        <pt x="379" y="710" on="1"/>
        <pt x="484" y="710" on="0"/>
        <pt x="569" y="653" on="1"/>
        <pt x="519" y="557" on="1"/>
        <pt x="486" y="577" on="0"/>
        <pt x="424" y="596" on="0"/>
        <pt x="387" y="596" on="1"/>
        <pt x="336" y="596" on="0"/>
        <pt x="272" y="534" on="0"/>
        <pt x="256" y="466" on="1"/>
        <pt x="500" y="466" on="1"/>
        <pt x="478" y="383" on="1"/>
        <pt x="250" y="383" on="1"/>
        <pt x="250" y="312" on="1"/>
        <pt x="463" y="312" on="1"/>
        <pt x="442" y="230" on="1"/>
        <pt x="254" y="230" on="1"/>
      </contour>
    </TTGlyph>
    <TTGlyph name="Euro.tosf" xMin="25" yMin="-17" xMax="581" yMax="690">
      <contour>
        <pt x="285" y="157" on="0"/>
        <pt x="353" y="98" on="0"/>
        <pt x="409" y="98" on="1"/>
        <pt x="473" y="98" on="0"/>
        <pt x="547" y="141" on="1"/>
        <pt x="547" y="20" on="1"/>
        <pt x="505" y="1" on="0"/>
        <pt x="434" y="-17" on="0"/>
        <pt x="394" y="-17" on="1"/>
        <pt x="281" y="-17" on="0"/>
        <pt x="135" y="107" on="0"/>
        <pt x="111" y="220" on="1"/>
        <pt x="25" y="220" on="1"/>
        <pt x="46" y="302" on="1"/>
        <pt x="107" y="302" on="1"/>
        <pt x="107" y="373" on="1"/>
        <pt x="25" y="373" on="1"/>
        <pt x="46" y="456" on="1"/>
        <pt x="113" y="456" on="1"/>
        <pt x="141" y="565" on="0"/>
        <pt x="295" y="690" on="0"/>
        <pt x="399" y="690" on="1"/>
        <pt x="454" y="690" on="0"/>
        <pt x="541" y="660" on="0"/>
        <pt x="581" y="632" on="1"/>
        <pt x="525" y="536" on="1"/>
        <pt x="494" y="557" on="0"/>
        <pt x="438" y="576" on="0"/>
        <pt x="405" y="576" on="1"/>
        <pt x="358" y="576" on="0"/>
        <pt x="290" y="516" on="0"/>
        <pt x="273" y="456" on="1"/>
        <pt x="500" y="456" on="1"/>
        <pt x="479" y="373" on="1"/>
        <pt x="266" y="373" on="1"/>
        <pt x="266" y="302" on="1"/>
        <pt x="464" y="302" on="1"/>
        <pt x="443" y="220" on="1"/>
        <pt x="271" y="220" on="1"/>
      </contour>
    </TTGlyph>
    <TTGlyph name="F" xMin="65" yMin="0" xMax="478" yMax="693">
      <contour>
        <pt x="229" y="576" on="1"/>
        <pt x="229" y="392" on="1"/>
        <pt x="431" y="392" on="1"/>
        <pt x="431" y="275" on="1"/>
        <pt x="229" y="275" on="1"/>
        <pt x="229" y="0" on="1"/>
        <pt x="65" y="0" on="1"/>
        <pt x="65" y="693" on="1"/>
        <pt x="478" y="693" on="1"/>
        <pt x="461" y="576" on="1"/>
      </contour>
    </TTGlyph>
    <TTGlyph name="G" xMin="33" yMin="-17" xMax="600" yMax="710">
      <contour>
        <pt x="499" y="710" on="0"/>
        <pt x="596" y="625" on="1"/>
        <pt x="511" y="536" on="1"/>
        <pt x="476" y="565" on="0"/>
        <pt x="413" y="591" on="0"/>
        <pt x="372" y="591" on="1"/>
        <pt x="295" y="591" on="0"/>
        <pt x="203" y="470" on="0"/>
        <pt x="203" y="347" on="1"/>
        <pt x="203" y="214" on="0"/>
        <pt x="273" y="103" on="0"/>
        <pt x="347" y="103" on="1"/>
        <pt x="399" y="103" on="0"/>
        <pt x="441" y="126" on="1"/>
        <pt x="441" y="283" on="1"/>
        <pt x="351" y="283" on="1"/>
        <pt x="335" y="399" on="1"/>
        <pt x="600" y="399" on="1"/>
        <pt x="600" y="56" on="1"/>
        <pt x="546" y="21" on="0"/>
        <pt x="416" y="-17" on="0"/>
        <pt x="348" y="-17" on="1"/>
        <pt x="192" y="-17" on="0"/>
        <pt x="33" y="168" on="0"/>
        <pt x="33" y="347" on="1"/>
        <pt x="33" y="461" on="0"/>
        <pt x="120" y="625" on="0"/>
        <pt x="271" y="710" on="0"/>
        <pt x="364" y="710" on="1"/>
      </contour>
    </TTGlyph>
    <TTGlyph name="Gamma" xMin="65" yMin="0" xMax="509" yMax="693">
      <component glyphName="uni0413" x="0" y="0" flags="0x0"/>
    </TTGlyph>
    <TTGlyph name="Gbreve" xMin="33" yMin="-17" xMax="600" yMax="928">
      <component glyphName="G" x="0" y="0" flags="0x0"/>
      <component glyphName="breve.case" x="149" y="0" flags="0x0"/>
    </TTGlyph>
    <TTGlyph name="Gcircumflex" xMin="33" yMin="-17" xMax="600" yMax="949">
      <component glyphName="G" x="0" y="0" flags="0x0"/>
      <component glyphName="circumflex.case" x="132" y="0" flags="0x0"/>
    </TTGlyph>
    <TTGlyph name="Gcommaaccent" xMin="33" yMin="-325" xMax="600" yMax="710">
      <component glyphName="G" x="0" y="0" flags="0x0"/>
      <component glyphName="uni0326.case" x="237" y="0" flags="0x0"/>
    </TTGlyph>
    <TTGlyph name="Gdotaccent" xMin="33" yMin="-17" xMax="600" yMax="937">
      <component glyphName="G" x="0" y="0" flags="0x0"/>
      <component glyphName="dotaccent.case" x="228" y="0" flags="0x0"/>
    </TTGlyph>
    <TTGlyph name="H" xMin="65" yMin="0" xMax="601" yMax="693">
      <contour>
        <pt x="229" y="297" on="1"/>
        <pt x="229" y="0" on="1"/>
        <pt x="65" y="0" on="1"/>
        <pt x="65" y="693" on="1"/>
        <pt x="229" y="693" on="1"/>
        <pt x="229" y="425" on="1"/>
        <pt x="437" y="425" on="1"/>
        <pt x="437" y="693" on="1"/>
        <pt x="601" y="693" on="1"/>
        <pt x="601" y="0" on="1"/>
        <pt x="437" y="0" on="1"/>
        <pt x="437" y="297" on="1"/>
      </contour>
    </TTGlyph>
    <TTGlyph name="Hbar" xMin="13" yMin="0" xMax="664" yMax="693">
      <contour>
        <pt x="607" y="500" on="1"/>
        <pt x="607" y="0" on="1"/>
        <pt x="443" y="0" on="1"/>
        <pt x="443" y="297" on="1"/>
        <pt x="235" y="297" on="1"/>
        <pt x="235" y="0" on="1"/>
        <pt x="71" y="0" on="1"/>
        <pt x="71" y="500" on="1"/>
        <pt x="13" y="500" on="1"/>
        <pt x="13" y="592" on="1"/>
        <pt x="71" y="592" on="1"/>
        <pt x="71" y="693" on="1"/>
        <pt x="235" y="693" on="1"/>
        <pt x="235" y="592" on="1"/>
        <pt x="443" y="592" on="1"/>
        <pt x="443" y="693" on="1"/>
        <pt x="607" y="693" on="1"/>
        <pt x="607" y="592" on="1"/>
        <pt x="664" y="592" on="1"/>
        <pt x="664" y="500" on="1"/>
      </contour>
      <contour>
        <pt x="235" y="500" on="1"/>
        <pt x="235" y="424" on="1"/>
        <pt x="443" y="424" on="1"/>
        <pt x="443" y="500" on="1"/>
      </contour>
    </TTGlyph>
    <TTGlyph name="Hcircumflex" xMin="65" yMin="0" xMax="601" yMax="949">
      <component glyphName="H" x="0" y="0" flags="0x0"/>
      <component glyphName="circumflex.case" x="113" y="0" flags="0x0"/>
    </TTGlyph>
    <TTGlyph name="I" xMin="65" yMin="0" xMax="229" yMax="693">
      <contour>
        <pt x="65" y="0" on="1"/>
        <pt x="65" y="693" on="1"/>
        <pt x="229" y="693" on="1"/>
        <pt x="229" y="0" on="1"/>
      </contour>
    </TTGlyph>
    <TTGlyph name="IJ" xMin="65" yMin="-169" xMax="550" yMax="693">
      <component glyphName="I" x="0" y="0" flags="0x0"/>
      <component glyphName="J" x="293" y="0" flags="0x0"/>
    </TTGlyph>
    <TTGlyph name="Iacute" xMin="5" yMin="0" xMax="284" yMax="956">
      <component glyphName="I" x="0" y="0" flags="0x0"/>
      <component glyphName="acute.case" x="-25" y="0" flags="0x0"/>
    </TTGlyph>
    <TTGlyph name="Ibreve" xMin="-26" yMin="0" xMax="319" yMax="928">
      <component glyphName="I" x="0" y="0" flags="0x0"/>
      <component glyphName="breve.case" x="-56" y="0" flags="0x0"/>
    </TTGlyph>
    <TTGlyph name="Icircumflex" xMin="-43" yMin="0" xMax="336" yMax="949">
      <component glyphName="I" x="0" y="0" flags="0x0"/>
      <component glyphName="circumflex.case" x="-73" y="0" flags="0x0"/>
    </TTGlyph>
    <TTGlyph name="Idieresis" xMin="-51" yMin="0" xMax="343" yMax="925">
      <component glyphName="I" x="0" y="0" flags="0x0"/>
      <component glyphName="dieresis.case" x="-81" y="0" flags="0x0"/>
    </TTGlyph>
    <TTGlyph name="Idotaccent" xMin="53" yMin="0" xMax="240" yMax="937">
      <component glyphName="I" x="0" y="0" flags="0x0"/>
      <component glyphName="dotaccent.case" x="23" y="0" flags="0x0"/>
    </TTGlyph>
    <TTGlyph name="Igrave" xMin="0" yMin="0" xMax="280" yMax="956">
      <component glyphName="I" x="0" y="0" flags="0x0"/>
      <component glyphName="grave.case" x="-30" y="0" flags="0x0"/>
    </TTGlyph>
    <TTGlyph name="Imacron" xMin="-7" yMin="0" xMax="299" yMax="888">
      <component glyphName="I" x="0" y="0" flags="0x0"/>
      <component glyphName="macron.case" x="-36" y="-2" flags="0x0"/>
    </TTGlyph>
    <TTGlyph name="Iogonek" xMin="-31" yMin="-246" xMax="229" yMax="693">
      <contour>
        <pt x="229" y="0" on="1"/>
        <pt x="201" y="0" on="1"/>
        <pt x="83" y="-44" on="0"/>
        <pt x="83" y="-102" on="1"/>
        <pt x="83" y="-148" on="0"/>
        <pt x="136" y="-148" on="1"/>
        <pt x="160" y="-148" on="0"/>
        <pt x="197" y="-140" on="1"/>
        <pt x="186" y="-238" on="1"/>
        <pt x="152" y="-246" on="0"/>
        <pt x="116" y="-246" on="1"/>
        <pt x="51" y="-246" on="0"/>
        <pt x="-31" y="-182" on="0"/>
        <pt x="-31" y="-129" on="1"/>
        <pt x="-31" y="-45" on="0"/>
        <pt x="65" y="8" on="1"/>
        <pt x="65" y="693" on="1"/>
        <pt x="229" y="693" on="1"/>
      </contour>
    </TTGlyph>
    <TTGlyph name="Iota" xMin="65" yMin="0" xMax="229" yMax="693">
      <contour>
        <pt x="65" y="0" on="1"/>
        <pt x="65" y="693" on="1"/>
        <pt x="229" y="693" on="1"/>
        <pt x="229" y="0" on="1"/>
      </contour>
    </TTGlyph>
    <TTGlyph name="Iotadieresis" xMin="-51" yMin="0" xMax="343" yMax="925">
      <component glyphName="I" x="0" y="0" flags="0x0"/>
      <component glyphName="dieresis.case" x="-81" y="0" flags="0x0"/>
    </TTGlyph>
    <TTGlyph name="Iotatonos" xMin="-144" yMin="0" xMax="229" yMax="724">
      <component glyphName="I" x="0" y="0" flags="0x0"/>
      <component glyphName="tonos.case" x="-186" y="0" flags="0x0"/>
    </TTGlyph>
    <TTGlyph name="Itilde" xMin="-42" yMin="0" xMax="335" yMax="918">
      <component glyphName="I" x="0" y="0" flags="0x0"/>
      <component glyphName="tilde.case" x="-71" y="0" flags="0x0"/>
    </TTGlyph>
    <TTGlyph name="J" xMin="-11" yMin="-169" xMax="256" yMax="693">
      <contour>
        <pt x="256" y="22" on="0"/>
        <pt x="197" y="-86" on="0"/>
        <pt x="100" y="-147" on="0"/>
        <pt x="33" y="-169" on="1"/>
        <pt x="-11" y="-53" on="1"/>
        <pt x="33" y="-36" on="0"/>
        <pt x="77" y="8" on="0"/>
        <pt x="92" y="66" on="0"/>
        <pt x="92" y="111" on="1"/>
        <pt x="92" y="693" on="1"/>
        <pt x="256" y="693" on="1"/>
        <pt x="256" y="105" on="1"/>
      </contour>
    </TTGlyph>
    <TTGlyph name="Jcircumflex" xMin="-15" yMin="-169" xMax="364" yMax="949">
      <component glyphName="J" x="0" y="0" flags="0x0"/>
      <component glyphName="circumflex.case" x="-45" y="0" flags="0x0"/>
    </TTGlyph>
    <TTGlyph name="K" xMin="65" yMin="0" xMax="645" yMax="693">
      <contour>
        <pt x="65" y="0" on="1"/>
        <pt x="65" y="693" on="1"/>
        <pt x="229" y="693" on="1"/>
        <pt x="229" y="0" on="1"/>
      </contour>
      <contour>
        <pt x="645" y="0" on="1"/>
        <pt x="455" y="0" on="1"/>
        <pt x="234" y="370" on="1"/>
        <pt x="454" y="693" on="1"/>
        <pt x="627" y="693" on="1"/>
        <pt x="406" y="382" on="1"/>
      </contour>
    </TTGlyph>
    <TTGlyph name="Kappa" xMin="65" yMin="0" xMax="645" yMax="693">
      <component glyphName="K" x="0" y="0" flags="0x0"/>
    </TTGlyph>
    <TTGlyph name="Kcommaaccent" xMin="65" yMin="-325" xMax="645" yMax="693">
      <component glyphName="K" x="0" y="0" flags="0x0"/>
      <component glyphName="uni0326.case" x="214" y="0" flags="0x0"/>
    </TTGlyph>
    <TTGlyph name="L" xMin="65" yMin="0" xMax="499" yMax="693">
      <contour>
        <pt x="499" y="130" on="1"/>
        <pt x="482" y="0" on="1"/>
        <pt x="65" y="0" on="1"/>
        <pt x="65" y="693" on="1"/>
        <pt x="229" y="693" on="1"/>
        <pt x="229" y="130" on="1"/>
      </contour>
    </TTGlyph>
    <TTGlyph name="Lacute" xMin="5" yMin="0" xMax="499" yMax="956">
      <component glyphName="L" x="0" y="0" flags="0x0"/>
      <component glyphName="acute.case" x="-25" y="0" flags="0x0"/>
    </TTGlyph>
    <TTGlyph name="Lambda" xMin="-13" yMin="0" xMax="604" yMax="693">
      <contour>
        <pt x="430" y="0" on="1"/>
        <pt x="294" y="574" on="1"/>
        <pt x="157" y="0" on="1"/>
        <pt x="-13" y="0" on="1"/>
        <pt x="196" y="693" on="1"/>
        <pt x="395" y="693" on="1"/>
        <pt x="604" y="0" on="1"/>
      </contour>
    </TTGlyph>
    <TTGlyph name="Lcaron" xMin="65" yMin="0" xMax="499" yMax="707">
      <component glyphName="L" x="0" y="0" flags="0x0"/>
      <component glyphName="caron.alt" x="220" y="0" flags="0x0"/>
    </TTGlyph>
    <TTGlyph name="Lcommaaccent" xMin="65" yMin="-325" xMax="499" yMax="693">
      <component glyphName="L" x="0" y="0" flags="0x0"/>
      <component glyphName="uni0326.case" x="163" y="0" flags="0x0"/>
    </TTGlyph>
    <TTGlyph name="Ldot" xMin="65" yMin="0" xMax="499" yMax="693">
      <component glyphName="L" x="0" y="0" flags="0x0"/>
      <component glyphName="dotaccent" x="275" y="-323" flags="0x0"/>
    </TTGlyph>
    <TTGlyph name="Lslash" xMin="8" yMin="0" xMax="539" yMax="694">
      <contour>
        <pt x="522" y="0" on="1"/>
        <pt x="104" y="0" on="1"/>
        <pt x="104" y="224" on="1"/>
        <pt x="62" y="198" on="1"/>
        <pt x="8" y="285" on="1"/>
        <pt x="104" y="344" on="1"/>
        <pt x="104" y="694" on="1"/>
        <pt x="269" y="694" on="1"/>
        <pt x="269" y="446" on="1"/>
        <pt x="396" y="525" on="1"/>
        <pt x="450" y="439" on="1"/>
        <pt x="269" y="326" on="1"/>
        <pt x="269" y="130" on="1"/>
        <pt x="539" y="129" on="1"/>
      </contour>
    </TTGlyph>
    <TTGlyph name="M" xMin="33" yMin="0" xMax="753" yMax="693">
      <contour>
        <pt x="592" y="0" on="1"/>
        <pt x="580" y="271" on="1"/>
        <pt x="575" y="371" on="0"/>
        <pt x="575" y="449" on="1"/>
        <pt x="575" y="505" on="0"/>
        <pt x="578" y="554" on="1"/>
        <pt x="471" y="73" on="1"/>
        <pt x="316" y="73" on="1"/>
        <pt x="202" y="554" on="1"/>
        <pt x="208" y="466" on="0"/>
        <pt x="208" y="386" on="1"/>
        <pt x="208" y="329" on="0"/>
        <pt x="205" y="269" on="1"/>
        <pt x="193" y="0" on="1"/>
        <pt x="33" y="0" on="1"/>
        <pt x="85" y="693" on="1"/>
        <pt x="292" y="693" on="1"/>
        <pt x="396" y="223" on="1"/>
        <pt x="493" y="693" on="1"/>
        <pt x="701" y="693" on="1"/>
        <pt x="753" y="0" on="1"/>
      </contour>
    </TTGlyph>
    <TTGlyph name="Mu" xMin="33" yMin="0" xMax="753" yMax="693">
      <component glyphName="M" x="0" y="0" flags="0x0"/>
    </TTGlyph>
    <TTGlyph name="N" xMin="65" yMin="0" xMax="599" yMax="693">
      <contour>
        <pt x="390" y="0" on="1"/>
        <pt x="190" y="537" on="1"/>
        <pt x="200" y="458" on="0"/>
        <pt x="211" y="337" on="0"/>
        <pt x="211" y="254" on="1"/>
        <pt x="211" y="0" on="1"/>
        <pt x="65" y="0" on="1"/>
        <pt x="65" y="693" on="1"/>
        <pt x="269" y="693" on="1"/>
        <pt x="474" y="155" on="1"/>
        <pt x="452" y="292" on="0"/>
        <pt x="452" y="413" on="1"/>
        <pt x="452" y="693" on="1"/>
        <pt x="599" y="693" on="1"/>
        <pt x="599" y="0" on="1"/>
      </contour>
    </TTGlyph>
    <TTGlyph name="Nacute" xMin="65" yMin="0" xMax="599" yMax="956">
      <component glyphName="N" x="0" y="0" flags="0x0"/>
      <component glyphName="acute.case" x="164" y="0" flags="0x0"/>
    </TTGlyph>
    <TTGlyph name="Nacute.loclPLK" xMin="65" yMin="0" xMax="599" yMax="965">
      <component glyphName="N" x="0" y="0" flags="0x0"/>
      <component glyphName="acute.case.loclPLK" x="166" y="0" flags="0x0"/>
    </TTGlyph>
    <TTGlyph name="Ncaron" xMin="65" yMin="0" xMax="599" yMax="944">
      <component glyphName="N" x="0" y="0" flags="0x0"/>
      <component glyphName="caron.case" x="116" y="0" flags="0x0"/>
    </TTGlyph>
    <TTGlyph name="Ncommaaccent" xMin="65" yMin="-325" xMax="599" yMax="693">
      <component glyphName="N" x="0" y="0" flags="0x0"/>
      <component glyphName="uni0326.case" x="222" y="0" flags="0x0"/>
    </TTGlyph>
    <TTGlyph name="Ntilde" xMin="65" yMin="0" xMax="599" yMax="918">
      <component glyphName="N" x="0" y="0" flags="0x0"/>
      <component glyphName="tilde.case" x="118" y="0" flags="0x0"/>
    </TTGlyph>
    <TTGlyph name="Nu" xMin="65" yMin="0" xMax="599" yMax="693">
      <component glyphName="N" x="0" y="0" flags="0x0"/>
    </TTGlyph>
    <TTGlyph name="O" xMin="33" yMin="-17" xMax="658" yMax="710">
      <contour>
        <pt x="493" y="710" on="0"/>
        <pt x="658" y="520" on="0"/>
        <pt x="658" y="347" on="1"/>
        <pt x="658" y="234" on="0"/>
        <pt x="583" y="70" on="0"/>
        <pt x="442" y="-17" on="0"/>
        <pt x="345" y="-17" on="1"/>
        <pt x="248" y="-17" on="0"/>
        <pt x="108" y="69" on="0"/>
        <pt x="33" y="232" on="0"/>
        <pt x="33" y="347" on="1"/>
        <pt x="33" y="459" on="0"/>
        <pt x="108" y="623" on="0"/>
        <pt x="248" y="710" on="0"/>
        <pt x="345" y="710" on="1"/>
      </contour>
      <contour>
        <pt x="274" y="590" on="0"/>
        <pt x="205" y="475" on="0"/>
        <pt x="205" y="347" on="1"/>
        <pt x="205" y="219" on="0"/>
        <pt x="275" y="103" on="0"/>
        <pt x="345" y="103" on="1"/>
        <pt x="417" y="103" on="0"/>
        <pt x="486" y="218" on="0"/>
        <pt x="486" y="347" on="1"/>
        <pt x="486" y="476" on="0"/>
        <pt x="416" y="590" on="0"/>
        <pt x="345" y="590" on="1"/>
      </contour>
    </TTGlyph>
    <TTGlyph name="OE" xMin="33" yMin="-17" xMax="869" yMax="710">
      <contour>
        <pt x="622" y="189" on="0"/>
        <pt x="569" y="118" on="1"/>
        <pt x="869" y="118" on="1"/>
        <pt x="869" y="0" on="1"/>
        <pt x="424" y="0" on="1"/>
        <pt x="379" y="-17" on="0"/>
        <pt x="329" y="-17" on="1"/>
        <pt x="239" y="-17" on="0"/>
        <pt x="106" y="69" on="0"/>
        <pt x="33" y="233" on="0"/>
        <pt x="33" y="347" on="1"/>
        <pt x="33" y="459" on="0"/>
        <pt x="106" y="623" on="0"/>
        <pt x="240" y="710" on="0"/>
        <pt x="329" y="710" on="1"/>
        <pt x="387" y="710" on="0"/>
        <pt x="428" y="693" on="1"/>
        <pt x="869" y="693" on="1"/>
        <pt x="852" y="576" on="1"/>
        <pt x="572" y="576" on="1"/>
        <pt x="622" y="507" on="0"/>
        <pt x="634" y="410" on="1"/>
        <pt x="821" y="410" on="1"/>
        <pt x="821" y="295" on="1"/>
        <pt x="635" y="295" on="1"/>
      </contour>
      <contour>
        <pt x="400" y="103" on="0"/>
        <pt x="466" y="219" on="0"/>
        <pt x="466" y="347" on="1"/>
        <pt x="466" y="474" on="0"/>
        <pt x="399" y="590" on="0"/>
        <pt x="335" y="590" on="1"/>
        <pt x="271" y="590" on="0"/>
        <pt x="205" y="474" on="0"/>
        <pt x="205" y="347" on="1"/>
        <pt x="205" y="103" on="0"/>
        <pt x="335" y="103" on="1"/>
      </contour>
    </TTGlyph>
    <TTGlyph name="Oacute" xMin="33" yMin="-17" xMax="658" yMax="956">
      <component glyphName="O" x="0" y="0" flags="0x0"/>
      <component glyphName="acute.case" x="174" y="0" flags="0x0"/>
    </TTGlyph>
    <TTGlyph name="Oacute.loclPLK" xMin="33" yMin="-17" xMax="658" yMax="965">
      <component glyphName="O" x="0" y="0" flags="0x0"/>
      <component glyphName="acute.case.loclPLK" x="176" y="0" flags="0x0"/>
    </TTGlyph>
    <TTGlyph name="Obreve" xMin="33" yMin="-17" xMax="658" yMax="928">
      <component glyphName="O" x="0" y="0" flags="0x0"/>
      <component glyphName="breve.case" x="144" y="0" flags="0x0"/>
    </TTGlyph>
    <TTGlyph name="Ocircumflex" xMin="33" yMin="-17" xMax="658" yMax="949">
      <component glyphName="O" x="0" y="0" flags="0x0"/>
      <component glyphName="circumflex.case" x="127" y="0" flags="0x0"/>
    </TTGlyph>
    <TTGlyph name="Odieresis" xMin="33" yMin="-17" xMax="658" yMax="925">
      <component glyphName="O" x="0" y="0" flags="0x0"/>
      <component glyphName="dieresis.case" x="118" y="0" flags="0x0"/>
    </TTGlyph>
    <TTGlyph name="Ograve" xMin="33" yMin="-17" xMax="658" yMax="956">
      <component glyphName="O" x="0" y="0" flags="0x0"/>
      <component glyphName="grave.case" x="170" y="0" flags="0x0"/>
    </TTGlyph>
    <TTGlyph name="Ohm" xMin="33" yMin="0" xMax="658" yMax="710">
      <component glyphName="Omega" x="0" y="0" flags="0x0"/>
    </TTGlyph>
    <TTGlyph name="Ohungarumlaut" xMin="33" yMin="-17" xMax="658" yMax="986">
      <component glyphName="O" x="0" y="0" flags="0x0"/>
      <component glyphName="hungarumlaut.case" x="184" y="0" flags="0x0"/>
    </TTGlyph>
    <TTGlyph name="Omacron" xMin="33" yMin="-17" xMax="658" yMax="888">
      <component glyphName="O" x="0" y="0" flags="0x0"/>
      <component glyphName="macron.case" x="163" y="-2" flags="0x0"/>
    </TTGlyph>
    <TTGlyph name="Omega" xMin="33" yMin="0" xMax="658" yMax="710">
      <contour>
        <pt x="441" y="710" on="0"/>
        <pt x="583" y="625" on="0"/>
        <pt x="658" y="474" on="0"/>
        <pt x="658" y="378" on="1"/>
        <pt x="658" y="285" on="0"/>
        <pt x="591" y="157" on="0"/>
        <pt x="523" y="119" on="1"/>
        <pt x="636" y="119" on="1"/>
        <pt x="636" y="0" on="1"/>
        <pt x="383" y="0" on="1"/>
        <pt x="383" y="112" on="1"/>
        <pt x="425" y="130" on="0"/>
        <pt x="470" y="196" on="0"/>
        <pt x="486" y="297" on="0"/>
        <pt x="486" y="378" on="1"/>
        <pt x="486" y="484" on="0"/>
        <pt x="415" y="590" on="0"/>
        <pt x="345" y="590" on="1"/>
        <pt x="276" y="590" on="0"/>
        <pt x="205" y="483" on="0"/>
        <pt x="205" y="377" on="1"/>
        <pt x="205" y="295" on="0"/>
        <pt x="222" y="195" on="0"/>
        <pt x="266" y="131" on="0"/>
        <pt x="307" y="112" on="1"/>
        <pt x="307" y="0" on="1"/>
        <pt x="54" y="0" on="1"/>
        <pt x="54" y="119" on="1"/>
        <pt x="165" y="119" on="1"/>
        <pt x="33" y="192" on="0"/>
        <pt x="33" y="377" on="1"/>
        <pt x="33" y="473" on="0"/>
        <pt x="108" y="624" on="0"/>
        <pt x="250" y="710" on="0"/>
        <pt x="345" y="710" on="1"/>
      </contour>
    </TTGlyph>
    <TTGlyph name="Omegatonos" xMin="-102" yMin="0" xMax="658" yMax="724">
      <component glyphName="Omega" x="0" y="0" flags="0x0"/>
      <component glyphName="tonos.case" x="-144" y="0" flags="0x0"/>
    </TTGlyph>
    <TTGlyph name="Omicron" xMin="33" yMin="-17" xMax="658" yMax="710">
      <contour>
        <pt x="493" y="710" on="0"/>
        <pt x="658" y="520" on="0"/>
        <pt x="658" y="347" on="1"/>
        <pt x="658" y="234" on="0"/>
        <pt x="583" y="70" on="0"/>
        <pt x="442" y="-17" on="0"/>
        <pt x="345" y="-17" on="1"/>
        <pt x="248" y="-17" on="0"/>
        <pt x="108" y="69" on="0"/>
        <pt x="33" y="232" on="0"/>
        <pt x="33" y="347" on="1"/>
        <pt x="33" y="459" on="0"/>
        <pt x="108" y="623" on="0"/>
        <pt x="248" y="710" on="0"/>
        <pt x="345" y="710" on="1"/>
      </contour>
      <contour>
        <pt x="274" y="590" on="0"/>
        <pt x="205" y="475" on="0"/>
        <pt x="205" y="347" on="1"/>
        <pt x="205" y="219" on="0"/>
        <pt x="275" y="103" on="0"/>
        <pt x="345" y="103" on="1"/>
        <pt x="417" y="103" on="0"/>
        <pt x="486" y="218" on="0"/>
        <pt x="486" y="347" on="1"/>
        <pt x="486" y="476" on="0"/>
        <pt x="416" y="590" on="0"/>
        <pt x="345" y="590" on="1"/>
      </contour>
    </TTGlyph>
    <TTGlyph name="Omicrontonos" xMin="-98" yMin="-17" xMax="658" yMax="724">
      <component glyphName="O" x="0" y="0" flags="0x0"/>
      <component glyphName="tonos.case" x="-140" y="0" flags="0x0"/>
    </TTGlyph>
    <TTGlyph name="Oslash" xMin="33" yMin="-134" xMax="658" yMax="828">
      <contour>
        <pt x="584" y="625" on="0"/>
        <pt x="658" y="461" on="0"/>
        <pt x="658" y="347" on="1"/>
        <pt x="658" y="234" on="0"/>
        <pt x="583" y="70" on="0"/>
        <pt x="442" y="-17" on="0"/>
        <pt x="345" y="-17" on="1"/>
        <pt x="320" y="-17" on="0"/>
        <pt x="296" y="-14" on="1"/>
        <pt x="260" y="-134" on="1"/>
        <pt x="136" y="-102" on="1"/>
        <pt x="176" y="27" on="1"/>
        <pt x="107" y="70" on="0"/>
        <pt x="33" y="233" on="0"/>
        <pt x="33" y="347" on="1"/>
        <pt x="33" y="459" on="0"/>
        <pt x="108" y="623" on="0"/>
        <pt x="248" y="710" on="0"/>
        <pt x="345" y="710" on="1"/>
        <pt x="371" y="710" on="0"/>
        <pt x="394" y="707" on="1"/>
        <pt x="432" y="828" on="1"/>
        <pt x="555" y="795" on="1"/>
        <pt x="514" y="667" on="1"/>
      </contour>
      <contour>
        <pt x="274" y="590" on="0"/>
        <pt x="205" y="475" on="0"/>
        <pt x="205" y="347" on="1"/>
        <pt x="205" y="203" on="0"/>
        <pt x="243" y="148" on="1"/>
        <pt x="375" y="588" on="1"/>
        <pt x="357" y="590" on="0"/>
        <pt x="345" y="590" on="1"/>
      </contour>
      <contour>
        <pt x="417" y="103" on="0"/>
        <pt x="486" y="218" on="0"/>
        <pt x="486" y="347" on="1"/>
        <pt x="486" y="492" on="0"/>
        <pt x="448" y="547" on="1"/>
        <pt x="315" y="105" on="1"/>
        <pt x="335" y="103" on="0"/>
        <pt x="345" y="103" on="1"/>
      </contour>
    </TTGlyph>
    <TTGlyph name="Oslashacute" xMin="33" yMin="-134" xMax="658" yMax="990">
      <component glyphName="Oslash" x="0" y="0" flags="0x0"/>
      <component glyphName="acute.case" x="171" y="33" flags="0x0"/>
    </TTGlyph>
    <TTGlyph name="Oslashacute.001" xMin="33" yMin="-134" xMax="658" yMax="990">
      <component glyphName="Oslash" x="0" y="0" flags="0x0"/>
      <component glyphName="acute.case" x="171" y="33" flags="0x0"/>
    </TTGlyph>
    <TTGlyph name="Otilde" xMin="33" yMin="-17" xMax="658" yMax="918">
      <component glyphName="O" x="0" y="0" flags="0x0"/>
      <component glyphName="tilde.case" x="128" y="0" flags="0x0"/>
    </TTGlyph>
    <TTGlyph name="P" xMin="65" yMin="0" xMax="578" yMax="693">
      <contour>
        <pt x="426" y="693" on="0"/>
        <pt x="578" y="579" on="0"/>
        <pt x="578" y="467" on="1"/>
        <pt x="578" y="350" on="0"/>
        <pt x="429" y="231" on="0"/>
        <pt x="304" y="231" on="1"/>
        <pt x="229" y="231" on="1"/>
        <pt x="229" y="0" on="1"/>
        <pt x="65" y="0" on="1"/>
        <pt x="65" y="693" on="1"/>
        <pt x="289" y="693" on="1"/>
      </contour>
      <contour>
        <pt x="348" y="349" on="0"/>
        <pt x="409" y="404" on="0"/>
        <pt x="409" y="467" on="1"/>
        <pt x="409" y="576" on="0"/>
        <pt x="287" y="576" on="1"/>
        <pt x="229" y="576" on="1"/>
        <pt x="229" y="349" on="1"/>
        <pt x="290" y="349" on="1"/>
      </contour>
    </TTGlyph>
    <TTGlyph name="Phi" xMin="16" yMin="0" xMax="827" yMax="693">
      <contour>
        <pt x="827" y="223" on="0"/>
        <pt x="651" y="82" on="0"/>
        <pt x="501" y="75" on="1"/>
        <pt x="501" y="0" on="1"/>
        <pt x="342" y="0" on="1"/>
        <pt x="342" y="76" on="1"/>
        <pt x="190" y="84" on="0"/>
        <pt x="16" y="222" on="0"/>
        <pt x="16" y="345" on="1"/>
        <pt x="16" y="470" on="0"/>
        <pt x="192" y="610" on="0"/>
        <pt x="342" y="617" on="1"/>
        <pt x="342" y="693" on="1"/>
        <pt x="501" y="693" on="1"/>
        <pt x="501" y="616" on="1"/>
        <pt x="652" y="609" on="0"/>
        <pt x="827" y="471" on="0"/>
        <pt x="827" y="349" on="1"/>
      </contour>
      <contour>
        <pt x="580" y="180" on="0"/>
        <pt x="660" y="272" on="0"/>
        <pt x="660" y="349" on="1"/>
        <pt x="660" y="424" on="0"/>
        <pt x="578" y="512" on="0"/>
        <pt x="494" y="519" on="1"/>
        <pt x="494" y="173" on="1"/>
      </contour>
      <contour>
        <pt x="183" y="268" on="0"/>
        <pt x="265" y="180" on="0"/>
        <pt x="349" y="173" on="1"/>
        <pt x="349" y="519" on="1"/>
        <pt x="183" y="505" on="0"/>
        <pt x="183" y="345" on="1"/>
      </contour>
    </TTGlyph>
    <TTGlyph name="Pi" xMin="65" yMin="0" xMax="599" yMax="693">
      <component glyphName="uni041F" x="0" y="0" flags="0x0"/>
    </TTGlyph>
    <TTGlyph name="Psi" xMin="19" yMin="0" xMax="708" yMax="693">
      <contour>
        <pt x="708" y="430" on="1"/>
        <pt x="708" y="326" on="0"/>
        <pt x="574" y="199" on="0"/>
        <pt x="446" y="183" on="1"/>
        <pt x="446" y="0" on="1"/>
        <pt x="282" y="0" on="1"/>
        <pt x="282" y="182" on="1"/>
        <pt x="151" y="198" on="0"/>
        <pt x="19" y="324" on="0"/>
        <pt x="19" y="429" on="1"/>
        <pt x="19" y="693" on="1"/>
        <pt x="177" y="693" on="1"/>
        <pt x="177" y="426" on="1"/>
        <pt x="177" y="369" on="0"/>
        <pt x="229" y="305" on="0"/>
        <pt x="289" y="295" on="1"/>
        <pt x="289" y="693" on="1"/>
        <pt x="439" y="693" on="1"/>
        <pt x="439" y="296" on="1"/>
        <pt x="497" y="306" on="0"/>
        <pt x="551" y="370" on="0"/>
        <pt x="551" y="426" on="1"/>
        <pt x="551" y="693" on="1"/>
        <pt x="708" y="693" on="1"/>
      </contour>
    </TTGlyph>
    <TTGlyph name="Q" xMin="33" yMin="-147" xMax="700" yMax="710">
      <contour>
        <pt x="560" y="45" on="0"/>
        <pt x="656" y="14" on="0"/>
        <pt x="700" y="-18" on="1"/>
        <pt x="601" y="-147" on="1"/>
        <pt x="544" y="-83" on="0"/>
        <pt x="424" y="-14" on="0"/>
        <pt x="335" y="-14" on="1"/>
        <pt x="242" y="-14" on="0"/>
        <pt x="106" y="71" on="0"/>
        <pt x="33" y="233" on="0"/>
        <pt x="33" y="347" on="1"/>
        <pt x="33" y="459" on="0"/>
        <pt x="108" y="623" on="0"/>
        <pt x="248" y="710" on="0"/>
        <pt x="345" y="710" on="1"/>
        <pt x="493" y="710" on="0"/>
        <pt x="658" y="520" on="0"/>
        <pt x="658" y="347" on="1"/>
        <pt x="658" y="135" on="0"/>
        <pt x="495" y="45" on="1"/>
      </contour>
      <contour>
        <pt x="205" y="219" on="0"/>
        <pt x="275" y="103" on="0"/>
        <pt x="345" y="103" on="1"/>
        <pt x="417" y="103" on="0"/>
        <pt x="486" y="218" on="0"/>
        <pt x="486" y="347" on="1"/>
        <pt x="486" y="476" on="0"/>
        <pt x="416" y="590" on="0"/>
        <pt x="345" y="590" on="1"/>
        <pt x="274" y="590" on="0"/>
        <pt x="205" y="475" on="0"/>
        <pt x="205" y="347" on="1"/>
      </contour>
    </TTGlyph>
    <TTGlyph name="R" xMin="65" yMin="0" xMax="620" yMax="693">
      <contour>
        <pt x="229" y="265" on="1"/>
        <pt x="229" y="0" on="1"/>
        <pt x="65" y="0" on="1"/>
        <pt x="65" y="693" on="1"/>
        <pt x="292" y="693" on="1"/>
        <pt x="434" y="693" on="0"/>
        <pt x="577" y="589" on="0"/>
        <pt x="577" y="482" on="1"/>
        <pt x="577" y="415" on="0"/>
        <pt x="513" y="327" on="0"/>
        <pt x="444" y="295" on="1"/>
        <pt x="620" y="0" on="1"/>
        <pt x="435" y="0" on="1"/>
        <pt x="293" y="265" on="1"/>
      </contour>
      <contour>
        <pt x="298" y="378" on="1"/>
        <pt x="353" y="378" on="0"/>
        <pt x="408" y="428" on="0"/>
        <pt x="408" y="482" on="1"/>
        <pt x="408" y="532" on="0"/>
        <pt x="349" y="578" on="0"/>
        <pt x="288" y="578" on="1"/>
        <pt x="229" y="578" on="1"/>
        <pt x="229" y="378" on="1"/>
      </contour>
    </TTGlyph>
    <TTGlyph name="Racute" xMin="65" yMin="0" xMax="620" yMax="956">
      <component glyphName="R" x="0" y="0" flags="0x0"/>
      <component glyphName="acute.case" x="135" y="0" flags="0x0"/>
    </TTGlyph>
    <TTGlyph name="Rcaron" xMin="65" yMin="0" xMax="620" yMax="944">
      <component glyphName="R" x="0" y="0" flags="0x0"/>
      <component glyphName="caron.case" x="87" y="0" flags="0x0"/>
    </TTGlyph>
    <TTGlyph name="Rcommaaccent" xMin="65" yMin="-325" xMax="620" yMax="693">
      <component glyphName="R" x="0" y="0" flags="0x0"/>
      <component glyphName="uni0326.case" x="201" y="0" flags="0x0"/>
    </TTGlyph>
    <TTGlyph name="Rho" xMin="65" yMin="0" xMax="578" yMax="693">
      <component glyphName="P" x="0" y="0" flags="0x0"/>
    </TTGlyph>
    <TTGlyph name="S" xMin="9" yMin="-17" xMax="547" yMax="710">
      <contour>
        <pt x="366" y="710" on="0"/>
        <pt x="481" y="666" on="0"/>
        <pt x="528" y="621" on="1"/>
        <pt x="451" y="532" on="1"/>
        <pt x="381" y="590" on="0"/>
        <pt x="300" y="590" on="1"/>
        <pt x="257" y="590" on="0"/>
        <pt x="207" y="555" on="0"/>
        <pt x="207" y="522" on="1"/>
        <pt x="207" y="499" on="0"/>
        <pt x="229" y="470" on="0"/>
        <pt x="285" y="444" on="0"/>
        <pt x="341" y="426" on="1"/>
        <pt x="447" y="392" on="0"/>
        <pt x="547" y="293" on="0"/>
        <pt x="547" y="202" on="1"/>
        <pt x="547" y="137" on="0"/>
        <pt x="481" y="38" on="0"/>
        <pt x="357" y="-17" on="0"/>
        <pt x="272" y="-17" on="1"/>
        <pt x="187" y="-17" on="0"/>
        <pt x="56" y="37" on="0"/>
        <pt x="9" y="82" on="1"/>
        <pt x="93" y="174" on="1"/>
        <pt x="170" y="105" on="0"/>
        <pt x="267" y="105" on="1"/>
        <pt x="318" y="105" on="0"/>
        <pt x="377" y="150" on="0"/>
        <pt x="377" y="190" on="1"/>
        <pt x="377" y="216" on="0"/>
        <pt x="355" y="251" on="0"/>
        <pt x="301" y="279" on="0"/>
        <pt x="250" y="295" on="1"/>
        <pt x="135" y="330" on="0"/>
        <pt x="38" y="432" on="0"/>
        <pt x="38" y="510" on="1"/>
        <pt x="38" y="570" on="0"/>
        <pt x="102" y="661" on="0"/>
        <pt x="216" y="710" on="0"/>
        <pt x="288" y="710" on="1"/>
      </contour>
    </TTGlyph>
    <TTGlyph name="Sacute" xMin="9" yMin="-17" xMax="547" yMax="956">
      <component glyphName="S" x="0" y="0" flags="0x0"/>
      <component glyphName="acute.case" x="123" y="0" flags="0x0"/>
    </TTGlyph>
    <TTGlyph name="Sacute.loclPLK" xMin="9" yMin="-17" xMax="547" yMax="965">
      <component glyphName="S" x="0" y="0" flags="0x0"/>
      <component glyphName="acute.case.loclPLK" x="125" y="0" flags="0x0"/>
    </TTGlyph>
    <TTGlyph name="Scaron" xMin="9" yMin="-17" xMax="547" yMax="944">
      <component glyphName="S" x="0" y="0" flags="0x0"/>
      <component glyphName="caron.case" x="75" y="0" flags="0x0"/>
    </TTGlyph>
    <TTGlyph name="Scedilla" xMin="9" yMin="-262" xMax="547" yMax="710">
      <contour>
        <pt x="547" y="115" on="0"/>
        <pt x="429" y="-1" on="0"/>
        <pt x="325" y="-14" on="1"/>
        <pt x="325" y="-48" on="1"/>
        <pt x="377" y="-54" on="0"/>
        <pt x="429" y="-105" on="0"/>
        <pt x="429" y="-147" on="1"/>
        <pt x="429" y="-198" on="0"/>
        <pt x="348" y="-262" on="0"/>
        <pt x="280" y="-262" on="1"/>
        <pt x="246" y="-262" on="0"/>
        <pt x="188" y="-245" on="0"/>
        <pt x="168" y="-232" on="1"/>
        <pt x="204" y="-159" on="1"/>
        <pt x="238" y="-176" on="0"/>
        <pt x="268" y="-176" on="1"/>
        <pt x="314" y="-176" on="0"/>
        <pt x="314" y="-146" on="1"/>
        <pt x="314" y="-128" on="0"/>
        <pt x="271" y="-112" on="0"/>
        <pt x="222" y="-112" on="1"/>
        <pt x="234" y="-15" on="1"/>
        <pt x="99" y="-4" on="0"/>
        <pt x="9" y="82" on="1"/>
        <pt x="93" y="174" on="1"/>
        <pt x="170" y="105" on="0"/>
        <pt x="267" y="105" on="1"/>
        <pt x="318" y="105" on="0"/>
        <pt x="377" y="150" on="0"/>
        <pt x="377" y="190" on="1"/>
        <pt x="377" y="216" on="0"/>
        <pt x="355" y="251" on="0"/>
        <pt x="301" y="279" on="0"/>
        <pt x="250" y="295" on="1"/>
        <pt x="135" y="330" on="0"/>
        <pt x="38" y="432" on="0"/>
        <pt x="38" y="510" on="1"/>
        <pt x="38" y="570" on="0"/>
        <pt x="102" y="661" on="0"/>
        <pt x="216" y="710" on="0"/>
        <pt x="288" y="710" on="1"/>
        <pt x="366" y="710" on="0"/>
        <pt x="481" y="666" on="0"/>
        <pt x="528" y="621" on="1"/>
        <pt x="451" y="532" on="1"/>
        <pt x="381" y="590" on="0"/>
        <pt x="300" y="590" on="1"/>
        <pt x="257" y="590" on="0"/>
        <pt x="207" y="555" on="0"/>
        <pt x="207" y="522" on="1"/>
        <pt x="207" y="499" on="0"/>
        <pt x="229" y="470" on="0"/>
        <pt x="285" y="444" on="0"/>
        <pt x="341" y="426" on="1"/>
        <pt x="447" y="392" on="0"/>
        <pt x="547" y="293" on="0"/>
        <pt x="547" y="202" on="1"/>
      </contour>
    </TTGlyph>
    <TTGlyph name="Scircumflex" xMin="9" yMin="-17" xMax="547" yMax="949">
      <component glyphName="S" x="0" y="0" flags="0x0"/>
      <component glyphName="circumflex.case" x="75" y="0" flags="0x0"/>
    </TTGlyph>
    <TTGlyph name="Scommaaccent" xMin="9" yMin="-325" xMax="547" yMax="710">
      <component glyphName="S" x="0" y="0" flags="0x0"/>
      <component glyphName="uni0326.case" x="173" y="0" flags="0x0"/>
    </TTGlyph>
    <TTGlyph name="Sigma" xMin="21" yMin="0" xMax="482" yMax="693">
      <contour>
        <pt x="202" y="574" on="1"/>
        <pt x="370" y="374" on="1"/>
        <pt x="370" y="309" on="1"/>
        <pt x="201" y="122" on="1"/>
        <pt x="482" y="122" on="1"/>
        <pt x="482" y="0" on="1"/>
        <pt x="21" y="0" on="1"/>
        <pt x="21" y="119" on="1"/>
        <pt x="213" y="340" on="1"/>
        <pt x="21" y="574" on="1"/>
        <pt x="21" y="693" on="1"/>
        <pt x="482" y="693" on="1"/>
        <pt x="482" y="574" on="1"/>
      </contour>
    </TTGlyph>
    <TTGlyph name="T" xMin="9" yMin="0" xMax="539" yMax="693">
      <contour>
        <pt x="352" y="567" on="1"/>
        <pt x="352" y="0" on="1"/>
        <pt x="188" y="0" on="1"/>
        <pt x="188" y="567" on="1"/>
        <pt x="9" y="567" on="1"/>
        <pt x="9" y="693" on="1"/>
        <pt x="539" y="693" on="1"/>
        <pt x="523" y="567" on="1"/>
      </contour>
    </TTGlyph>
    <TTGlyph name="Tau" xMin="9" yMin="0" xMax="539" yMax="693">
      <component glyphName="T" x="0" y="0" flags="0x0"/>
    </TTGlyph>
    <TTGlyph name="Tbar" xMin="9" yMin="-1" xMax="540" yMax="693">
      <contour>
        <pt x="352" y="389" on="1"/>
        <pt x="467" y="389" on="1"/>
        <pt x="467" y="297" on="1"/>
        <pt x="352" y="297" on="1"/>
        <pt x="352" y="-1" on="1"/>
        <pt x="188" y="-1" on="1"/>
        <pt x="188" y="297" on="1"/>
        <pt x="73" y="297" on="1"/>
        <pt x="73" y="389" on="1"/>
        <pt x="188" y="389" on="1"/>
        <pt x="188" y="566" on="1"/>
        <pt x="9" y="566" on="1"/>
        <pt x="9" y="693" on="1"/>
        <pt x="540" y="693" on="1"/>
        <pt x="523" y="566" on="1"/>
        <pt x="352" y="566" on="1"/>
      </contour>
    </TTGlyph>
    <TTGlyph name="Tcaron" xMin="9" yMin="0" xMax="539" yMax="944">
      <component glyphName="T" x="0" y="0" flags="0x0"/>
      <component glyphName="caron.case" x="50" y="0" flags="0x0"/>
    </TTGlyph>
    <TTGlyph name="Tcedilla" xMin="9" yMin="-262" xMax="539" yMax="693">
      <contour>
        <pt x="352" y="-48" on="1"/>
        <pt x="404" y="-54" on="0"/>
        <pt x="457" y="-106" on="0"/>
        <pt x="457" y="-147" on="1"/>
        <pt x="457" y="-198" on="0"/>
        <pt x="375" y="-262" on="0"/>
        <pt x="306" y="-262" on="1"/>
        <pt x="273" y="-262" on="0"/>
        <pt x="216" y="-245" on="0"/>
        <pt x="196" y="-232" on="1"/>
        <pt x="232" y="-159" on="1"/>
        <pt x="263" y="-176" on="0"/>
        <pt x="293" y="-176" on="1"/>
        <pt x="342" y="-176" on="0"/>
        <pt x="342" y="-146" on="1"/>
        <pt x="342" y="-128" on="0"/>
        <pt x="299" y="-112" on="0"/>
        <pt x="250" y="-112" on="1"/>
        <pt x="264" y="0" on="1"/>
        <pt x="188" y="0" on="1"/>
        <pt x="188" y="567" on="1"/>
        <pt x="9" y="567" on="1"/>
        <pt x="9" y="693" on="1"/>
        <pt x="539" y="693" on="1"/>
        <pt x="523" y="567" on="1"/>
        <pt x="352" y="567" on="1"/>
        <pt x="352" y="0" on="1"/>
      </contour>
    </TTGlyph>
    <TTGlyph name="Theta" xMin="33" yMin="-17" xMax="658" yMax="710">
      <contour>
        <pt x="493" y="710" on="0"/>
        <pt x="658" y="520" on="0"/>
        <pt x="658" y="347" on="1"/>
        <pt x="658" y="234" on="0"/>
        <pt x="583" y="70" on="0"/>
        <pt x="442" y="-17" on="0"/>
        <pt x="345" y="-17" on="1"/>
        <pt x="248" y="-17" on="0"/>
        <pt x="108" y="69" on="0"/>
        <pt x="33" y="232" on="0"/>
        <pt x="33" y="347" on="1"/>
        <pt x="33" y="459" on="0"/>
        <pt x="108" y="623" on="0"/>
        <pt x="248" y="710" on="0"/>
        <pt x="345" y="710" on="1"/>
      </contour>
      <contour>
        <pt x="270" y="590" on="0"/>
        <pt x="196" y="475" on="0"/>
        <pt x="196" y="347" on="1"/>
        <pt x="196" y="218" on="0"/>
        <pt x="270" y="103" on="0"/>
        <pt x="345" y="103" on="1"/>
        <pt x="422" y="103" on="0"/>
        <pt x="495" y="218" on="0"/>
        <pt x="495" y="347" on="1"/>
        <pt x="495" y="476" on="0"/>
        <pt x="422" y="590" on="0"/>
        <pt x="345" y="590" on="1"/>
      </contour>
      <contour>
        <pt x="244" y="305" on="1"/>
        <pt x="244" y="399" on="1"/>
        <pt x="446" y="399" on="1"/>
        <pt x="446" y="305" on="1"/>
      </contour>
    </TTGlyph>
    <TTGlyph name="Thorn" xMin="65" yMin="0" xMax="578" yMax="693">
      <contour>
        <pt x="426" y="585" on="0"/>
        <pt x="578" y="469" on="0"/>
        <pt x="578" y="356" on="1"/>
        <pt x="578" y="236" on="0"/>
        <pt x="429" y="114" on="0"/>
        <pt x="304" y="114" on="1"/>
        <pt x="229" y="114" on="1"/>
        <pt x="229" y="0" on="1"/>
        <pt x="65" y="0" on="1"/>
        <pt x="65" y="693" on="1"/>
        <pt x="229" y="693" on="1"/>
        <pt x="229" y="585" on="1"/>
        <pt x="289" y="585" on="1"/>
      </contour>
      <contour>
        <pt x="348" y="233" on="0"/>
        <pt x="409" y="290" on="0"/>
        <pt x="409" y="356" on="1"/>
        <pt x="409" y="413" on="0"/>
        <pt x="348" y="468" on="0"/>
        <pt x="287" y="468" on="1"/>
        <pt x="229" y="468" on="1"/>
        <pt x="229" y="233" on="1"/>
        <pt x="290" y="233" on="1"/>
      </contour>
    </TTGlyph>
    <TTGlyph name="U" xMin="55" yMin="-17" xMax="596" yMax="693">
      <contour>
        <pt x="596" y="159" on="0"/>
        <pt x="535" y="47" on="0"/>
        <pt x="413" y="-17" on="0"/>
        <pt x="325" y="-17" on="1"/>
        <pt x="193" y="-17" on="0"/>
        <pt x="55" y="117" on="0"/>
        <pt x="55" y="230" on="1"/>
        <pt x="55" y="693" on="1"/>
        <pt x="219" y="693" on="1"/>
        <pt x="219" y="237" on="1"/>
        <pt x="219" y="170" on="0"/>
        <pt x="270" y="105" on="0"/>
        <pt x="325" y="105" on="1"/>
        <pt x="381" y="105" on="0"/>
        <pt x="432" y="170" on="0"/>
        <pt x="432" y="237" on="1"/>
        <pt x="432" y="693" on="1"/>
        <pt x="596" y="693" on="1"/>
        <pt x="596" y="230" on="1"/>
      </contour>
    </TTGlyph>
    <TTGlyph name="Uacute" xMin="55" yMin="-17" xMax="596" yMax="956">
      <component glyphName="U" x="0" y="0" flags="0x0"/>
      <component glyphName="acute.case" x="153" y="0" flags="0x0"/>
    </TTGlyph>
    <TTGlyph name="Ubreve" xMin="55" yMin="-17" xMax="596" yMax="928">
      <component glyphName="U" x="0" y="0" flags="0x0"/>
      <component glyphName="breve.case" x="123" y="0" flags="0x0"/>
    </TTGlyph>
    <TTGlyph name="Ucircumflex" xMin="55" yMin="-17" xMax="596" yMax="949">
      <component glyphName="U" x="0" y="0" flags="0x0"/>
      <component glyphName="circumflex.case" x="105" y="0" flags="0x0"/>
    </TTGlyph>
    <TTGlyph name="Udieresis" xMin="55" yMin="-17" xMax="596" yMax="925">
      <component glyphName="U" x="0" y="0" flags="0x0"/>
      <component glyphName="dieresis.case" x="97" y="0" flags="0x0"/>
    </TTGlyph>
    <TTGlyph name="Ugrave" xMin="55" yMin="-17" xMax="596" yMax="956">
      <component glyphName="U" x="0" y="0" flags="0x0"/>
      <component glyphName="grave.case" x="148" y="0" flags="0x0"/>
    </TTGlyph>
    <TTGlyph name="Uhungarumlaut" xMin="55" yMin="-17" xMax="596" yMax="986">
      <component glyphName="U" x="0" y="0" flags="0x0"/>
      <component glyphName="hungarumlaut.case" x="162" y="0" flags="0x0"/>
    </TTGlyph>
    <TTGlyph name="Umacron" xMin="55" yMin="-17" xMax="596" yMax="888">
      <component glyphName="U" x="0" y="0" flags="0x0"/>
      <component glyphName="macron.case" x="142" y="-2" flags="0x0"/>
    </TTGlyph>
    <TTGlyph name="Uogonek" xMin="55" yMin="-246" xMax="596" yMax="693">
      <contour>
        <pt x="596" y="230" on="1"/>
        <pt x="596" y="148" on="0"/>
        <pt x="515" y="26" on="0"/>
        <pt x="438" y="0" on="1"/>
        <pt x="320" y="-44" on="0"/>
        <pt x="320" y="-102" on="1"/>
        <pt x="320" y="-148" on="0"/>
        <pt x="373" y="-148" on="1"/>
        <pt x="397" y="-148" on="0"/>
        <pt x="434" y="-140" on="1"/>
        <pt x="423" y="-238" on="1"/>
        <pt x="389" y="-246" on="0"/>
        <pt x="353" y="-246" on="1"/>
        <pt x="288" y="-246" on="0"/>
        <pt x="206" y="-182" on="0"/>
        <pt x="206" y="-129" on="1"/>
        <pt x="206" y="-56" on="0"/>
        <pt x="290" y="-16" on="1"/>
        <pt x="175" y="-6" on="0"/>
        <pt x="55" y="125" on="0"/>
        <pt x="55" y="230" on="1"/>
        <pt x="55" y="693" on="1"/>
        <pt x="219" y="693" on="1"/>
        <pt x="219" y="237" on="1"/>
        <pt x="219" y="170" on="0"/>
        <pt x="270" y="105" on="0"/>
        <pt x="325" y="105" on="1"/>
        <pt x="381" y="105" on="0"/>
        <pt x="432" y="170" on="0"/>
        <pt x="432" y="237" on="1"/>
        <pt x="432" y="693" on="1"/>
        <pt x="596" y="693" on="1"/>
      </contour>
    </TTGlyph>
    <TTGlyph name="Upsilon" xMin="-7" yMin="0" xMax="601" yMax="693">
      <contour>
        <pt x="379" y="0" on="1"/>
        <pt x="215" y="0" on="1"/>
        <pt x="215" y="259" on="1"/>
        <pt x="-7" y="693" on="1"/>
        <pt x="172" y="693" on="1"/>
        <pt x="300" y="388" on="1"/>
        <pt x="428" y="693" on="1"/>
        <pt x="601" y="693" on="1"/>
        <pt x="379" y="260" on="1"/>
      </contour>
    </TTGlyph>
    <TTGlyph name="Upsilondieresis" xMin="-7" yMin="0" xMax="601" yMax="925">
      <component glyphName="Y" x="0" y="0" flags="0x0"/>
      <component glyphName="dieresis.case" x="69" y="0" flags="0x0"/>
    </TTGlyph>
    <TTGlyph name="Upsilontonos" xMin="-209" yMin="0" xMax="601" yMax="724">
      <component glyphName="Y" x="0" y="0" flags="0x0"/>
      <component glyphName="tonos.case" x="-251" y="0" flags="0x0"/>
    </TTGlyph>
    <TTGlyph name="Uring" xMin="55" yMin="-17" xMax="596" yMax="993">
      <component glyphName="U" x="0" y="0" flags="0x0"/>
      <component glyphName="ring.case" x="156" y="0" flags="0x0"/>
    </TTGlyph>
    <TTGlyph name="Utilde" xMin="55" yMin="-17" xMax="596" yMax="918">
      <component glyphName="U" x="0" y="0" flags="0x0"/>
      <component glyphName="tilde.case" x="107" y="0" flags="0x0"/>
    </TTGlyph>
    <TTGlyph name="V" xMin="-13" yMin="0" xMax="584" yMax="693">
      <contour>
        <pt x="187" y="0" on="1"/>
        <pt x="-13" y="693" on="1"/>
        <pt x="160" y="693" on="1"/>
        <pt x="292" y="128" on="1"/>
        <pt x="416" y="693" on="1"/>
        <pt x="584" y="693" on="1"/>
        <pt x="391" y="0" on="1"/>
      </contour>
    </TTGlyph>
    <TTGlyph name="W" xMin="9" yMin="0" xMax="837" yMax="693">
      <contour>
        <pt x="508" y="0" on="1"/>
        <pt x="422" y="529" on="1"/>
        <pt x="331" y="0" on="1"/>
        <pt x="123" y="0" on="1"/>
        <pt x="9" y="693" on="1"/>
        <pt x="173" y="693" on="1"/>
        <pt x="242" y="124" on="1"/>
        <pt x="338" y="693" on="1"/>
        <pt x="510" y="693" on="1"/>
        <pt x="600" y="124" on="1"/>
        <pt x="681" y="693" on="1"/>
        <pt x="837" y="693" on="1"/>
        <pt x="721" y="0" on="1"/>
      </contour>
    </TTGlyph>
    <TTGlyph name="Wacute" xMin="9" yMin="0" xMax="837" yMax="956">
      <component glyphName="W" x="0" y="0" flags="0x0"/>
      <component glyphName="acute.case" x="252" y="0" flags="0x0"/>
    </TTGlyph>
    <TTGlyph name="Wcircumflex" xMin="9" yMin="0" xMax="837" yMax="949">
      <component glyphName="W" x="0" y="0" flags="0x0"/>
      <component glyphName="circumflex.case" x="205" y="0" flags="0x0"/>
    </TTGlyph>
    <TTGlyph name="Wdieresis" xMin="9" yMin="0" xMax="837" yMax="925">
      <component glyphName="W" x="0" y="0" flags="0x0"/>
      <component glyphName="dieresis.case" x="196" y="0" flags="0x0"/>
    </TTGlyph>
    <TTGlyph name="Wgrave" xMin="9" yMin="0" xMax="837" yMax="956">
      <component glyphName="W" x="0" y="0" flags="0x0"/>
      <component glyphName="grave.case" x="248" y="0" flags="0x0"/>
    </TTGlyph>
    <TTGlyph name="X" xMin="-4" yMin="0" xMax="585" yMax="693">
      <contour>
        <pt x="406" y="0" on="1"/>
        <pt x="287" y="264" on="1"/>
        <pt x="170" y="0" on="1"/>
        <pt x="-4" y="0" on="1"/>
        <pt x="190" y="368" on="1"/>
        <pt x="11" y="693" on="1"/>
        <pt x="189" y="693" on="1"/>
        <pt x="289" y="471" on="1"/>
        <pt x="394" y="693" on="1"/>
        <pt x="568" y="693" on="1"/>
        <pt x="385" y="374" on="1"/>
        <pt x="585" y="0" on="1"/>
      </contour>
    </TTGlyph>
    <TTGlyph name="Xi" xMin="29" yMin="0" xMax="495" yMax="693">
      <contour>
        <pt x="29" y="556" on="1"/>
        <pt x="29" y="693" on="1"/>
        <pt x="495" y="693" on="1"/>
        <pt x="476" y="556" on="1"/>
      </contour>
      <contour>
        <pt x="94" y="288" on="1"/>
        <pt x="94" y="416" on="1"/>
        <pt x="428" y="416" on="1"/>
        <pt x="428" y="288" on="1"/>
      </contour>
      <contour>
        <pt x="29" y="0" on="1"/>
        <pt x="29" y="142" on="1"/>
        <pt x="495" y="142" on="1"/>
        <pt x="495" y="0" on="1"/>
      </contour>
    </TTGlyph>
    <TTGlyph name="Y" xMin="-7" yMin="0" xMax="601" yMax="693">
      <contour>
        <pt x="379" y="0" on="1"/>
        <pt x="215" y="0" on="1"/>
        <pt x="215" y="259" on="1"/>
        <pt x="-7" y="693" on="1"/>
        <pt x="172" y="693" on="1"/>
        <pt x="300" y="388" on="1"/>
        <pt x="428" y="693" on="1"/>
        <pt x="601" y="693" on="1"/>
        <pt x="379" y="260" on="1"/>
      </contour>
    </TTGlyph>
    <TTGlyph name="Yacute" xMin="-7" yMin="0" xMax="601" yMax="956">
      <component glyphName="Y" x="0" y="0" flags="0x0"/>
      <component glyphName="acute.case" x="125" y="0" flags="0x0"/>
    </TTGlyph>
    <TTGlyph name="Ycircumflex" xMin="-7" yMin="0" xMax="601" yMax="949">
      <component glyphName="Y" x="0" y="0" flags="0x0"/>
      <component glyphName="circumflex.case" x="78" y="0" flags="0x0"/>
    </TTGlyph>
    <TTGlyph name="Ydieresis" xMin="-7" yMin="0" xMax="601" yMax="925">
      <component glyphName="Y" x="0" y="0" flags="0x0"/>
      <component glyphName="dieresis.case" x="69" y="0" flags="0x0"/>
    </TTGlyph>
    <TTGlyph name="Ygrave" xMin="-7" yMin="0" xMax="601" yMax="956">
      <component glyphName="Y" x="0" y="0" flags="0x0"/>
      <component glyphName="grave.case" x="121" y="0" flags="0x0"/>
    </TTGlyph>
    <TTGlyph name="Z" xMin="18" yMin="0" xMax="517" yMax="693">
      <contour>
        <pt x="211" y="131" on="1"/>
        <pt x="517" y="131" on="1"/>
        <pt x="501" y="0" on="1"/>
        <pt x="18" y="0" on="1"/>
        <pt x="18" y="123" on="1"/>
        <pt x="325" y="566" on="1"/>
        <pt x="49" y="566" on="1"/>
        <pt x="49" y="693" on="1"/>
        <pt x="512" y="693" on="1"/>
        <pt x="512" y="569" on="1"/>
      </contour>
    </TTGlyph>
    <TTGlyph name="Zacute" xMin="18" yMin="0" xMax="517" yMax="956">
      <component glyphName="Z" x="0" y="0" flags="0x0"/>
      <component glyphName="acute.case" x="104" y="0" flags="0x0"/>
    </TTGlyph>
    <TTGlyph name="Zacute.loclPLK" xMin="18" yMin="0" xMax="517" yMax="965">
      <component glyphName="Z" x="0" y="0" flags="0x0"/>
      <component glyphName="acute.case.loclPLK" x="106" y="0" flags="0x0"/>
    </TTGlyph>
    <TTGlyph name="Zcaron" xMin="18" yMin="0" xMax="517" yMax="944">
      <component glyphName="Z" x="0" y="0" flags="0x0"/>
      <component glyphName="caron.case" x="56" y="0" flags="0x0"/>
    </TTGlyph>
    <TTGlyph name="Zdotaccent" xMin="18" yMin="0" xMax="517" yMax="937">
      <component glyphName="Z" x="0" y="0" flags="0x0"/>
      <component glyphName="dotaccent.case" x="152" y="0" flags="0x0"/>
    </TTGlyph>
    <TTGlyph name="Zeta" xMin="18" yMin="0" xMax="517" yMax="693">
      <component glyphName="Z" x="0" y="0" flags="0x0"/>
    </TTGlyph>
    <TTGlyph name="a" xMin="26" yMin="-17" xMax="520" yMax="548">
      <contour>
        <pt x="484" y="124" on="0"/>
        <pt x="501" y="96" on="0"/>
        <pt x="520" y="89" on="1"/>
        <pt x="487" y="-14" on="1"/>
        <pt x="438" y="-10" on="0"/>
        <pt x="377" y="24" on="0"/>
        <pt x="359" y="62" on="1"/>
        <pt x="307" y="-17" on="0"/>
        <pt x="199" y="-17" on="1"/>
        <pt x="120" y="-17" on="0"/>
        <pt x="26" y="75" on="0"/>
        <pt x="26" y="149" on="1"/>
        <pt x="26" y="236" on="0"/>
        <pt x="154" y="328" on="0"/>
        <pt x="275" y="328" on="1"/>
        <pt x="329" y="328" on="1"/>
        <pt x="329" y="351" on="1"/>
        <pt x="329" y="398" on="0"/>
        <pt x="289" y="433" on="0"/>
        <pt x="239" y="433" on="1"/>
        <pt x="213" y="433" on="0"/>
        <pt x="139" y="418" on="0"/>
        <pt x="100" y="405" on="1"/>
        <pt x="64" y="509" on="1"/>
        <pt x="114" y="528" on="0"/>
        <pt x="219" y="548" on="0"/>
        <pt x="264" y="548" on="1"/>
        <pt x="378" y="548" on="0"/>
        <pt x="484" y="454" on="0"/>
        <pt x="484" y="360" on="1"/>
        <pt x="484" y="154" on="1"/>
      </contour>
      <contour>
        <pt x="271" y="96" on="0"/>
        <pt x="314" y="122" on="0"/>
        <pt x="329" y="146" on="1"/>
        <pt x="329" y="241" on="1"/>
        <pt x="290" y="241" on="1"/>
        <pt x="236" y="241" on="0"/>
        <pt x="183" y="203" on="0"/>
        <pt x="183" y="163" on="1"/>
        <pt x="183" y="131" on="0"/>
        <pt x="216" y="96" on="0"/>
        <pt x="245" y="96" on="1"/>
      </contour>
    </TTGlyph>
    <TTGlyph name="a.sc" xMin="-13" yMin="0" xMax="533" yMax="568">
      <contour>
        <pt x="177" y="115" on="1"/>
        <pt x="150" y="0" on="1"/>
        <pt x="-13" y="0" on="1"/>
        <pt x="166" y="568" on="1"/>
        <pt x="354" y="568" on="1"/>
        <pt x="533" y="0" on="1"/>
        <pt x="367" y="0" on="1"/>
        <pt x="339" y="115" on="1"/>
      </contour>
      <contour>
        <pt x="258" y="459" on="1"/>
        <pt x="203" y="226" on="1"/>
        <pt x="313" y="226" on="1"/>
      </contour>
    </TTGlyph>
    <TTGlyph name="aacute" xMin="26" yMin="-17" xMax="520" yMax="835">
      <component glyphName="a" x="0" y="0" flags="0x0"/>
      <component glyphName="acute" x="91" y="0" flags="0x0"/>
    </TTGlyph>
    <TTGlyph name="aacute.sc" xMin="-13" yMin="0" xMax="533" yMax="865">
      <component glyphName="a.sc" x="0" y="0" flags="0x0"/>
      <component glyphName="acute.sc" x="83" y="0" flags="0x0"/>
    </TTGlyph>
    <TTGlyph name="abreve" xMin="26" yMin="-17" xMax="520" yMax="820">
      <component glyphName="a" x="0" y="0" flags="0x0"/>
      <component glyphName="breve" x="68" y="0" flags="0x0"/>
    </TTGlyph>
    <TTGlyph name="abreve.sc" xMin="-13" yMin="0" xMax="533" yMax="850">
      <component glyphName="a.sc" x="0" y="0" flags="0x0"/>
      <component glyphName="breve.sc" x="57" y="0" flags="0x0"/>
    </TTGlyph>
    <TTGlyph name="acircumflex" xMin="26" yMin="-17" xMax="520" yMax="822">
      <component glyphName="a" x="0" y="0" flags="0x0"/>
      <component glyphName="circumflex" x="51" y="0" flags="0x0"/>
    </TTGlyph>
    <TTGlyph name="acircumflex.sc" xMin="-13" yMin="0" xMax="533" yMax="852">
      <component glyphName="a.sc" x="0" y="0" flags="0x0"/>
      <component glyphName="circumflex.sc" x="40" y="0" flags="0x0"/>
    </TTGlyph>
    <TTGlyph name="acute" xMin="30" yMin="622" xMax="310" yMax="835">
      <contour>
        <pt x="74" y="622" on="1"/>
        <pt x="30" y="703" on="1"/>
        <pt x="248" y="835" on="1"/>
        <pt x="310" y="717" on="1"/>
      </contour>
    </TTGlyph>
    <TTGlyph name="acute.case" xMin="30" yMin="751" xMax="310" yMax="956">
      <contour>
        <pt x="70" y="751" on="1"/>
        <pt x="30" y="831" on="1"/>
        <pt x="249" y="956" on="1"/>
        <pt x="310" y="838" on="1"/>
      </contour>
    </TTGlyph>
    <TTGlyph name="acute.case.loclPLK" xMin="98" yMin="741" xMax="312" yMax="965">
      <contour>
        <pt x="169" y="741" on="1"/>
        <pt x="98" y="782" on="1"/>
        <pt x="195" y="965" on="1"/>
        <pt x="312" y="898" on="1"/>
      </contour>
    </TTGlyph>
    <TTGlyph name="acute.loclPLK" xMin="98" yMin="581" xMax="311" yMax="809">
      <contour>
        <pt x="169" y="581" on="1"/>
        <pt x="98" y="622" on="1"/>
        <pt x="194" y="809" on="1"/>
        <pt x="311" y="743" on="1"/>
      </contour>
    </TTGlyph>
    <TTGlyph name="acute.sc" xMin="30" yMin="653" xMax="310" yMax="865">
      <contour>
        <pt x="74" y="653" on="1"/>
        <pt x="30" y="733" on="1"/>
        <pt x="249" y="865" on="1"/>
        <pt x="310" y="747" on="1"/>
      </contour>
    </TTGlyph>
    <TTGlyph name="acute.sc.loclPLK" xMin="98" yMin="626" xMax="311" yMax="854">
      <contour>
        <pt x="169" y="626" on="1"/>
        <pt x="98" y="667" on="1"/>
        <pt x="194" y="854" on="1"/>
        <pt x="311" y="788" on="1"/>
      </contour>
    </TTGlyph>
    <TTGlyph name="acutecomb" xMin="39" yMin="625" xMax="319" yMax="830">
      <contour>
        <pt x="79" y="625" on="1"/>
        <pt x="39" y="705" on="1"/>
        <pt x="258" y="830" on="1"/>
        <pt x="319" y="712" on="1"/>
      </contour>
    </TTGlyph>
    <TTGlyph name="acutecombcomb" xMin="39" yMin="625" xMax="319" yMax="830">
      <component glyphName="acutecomb" x="0" y="0" flags="0x0"/>
    </TTGlyph>
    <TTGlyph name="adieresis" xMin="26" yMin="-17" xMax="520" yMax="799">
      <component glyphName="a" x="0" y="0" flags="0x0"/>
      <component glyphName="dieresis" x="42" y="0" flags="0x0"/>
    </TTGlyph>
    <TTGlyph name="adieresis.sc" xMin="-13" yMin="0" xMax="533" yMax="829">
      <component glyphName="a.sc" x="0" y="0" flags="0x0"/>
      <component glyphName="dieresis.sc" x="31" y="0" flags="0x0"/>
    </TTGlyph>
    <TTGlyph name="ae" xMin="26" yMin="-17" xMax="828" yMax="548">
      <contour>
        <pt x="828" y="243" on="0"/>
        <pt x="825" y="219" on="1"/>
        <pt x="496" y="219" on="1"/>
        <pt x="504" y="152" on="0"/>
        <pt x="564" y="98" on="0"/>
        <pt x="617" y="98" on="1"/>
        <pt x="649" y="98" on="0"/>
        <pt x="709" y="121" on="0"/>
        <pt x="744" y="145" on="1"/>
        <pt x="809" y="57" on="1"/>
        <pt x="716" y="-17" on="0"/>
        <pt x="602" y="-17" on="1"/>
        <pt x="532" y="-17" on="0"/>
        <pt x="426" y="31" on="0"/>
        <pt x="391" y="74" on="1"/>
        <pt x="327" y="-17" on="0"/>
        <pt x="203" y="-17" on="1"/>
        <pt x="122" y="-17" on="0"/>
        <pt x="26" y="75" on="0"/>
        <pt x="26" y="149" on="1"/>
        <pt x="26" y="236" on="0"/>
        <pt x="157" y="328" on="0"/>
        <pt x="281" y="328" on="1"/>
        <pt x="335" y="328" on="1"/>
        <pt x="335" y="350" on="1"/>
        <pt x="335" y="396" on="0"/>
        <pt x="294" y="432" on="0"/>
        <pt x="245" y="432" on="1"/>
        <pt x="219" y="432" on="0"/>
        <pt x="145" y="417" on="0"/>
        <pt x="106" y="404" on="1"/>
        <pt x="70" y="509" on="1"/>
        <pt x="120" y="528" on="0"/>
        <pt x="225" y="548" on="0"/>
        <pt x="270" y="548" on="1"/>
        <pt x="382" y="548" on="0"/>
        <pt x="432" y="482" on="1"/>
        <pt x="493" y="548" on="0"/>
        <pt x="588" y="548" on="1"/>
        <pt x="699" y="548" on="0"/>
        <pt x="828" y="404" on="0"/>
        <pt x="828" y="276" on="1"/>
      </contour>
      <contour>
        <pt x="672" y="321" on="1"/>
        <pt x="672" y="443" on="0"/>
        <pt x="586" y="443" on="1"/>
        <pt x="545" y="443" on="0"/>
        <pt x="501" y="384" on="0"/>
        <pt x="496" y="314" on="1"/>
        <pt x="672" y="314" on="1"/>
      </contour>
      <contour>
        <pt x="282" y="96" on="0"/>
        <pt x="327" y="128" on="0"/>
        <pt x="348" y="160" on="1"/>
        <pt x="338" y="197" on="0"/>
        <pt x="337" y="234" on="1"/>
        <pt x="337" y="238" on="1"/>
        <pt x="297" y="238" on="1"/>
        <pt x="244" y="238" on="0"/>
        <pt x="193" y="201" on="0"/>
        <pt x="193" y="160" on="1"/>
        <pt x="193" y="130" on="0"/>
        <pt x="224" y="96" on="0"/>
        <pt x="253" y="96" on="1"/>
      </contour>
    </TTGlyph>
    <TTGlyph name="ae.sc" xMin="-23" yMin="0" xMax="713" yMax="568">
      <contour>
        <pt x="713" y="0" on="1"/>
        <pt x="381" y="0" on="1"/>
        <pt x="362" y="115" on="1"/>
        <pt x="186" y="115" on="1"/>
        <pt x="147" y="0" on="1"/>
        <pt x="-23" y="0" on="1"/>
        <pt x="212" y="568" on="1"/>
        <pt x="682" y="568" on="1"/>
        <pt x="666" y="458" on="1"/>
        <pt x="443" y="458" on="1"/>
        <pt x="466" y="342" on="1"/>
        <pt x="674" y="342" on="1"/>
        <pt x="674" y="234" on="1"/>
        <pt x="487" y="234" on="1"/>
        <pt x="512" y="111" on="1"/>
        <pt x="713" y="111" on="1"/>
      </contour>
      <contour>
        <pt x="304" y="455" on="1"/>
        <pt x="225" y="226" on="1"/>
        <pt x="343" y="226" on="1"/>
      </contour>
    </TTGlyph>
    <TTGlyph name="aeacute" xMin="26" yMin="-17" xMax="828" yMax="835">
      <component glyphName="ae" x="0" y="0" flags="0x0"/>
      <component glyphName="acute" x="247" y="0" flags="0x0"/>
    </TTGlyph>
    <TTGlyph name="aeacute.sc" xMin="-23" yMin="0" xMax="713" yMax="865">
      <component glyphName="ae.sc" x="0" y="0" flags="0x0"/>
      <component glyphName="acute.sc" x="240" y="0" flags="0x0"/>
    </TTGlyph>
    <TTGlyph name="agrave" xMin="26" yMin="-17" xMax="520" yMax="835">
      <component glyphName="a" x="0" y="0" flags="0x0"/>
      <component glyphName="grave" x="111" y="0" flags="0x0"/>
    </TTGlyph>
    <TTGlyph name="agrave.sc" xMin="-13" yMin="0" xMax="533" yMax="865">
      <component glyphName="a.sc" x="0" y="0" flags="0x0"/>
      <component glyphName="grave.sc" x="96" y="0" flags="0x0"/>
    </TTGlyph>
    <TTGlyph name="alpha" xMin="34" yMin="-17" xMax="575" yMax="548">
      <contour>
        <pt x="381" y="548" on="0"/>
        <pt x="410" y="410" on="1"/>
        <pt x="427" y="531" on="1"/>
        <pt x="562" y="531" on="1"/>
        <pt x="493" y="260" on="1"/>
        <pt x="519" y="155" on="1"/>
        <pt x="526" y="130" on="0"/>
        <pt x="552" y="106" on="0"/>
        <pt x="575" y="101" on="1"/>
        <pt x="524" y="-17" on="1"/>
        <pt x="426" y="-4" on="0"/>
        <pt x="408" y="77" on="1"/>
        <pt x="401" y="113" on="1"/>
        <pt x="376" y="48" on="0"/>
        <pt x="296" y="-17" on="0"/>
        <pt x="236" y="-17" on="1"/>
        <pt x="143" y="-17" on="0"/>
        <pt x="34" y="127" on="0"/>
        <pt x="34" y="261" on="1"/>
        <pt x="34" y="345" on="0"/>
        <pt x="86" y="475" on="0"/>
        <pt x="184" y="548" on="0"/>
        <pt x="252" y="548" on="1"/>
      </contour>
      <contour>
        <pt x="236" y="433" on="0"/>
        <pt x="193" y="346" on="0"/>
        <pt x="193" y="261" on="1"/>
        <pt x="193" y="176" on="0"/>
        <pt x="235" y="98" on="0"/>
        <pt x="270" y="98" on="1"/>
        <pt x="305" y="98" on="0"/>
        <pt x="354" y="174" on="0"/>
        <pt x="371" y="272" on="1"/>
        <pt x="355" y="363" on="0"/>
        <pt x="310" y="433" on="0"/>
        <pt x="272" y="433" on="1"/>
      </contour>
    </TTGlyph>
    <TTGlyph name="alpha.sc" xMin="-13" yMin="0" xMax="533" yMax="568">
      <contour>
        <pt x="177" y="115" on="1"/>
        <pt x="150" y="0" on="1"/>
        <pt x="-13" y="0" on="1"/>
        <pt x="166" y="568" on="1"/>
        <pt x="354" y="568" on="1"/>
        <pt x="533" y="0" on="1"/>
        <pt x="367" y="0" on="1"/>
        <pt x="339" y="115" on="1"/>
      </contour>
      <contour>
        <pt x="258" y="459" on="1"/>
        <pt x="203" y="226" on="1"/>
        <pt x="313" y="226" on="1"/>
      </contour>
    </TTGlyph>
    <TTGlyph name="alphatonos" xMin="34" yMin="-17" xMax="575" yMax="847">
      <component glyphName="alpha" x="0" y="0" flags="0x0"/>
      <component glyphName="tonos" x="195" y="0" flags="0x0"/>
    </TTGlyph>
    <TTGlyph name="alphatonos.sc" xMin="-13" yMin="0" xMax="533" yMax="568">
      <component glyphName="a.sc" x="0" y="0" flags="0x0"/>
    </TTGlyph>
    <TTGlyph name="amacron" xMin="26" yMin="-17" xMax="520" yMax="765">
      <component glyphName="a" x="0" y="0" flags="0x0"/>
      <component glyphName="macron" x="88" y="0" flags="0x0"/>
    </TTGlyph>
    <TTGlyph name="amacron.sc" xMin="-13" yMin="0" xMax="533" yMax="795">
      <component glyphName="a.sc" x="0" y="0" flags="0x0"/>
      <component glyphName="macron.sc" x="76" y="0" flags="0x0"/>
    </TTGlyph>
    <TTGlyph name="ampersand" xMin="60" yMin="-17" xMax="739" yMax="710">
      <contour>
        <pt x="379" y="710" on="0"/>
        <pt x="476" y="668" on="0"/>
        <pt x="527" y="596" on="0"/>
        <pt x="527" y="550" on="1"/>
        <pt x="527" y="491" on="0"/>
        <pt x="460" y="404" on="0"/>
        <pt x="395" y="361" on="1"/>
        <pt x="530" y="234" on="1"/>
        <pt x="559" y="294" on="0"/>
        <pt x="578" y="378" on="1"/>
        <pt x="710" y="339" on="1"/>
        <pt x="672" y="229" on="0"/>
        <pt x="618" y="153" on="1"/>
        <pt x="739" y="46" on="1"/>
        <pt x="604" y="-17" on="1"/>
        <pt x="526" y="58" on="1"/>
        <pt x="433" y="-17" on="0"/>
        <pt x="307" y="-17" on="1"/>
        <pt x="234" y="-17" on="0"/>
        <pt x="122" y="31" on="0"/>
        <pt x="60" y="119" on="0"/>
        <pt x="60" y="177" on="1"/>
        <pt x="60" y="237" on="0"/>
        <pt x="125" y="327" on="0"/>
        <pt x="195" y="373" on="1"/>
        <pt x="141" y="425" on="0"/>
        <pt x="99" y="498" on="0"/>
        <pt x="99" y="544" on="1"/>
        <pt x="99" y="589" on="0"/>
        <pt x="147" y="664" on="0"/>
        <pt x="244" y="710" on="0"/>
        <pt x="313" y="710" on="1"/>
      </contour>
      <contour>
        <pt x="285" y="608" on="0"/>
        <pt x="251" y="573" on="0"/>
        <pt x="251" y="544" on="1"/>
        <pt x="251" y="518" on="0"/>
        <pt x="276" y="476" on="0"/>
        <pt x="308" y="444" on="1"/>
        <pt x="343" y="467" on="0"/>
        <pt x="376" y="515" on="0"/>
        <pt x="376" y="546" on="1"/>
        <pt x="376" y="575" on="0"/>
        <pt x="343" y="608" on="0"/>
        <pt x="315" y="608" on="1"/>
      </contour>
      <contour>
        <pt x="254" y="265" on="0"/>
        <pt x="225" y="216" on="0"/>
        <pt x="225" y="186" on="1"/>
        <pt x="225" y="145" on="0"/>
        <pt x="285" y="95" on="0"/>
        <pt x="334" y="95" on="1"/>
        <pt x="397" y="95" on="0"/>
        <pt x="447" y="133" on="1"/>
        <pt x="285" y="288" on="1"/>
      </contour>
    </TTGlyph>
    <TTGlyph name="aogonek" xMin="26" yMin="-260" xMax="520" yMax="548">
      <contour>
        <pt x="370" y="-58" on="0"/>
        <pt x="370" y="-117" on="1"/>
        <pt x="370" y="-162" on="0"/>
        <pt x="423" y="-162" on="1"/>
        <pt x="452" y="-162" on="0"/>
        <pt x="484" y="-155" on="1"/>
        <pt x="473" y="-253" on="1"/>
        <pt x="436" y="-260" on="0"/>
        <pt x="403" y="-260" on="1"/>
        <pt x="338" y="-260" on="0"/>
        <pt x="256" y="-197" on="0"/>
        <pt x="256" y="-144" on="1"/>
        <pt x="256" y="-90" on="0"/>
        <pt x="329" y="-13" on="0"/>
        <pt x="397" y="14" on="1"/>
        <pt x="373" y="32" on="0"/>
        <pt x="359" y="62" on="1"/>
        <pt x="307" y="-17" on="0"/>
        <pt x="199" y="-17" on="1"/>
        <pt x="120" y="-17" on="0"/>
        <pt x="26" y="75" on="0"/>
        <pt x="26" y="149" on="1"/>
        <pt x="26" y="236" on="0"/>
        <pt x="154" y="328" on="0"/>
        <pt x="275" y="328" on="1"/>
        <pt x="329" y="328" on="1"/>
        <pt x="329" y="351" on="1"/>
        <pt x="329" y="398" on="0"/>
        <pt x="289" y="433" on="0"/>
        <pt x="239" y="433" on="1"/>
        <pt x="213" y="433" on="0"/>
        <pt x="139" y="418" on="0"/>
        <pt x="100" y="405" on="1"/>
        <pt x="64" y="509" on="1"/>
        <pt x="114" y="528" on="0"/>
        <pt x="219" y="548" on="0"/>
        <pt x="264" y="548" on="1"/>
        <pt x="378" y="548" on="0"/>
        <pt x="484" y="454" on="0"/>
        <pt x="484" y="360" on="1"/>
        <pt x="484" y="154" on="1"/>
        <pt x="484" y="124" on="0"/>
        <pt x="501" y="96" on="0"/>
        <pt x="520" y="89" on="1"/>
        <pt x="488" y="-15" on="1"/>
      </contour>
      <contour>
        <pt x="271" y="96" on="0"/>
        <pt x="314" y="122" on="0"/>
        <pt x="329" y="146" on="1"/>
        <pt x="329" y="241" on="1"/>
        <pt x="290" y="241" on="1"/>
        <pt x="236" y="241" on="0"/>
        <pt x="183" y="203" on="0"/>
        <pt x="183" y="163" on="1"/>
        <pt x="183" y="131" on="0"/>
        <pt x="216" y="96" on="0"/>
        <pt x="245" y="96" on="1"/>
      </contour>
    </TTGlyph>
    <TTGlyph name="aogonek.sc" xMin="-13" yMin="-245" xMax="533" yMax="568">
      <contour>
        <pt x="342" y="-43" on="0"/>
        <pt x="342" y="-102" on="1"/>
        <pt x="342" y="-147" on="0"/>
        <pt x="395" y="-147" on="1"/>
        <pt x="424" y="-147" on="0"/>
        <pt x="456" y="-140" on="1"/>
        <pt x="445" y="-238" on="1"/>
        <pt x="408" y="-245" on="0"/>
        <pt x="375" y="-245" on="1"/>
        <pt x="310" y="-245" on="0"/>
        <pt x="228" y="-182" on="0"/>
        <pt x="228" y="-129" on="1"/>
        <pt x="228" y="-30" on="0"/>
        <pt x="361" y="25" on="1"/>
        <pt x="339" y="115" on="1"/>
        <pt x="177" y="115" on="1"/>
        <pt x="150" y="0" on="1"/>
        <pt x="-13" y="0" on="1"/>
        <pt x="166" y="568" on="1"/>
        <pt x="354" y="568" on="1"/>
        <pt x="533" y="0" on="1"/>
        <pt x="460" y="0" on="1"/>
      </contour>
      <contour>
        <pt x="258" y="459" on="1"/>
        <pt x="203" y="226" on="1"/>
        <pt x="313" y="226" on="1"/>
      </contour>
    </TTGlyph>
    <TTGlyph name="approxequal" xMin="16" yMin="130" xMax="498" yMax="516">
      <component glyphName="asciitilde" x="0" y="-102" flags="0x0"/>
      <component glyphName="asciitilde" x="0" y="106" flags="0x0"/>
    </TTGlyph>
    <TTGlyph name="approxequal.osf" xMin="17" yMin="130" xMax="498" yMax="516">
      <contour>
        <pt x="211" y="516" on="0"/>
        <pt x="257" y="498" on="0"/>
        <pt x="287" y="480" on="1"/>
        <pt x="306" y="468" on="0"/>
        <pt x="331" y="456" on="0"/>
        <pt x="345" y="456" on="1"/>
        <pt x="369" y="456" on="0"/>
        <pt x="396" y="482" on="0"/>
        <pt x="411" y="509" on="1"/>
        <pt x="498" y="463" on="1"/>
        <pt x="471" y="407" on="0"/>
        <pt x="396" y="338" on="0"/>
        <pt x="339" y="338" on="1"/>
        <pt x="304" y="338" on="0"/>
        <pt x="256" y="358" on="0"/>
        <pt x="227" y="376" on="1"/>
        <pt x="205" y="389" on="0"/>
        <pt x="184" y="399" on="0"/>
        <pt x="171" y="399" on="1"/>
        <pt x="146" y="399" on="0"/>
        <pt x="120" y="372" on="0"/>
        <pt x="104" y="344" on="1"/>
        <pt x="17" y="390" on="1"/>
        <pt x="45" y="446" on="0"/>
        <pt x="120" y="516" on="0"/>
        <pt x="177" y="516" on="1"/>
      </contour>
      <contour>
        <pt x="211" y="308" on="0"/>
        <pt x="257" y="290" on="0"/>
        <pt x="287" y="272" on="1"/>
        <pt x="306" y="260" on="0"/>
        <pt x="331" y="248" on="0"/>
        <pt x="345" y="248" on="1"/>
        <pt x="369" y="248" on="0"/>
        <pt x="396" y="274" on="0"/>
        <pt x="411" y="301" on="1"/>
        <pt x="498" y="255" on="1"/>
        <pt x="471" y="199" on="0"/>
        <pt x="396" y="130" on="0"/>
        <pt x="339" y="130" on="1"/>
        <pt x="304" y="130" on="0"/>
        <pt x="256" y="150" on="0"/>
        <pt x="227" y="168" on="1"/>
        <pt x="205" y="181" on="0"/>
        <pt x="184" y="191" on="0"/>
        <pt x="171" y="191" on="1"/>
        <pt x="146" y="191" on="0"/>
        <pt x="120" y="164" on="0"/>
        <pt x="104" y="136" on="1"/>
        <pt x="17" y="182" on="1"/>
        <pt x="45" y="238" on="0"/>
        <pt x="120" y="308" on="0"/>
        <pt x="177" y="308" on="1"/>
      </contour>
    </TTGlyph>
    <TTGlyph name="approxequal.tf" xMin="40" yMin="130" xMax="521" yMax="516">
      <contour>
        <pt x="234" y="516" on="0"/>
        <pt x="280" y="498" on="0"/>
        <pt x="310" y="480" on="1"/>
        <pt x="329" y="468" on="0"/>
        <pt x="354" y="456" on="0"/>
        <pt x="368" y="456" on="1"/>
        <pt x="392" y="456" on="0"/>
        <pt x="419" y="482" on="0"/>
        <pt x="434" y="509" on="1"/>
        <pt x="521" y="463" on="1"/>
        <pt x="494" y="407" on="0"/>
        <pt x="419" y="338" on="0"/>
        <pt x="362" y="338" on="1"/>
        <pt x="327" y="338" on="0"/>
        <pt x="279" y="358" on="0"/>
        <pt x="250" y="376" on="1"/>
        <pt x="228" y="389" on="0"/>
        <pt x="207" y="399" on="0"/>
        <pt x="194" y="399" on="1"/>
        <pt x="169" y="399" on="0"/>
        <pt x="143" y="372" on="0"/>
        <pt x="127" y="344" on="1"/>
        <pt x="40" y="390" on="1"/>
        <pt x="68" y="446" on="0"/>
        <pt x="143" y="516" on="0"/>
        <pt x="200" y="516" on="1"/>
      </contour>
      <contour>
        <pt x="234" y="308" on="0"/>
        <pt x="280" y="290" on="0"/>
        <pt x="310" y="272" on="1"/>
        <pt x="329" y="260" on="0"/>
        <pt x="354" y="248" on="0"/>
        <pt x="368" y="248" on="1"/>
        <pt x="392" y="248" on="0"/>
        <pt x="419" y="274" on="0"/>
        <pt x="434" y="301" on="1"/>
        <pt x="521" y="255" on="1"/>
        <pt x="494" y="199" on="0"/>
        <pt x="419" y="130" on="0"/>
        <pt x="362" y="130" on="1"/>
        <pt x="327" y="130" on="0"/>
        <pt x="279" y="150" on="0"/>
        <pt x="250" y="168" on="1"/>
        <pt x="228" y="181" on="0"/>
        <pt x="207" y="191" on="0"/>
        <pt x="194" y="191" on="1"/>
        <pt x="169" y="191" on="0"/>
        <pt x="143" y="164" on="0"/>
        <pt x="127" y="136" on="1"/>
        <pt x="40" y="182" on="1"/>
        <pt x="68" y="238" on="0"/>
        <pt x="143" y="308" on="0"/>
        <pt x="200" y="308" on="1"/>
      </contour>
    </TTGlyph>
    <TTGlyph name="approxequal.tosf" xMin="40" yMin="130" xMax="521" yMax="516">
      <contour>
        <pt x="234" y="516" on="0"/>
        <pt x="280" y="498" on="0"/>
        <pt x="310" y="480" on="1"/>
        <pt x="329" y="468" on="0"/>
        <pt x="354" y="456" on="0"/>
        <pt x="368" y="456" on="1"/>
        <pt x="392" y="456" on="0"/>
        <pt x="419" y="482" on="0"/>
        <pt x="434" y="509" on="1"/>
        <pt x="521" y="463" on="1"/>
        <pt x="494" y="407" on="0"/>
        <pt x="419" y="338" on="0"/>
        <pt x="362" y="338" on="1"/>
        <pt x="327" y="338" on="0"/>
        <pt x="279" y="358" on="0"/>
        <pt x="250" y="376" on="1"/>
        <pt x="228" y="389" on="0"/>
        <pt x="207" y="399" on="0"/>
        <pt x="194" y="399" on="1"/>
        <pt x="169" y="399" on="0"/>
        <pt x="143" y="372" on="0"/>
        <pt x="127" y="344" on="1"/>
        <pt x="40" y="390" on="1"/>
        <pt x="68" y="446" on="0"/>
        <pt x="143" y="516" on="0"/>
        <pt x="200" y="516" on="1"/>
      </contour>
      <contour>
        <pt x="234" y="308" on="0"/>
        <pt x="280" y="290" on="0"/>
        <pt x="310" y="272" on="1"/>
        <pt x="329" y="260" on="0"/>
        <pt x="354" y="248" on="0"/>
        <pt x="368" y="248" on="1"/>
        <pt x="392" y="248" on="0"/>
        <pt x="419" y="274" on="0"/>
        <pt x="434" y="301" on="1"/>
        <pt x="521" y="255" on="1"/>
        <pt x="494" y="199" on="0"/>
        <pt x="419" y="130" on="0"/>
        <pt x="362" y="130" on="1"/>
        <pt x="327" y="130" on="0"/>
        <pt x="279" y="150" on="0"/>
        <pt x="250" y="168" on="1"/>
        <pt x="228" y="181" on="0"/>
        <pt x="207" y="191" on="0"/>
        <pt x="194" y="191" on="1"/>
        <pt x="169" y="191" on="0"/>
        <pt x="143" y="164" on="0"/>
        <pt x="127" y="136" on="1"/>
        <pt x="40" y="182" on="1"/>
        <pt x="68" y="238" on="0"/>
        <pt x="143" y="308" on="0"/>
        <pt x="200" y="308" on="1"/>
      </contour>
    </TTGlyph>
    <TTGlyph name="aring" xMin="26" yMin="-17" xMax="520" yMax="867">
      <component glyphName="a" x="0" y="0" flags="0x0"/>
      <component glyphName="ring" x="102" y="0" flags="0x0"/>
    </TTGlyph>
    <TTGlyph name="aring.sc" xMin="-13" yMin="0" xMax="533" yMax="897">
      <component glyphName="a.sc" x="0" y="0" flags="0x0"/>
      <component glyphName="ring.sc" x="91" y="0" flags="0x0"/>
    </TTGlyph>
    <TTGlyph name="arrowdown" xMin="110" yMin="-51" xMax="790" yMax="654">
      <contour>
        <pt x="536" y="186" on="0"/>
        <pt x="568" y="226" on="0"/>
        <pt x="597" y="253" on="1"/>
        <pt x="702" y="349" on="1"/>
        <pt x="790" y="257" on="1"/>
        <pt x="450" y="-51" on="1"/>
        <pt x="110" y="257" on="1"/>
        <pt x="198" y="349" on="1"/>
        <pt x="303" y="253" on="1"/>
        <pt x="332" y="226" on="0"/>
        <pt x="364" y="186" on="0"/>
        <pt x="378" y="156" on="1"/>
        <pt x="378" y="654" on="1"/>
        <pt x="522" y="654" on="1"/>
        <pt x="522" y="156" on="1"/>
      </contour>
    </TTGlyph>
    <TTGlyph name="arrowdownwhite" xMin="60" yMin="-94" xMax="660" yMax="750">
      <contour>
        <pt x="464" y="750" on="0"/>
        <pt x="491" y="723" on="0"/>
        <pt x="491" y="700" on="1"/>
        <pt x="491" y="204" on="1"/>
        <pt x="660" y="204" on="1"/>
        <pt x="360" y="-94" on="1"/>
        <pt x="60" y="204" on="1"/>
        <pt x="229" y="204" on="1"/>
        <pt x="229" y="700" on="1"/>
        <pt x="229" y="723" on="0"/>
        <pt x="257" y="750" on="0"/>
        <pt x="279" y="750" on="1"/>
        <pt x="441" y="750" on="1"/>
      </contour>
      <contour>
        <pt x="169" y="159" on="1"/>
        <pt x="360" y="-30" on="1"/>
        <pt x="551" y="159" on="1"/>
        <pt x="444" y="159" on="1"/>
        <pt x="444" y="706" on="1"/>
        <pt x="276" y="706" on="1"/>
        <pt x="276" y="159" on="1"/>
      </contour>
    </TTGlyph>
    <TTGlyph name="arrowleft" xMin="78" yMin="-6" xMax="805" yMax="664">
      <contour>
        <pt x="390" y="474" on="1"/>
        <pt x="362" y="444" on="0"/>
        <pt x="321" y="410" on="0"/>
        <pt x="293" y="393" on="1"/>
        <pt x="805" y="393" on="1"/>
        <pt x="805" y="265" on="1"/>
        <pt x="292" y="265" on="1"/>
        <pt x="319" y="250" on="0"/>
        <pt x="364" y="212" on="0"/>
        <pt x="390" y="184" on="1"/>
        <pt x="483" y="83" on="1"/>
        <pt x="379" y="-6" on="1"/>
        <pt x="78" y="329" on="1"/>
        <pt x="379" y="664" on="1"/>
        <pt x="483" y="575" on="1"/>
      </contour>
    </TTGlyph>
    <TTGlyph name="arrowleftwhite" xMin="40" yMin="13" xMax="920" yMax="613">
      <contour>
        <pt x="920" y="217" on="0"/>
        <pt x="893" y="189" on="0"/>
        <pt x="870" y="189" on="1"/>
        <pt x="338" y="189" on="1"/>
        <pt x="338" y="13" on="1"/>
        <pt x="40" y="313" on="1"/>
        <pt x="338" y="613" on="1"/>
        <pt x="338" y="437" on="1"/>
        <pt x="870" y="437" on="1"/>
        <pt x="893" y="437" on="0"/>
        <pt x="920" y="410" on="0"/>
        <pt x="920" y="387" on="1"/>
        <pt x="920" y="239" on="1"/>
      </contour>
      <contour>
        <pt x="293" y="504" on="1"/>
        <pt x="104" y="313" on="1"/>
        <pt x="293" y="122" on="1"/>
        <pt x="293" y="233" on="1"/>
        <pt x="876" y="233" on="1"/>
        <pt x="876" y="393" on="1"/>
        <pt x="293" y="393" on="1"/>
      </contour>
    </TTGlyph>
    <TTGlyph name="arrowright" xMin="95" yMin="-6" xMax="822" yMax="664">
      <component glyphName="arrowleft" x="900" y="0" scalex="-1.0" scaley="1.0" flags="0x0"/>
    </TTGlyph>
    <TTGlyph name="arrowrightwhite" xMin="40" yMin="13" xMax="920" yMax="613">
      <component glyphName="arrowleftwhite" x="960" y="0" scalex="-1.0" scaley="1.0" flags="0x0"/>
    </TTGlyph>
    <TTGlyph name="arrowup" xMin="110" yMin="0" xMax="790" yMax="705">
      <component glyphName="arrowdown" x="900" y="654" scale="-1.0" flags="0x0"/>
    </TTGlyph>
    <TTGlyph name="arrowupdn" xMin="110" yMin="-222" xMax="790" yMax="890">
      <contour>
        <pt x="702" y="491" on="1"/>
        <pt x="597" y="587" on="1"/>
        <pt x="568" y="613" on="0"/>
        <pt x="536" y="653" on="0"/>
        <pt x="522" y="683" on="1"/>
        <pt x="522" y="-15" on="1"/>
        <pt x="536" y="15" on="0"/>
        <pt x="568" y="55" on="0"/>
        <pt x="597" y="81" on="1"/>
        <pt x="702" y="178" on="1"/>
        <pt x="790" y="85" on="1"/>
        <pt x="450" y="-222" on="1"/>
        <pt x="110" y="85" on="1"/>
        <pt x="198" y="178" on="1"/>
        <pt x="303" y="81" on="1"/>
        <pt x="332" y="55" on="0"/>
        <pt x="364" y="15" on="0"/>
        <pt x="378" y="-15" on="1"/>
        <pt x="378" y="683" on="1"/>
        <pt x="364" y="653" on="0"/>
        <pt x="332" y="613" on="0"/>
        <pt x="303" y="587" on="1"/>
        <pt x="198" y="491" on="1"/>
        <pt x="110" y="583" on="1"/>
        <pt x="450" y="890" on="1"/>
        <pt x="790" y="583" on="1"/>
      </contour>
    </TTGlyph>
    <TTGlyph name="arrowupwhite" xMin="60" yMin="-12" xMax="660" yMax="832">
      <contour>
        <pt x="257" y="-12" on="0"/>
        <pt x="229" y="16" on="0"/>
        <pt x="229" y="38" on="1"/>
        <pt x="229" y="534" on="1"/>
        <pt x="60" y="534" on="1"/>
        <pt x="360" y="832" on="1"/>
        <pt x="660" y="534" on="1"/>
        <pt x="491" y="534" on="1"/>
        <pt x="491" y="38" on="1"/>
        <pt x="491" y="16" on="0"/>
        <pt x="464" y="-12" on="0"/>
        <pt x="441" y="-12" on="1"/>
        <pt x="279" y="-12" on="1"/>
      </contour>
      <contour>
        <pt x="551" y="579" on="1"/>
        <pt x="360" y="768" on="1"/>
        <pt x="169" y="579" on="1"/>
        <pt x="276" y="579" on="1"/>
        <pt x="276" y="32" on="1"/>
        <pt x="444" y="32" on="1"/>
        <pt x="444" y="579" on="1"/>
      </contour>
    </TTGlyph>
    <TTGlyph name="asciicircum" xMin="18" yMin="527" xMax="540" yMax="844">
      <contour>
        <pt x="386" y="527" on="1"/>
        <pt x="278" y="726" on="1"/>
        <pt x="175" y="527" on="1"/>
        <pt x="18" y="527" on="1"/>
        <pt x="207" y="844" on="1"/>
        <pt x="351" y="844" on="1"/>
        <pt x="540" y="527" on="1"/>
      </contour>
    </TTGlyph>
    <TTGlyph name="asciitilde" xMin="16" yMin="232" xMax="498" yMax="410">
      <contour>
        <pt x="211" y="410" on="0"/>
        <pt x="258" y="391" on="0"/>
        <pt x="287" y="373" on="1"/>
        <pt x="308" y="361" on="0"/>
        <pt x="331" y="350" on="0"/>
        <pt x="345" y="350" on="1"/>
        <pt x="369" y="350" on="0"/>
        <pt x="397" y="376" on="0"/>
        <pt x="411" y="403" on="1"/>
        <pt x="498" y="357" on="1"/>
        <pt x="470" y="300" on="0"/>
        <pt x="395" y="232" on="0"/>
        <pt x="338" y="232" on="1"/>
        <pt x="304" y="232" on="0"/>
        <pt x="256" y="252" on="0"/>
        <pt x="227" y="270" on="1"/>
        <pt x="208" y="282" on="0"/>
        <pt x="184" y="293" on="0"/>
        <pt x="170" y="293" on="1"/>
        <pt x="146" y="293" on="0"/>
        <pt x="118" y="265" on="0"/>
        <pt x="103" y="237" on="1"/>
        <pt x="16" y="283" on="1"/>
        <pt x="44" y="340" on="0"/>
        <pt x="120" y="410" on="0"/>
        <pt x="177" y="410" on="1"/>
      </contour>
    </TTGlyph>
    <TTGlyph name="asciitilde.osf" xMin="16" yMin="232" xMax="498" yMax="410">
      <component glyphName="asciitilde" x="0" y="0" flags="0x0"/>
    </TTGlyph>
    <TTGlyph name="asciitilde.tf" xMin="39" yMin="232" xMax="521" yMax="410">
      <component glyphName="asciitilde" x="22" y="0" flags="0x0"/>
    </TTGlyph>
    <TTGlyph name="asciitilde.tosf" xMin="39" yMin="232" xMax="521" yMax="410">
      <component glyphName="asciitilde" x="22" y="0" flags="0x0"/>
    </TTGlyph>
    <TTGlyph name="asterisk" xMin="8" yMin="329" xMax="441" yMax="742">
      <contour>
        <pt x="401" y="410" on="1"/>
        <pt x="291" y="330" on="1"/>
        <pt x="224" y="457" on="1"/>
        <pt x="159" y="329" on="1"/>
        <pt x="49" y="409" on="1"/>
        <pt x="149" y="512" on="1"/>
        <pt x="8" y="535" on="1"/>
        <pt x="49" y="661" on="1"/>
        <pt x="177" y="598" on="1"/>
        <pt x="157" y="742" on="1"/>
        <pt x="293" y="742" on="1"/>
        <pt x="272" y="597" on="1"/>
        <pt x="399" y="662" on="1"/>
        <pt x="441" y="535" on="1"/>
        <pt x="300" y="512" on="1"/>
      </contour>
    </TTGlyph>
    <TTGlyph name="at" xMin="48" yMin="-222" xMax="972" yMax="710">
      <contour>
        <pt x="569" y="503" on="0"/>
        <pt x="660" y="480" on="0"/>
        <pt x="700" y="458" on="1"/>
        <pt x="700" y="210" on="1"/>
        <pt x="701" y="148" on="0"/>
        <pt x="721" y="102" on="0"/>
        <pt x="747" y="102" on="1"/>
        <pt x="786" y="102" on="0"/>
        <pt x="830" y="199" on="0"/>
        <pt x="830" y="314" on="1"/>
        <pt x="830" y="448" on="0"/>
        <pt x="678" y="595" on="0"/>
        <pt x="526" y="595" on="1"/>
        <pt x="421" y="595" on="0"/>
        <pt x="270" y="506" on="0"/>
        <pt x="191" y="347" on="0"/>
        <pt x="191" y="242" on="1"/>
        <pt x="191" y="80" on="0"/>
        <pt x="364" y="-105" on="0"/>
        <pt x="527" y="-105" on="1"/>
        <pt x="577" y="-105" on="0"/>
        <pt x="683" y="-86" on="0"/>
        <pt x="724" y="-71" on="1"/>
        <pt x="761" y="-180" on="1"/>
        <pt x="712" y="-199" on="0"/>
        <pt x="587" y="-222" on="0"/>
        <pt x="526" y="-222" on="1"/>
        <pt x="382" y="-222" on="0"/>
        <pt x="166" y="-108" on="0"/>
        <pt x="48" y="102" on="0"/>
        <pt x="48" y="242" on="1"/>
        <pt x="48" y="376" on="0"/>
        <pt x="171" y="590" on="0"/>
        <pt x="389" y="710" on="0"/>
        <pt x="527" y="710" on="1"/>
        <pt x="664" y="710" on="0"/>
        <pt x="866" y="601" on="0"/>
        <pt x="972" y="421" on="0"/>
        <pt x="972" y="316" on="1"/>
        <pt x="972" y="226" on="0"/>
        <pt x="918" y="84" on="0"/>
        <pt x="819" y="4" on="0"/>
        <pt x="754" y="4" on="1"/>
        <pt x="698" y="4" on="0"/>
        <pt x="629" y="64" on="0"/>
        <pt x="620" y="106" on="1"/>
        <pt x="601" y="61" on="0"/>
        <pt x="529" y="8" on="0"/>
        <pt x="477" y="8" on="1"/>
        <pt x="386" y="8" on="0"/>
        <pt x="294" y="131" on="0"/>
        <pt x="294" y="233" on="1"/>
        <pt x="294" y="357" on="0"/>
        <pt x="417" y="503" on="0"/>
        <pt x="527" y="503" on="1"/>
      </contour>
      <contour>
        <pt x="543" y="107" on="0"/>
        <pt x="566" y="156" on="1"/>
        <pt x="566" y="394" on="1"/>
        <pt x="543" y="403" on="0"/>
        <pt x="522" y="403" on="1"/>
        <pt x="481" y="403" on="0"/>
        <pt x="437" y="324" on="0"/>
        <pt x="437" y="232" on="1"/>
        <pt x="437" y="164" on="0"/>
        <pt x="466" y="107" on="0"/>
        <pt x="498" y="107" on="1"/>
      </contour>
    </TTGlyph>
    <TTGlyph name="atilde" xMin="26" yMin="-17" xMax="520" yMax="792">
      <component glyphName="a" x="0" y="0" flags="0x0"/>
      <component glyphName="tilde" x="53" y="0" flags="0x0"/>
    </TTGlyph>
    <TTGlyph name="atilde.sc" xMin="-13" yMin="0" xMax="533" yMax="822">
      <component glyphName="a.sc" x="0" y="0" flags="0x0"/>
      <component glyphName="tilde.sc" x="41" y="0" flags="0x0"/>
    </TTGlyph>
    <TTGlyph name="b" xMin="62" yMin="-17" xMax="560" yMax="759">
      <contour>
        <pt x="457" y="548" on="0"/>
        <pt x="560" y="400" on="0"/>
        <pt x="560" y="265" on="1"/>
        <pt x="560" y="183" on="0"/>
        <pt x="509" y="55" on="0"/>
        <pt x="414" y="-17" on="0"/>
        <pt x="349" y="-17" on="1"/>
        <pt x="305" y="-17" on="0"/>
        <pt x="234" y="18" on="0"/>
        <pt x="210" y="51" on="1"/>
        <pt x="202" y="0" on="1"/>
        <pt x="62" y="0" on="1"/>
        <pt x="62" y="742" on="1"/>
        <pt x="220" y="759" on="1"/>
        <pt x="220" y="477" on="1"/>
        <pt x="243" y="509" on="0"/>
        <pt x="319" y="548" on="0"/>
        <pt x="360" y="548" on="1"/>
      </contour>
      <contour>
        <pt x="396" y="98" on="0"/>
        <pt x="396" y="265" on="1"/>
        <pt x="396" y="359" on="0"/>
        <pt x="352" y="432" on="0"/>
        <pt x="311" y="432" on="1"/>
        <pt x="257" y="432" on="0"/>
        <pt x="220" y="370" on="1"/>
        <pt x="220" y="150" on="1"/>
        <pt x="252" y="98" on="0"/>
        <pt x="304" y="98" on="1"/>
      </contour>
    </TTGlyph>
    <TTGlyph name="b.sc" xMin="65" yMin="0" xMax="534" yMax="569">
      <contour>
        <pt x="534" y="276" on="0"/>
        <pt x="534" y="168" on="1"/>
        <pt x="534" y="74" on="0"/>
        <pt x="393" y="0" on="0"/>
        <pt x="266" y="0" on="1"/>
        <pt x="65" y="0" on="1"/>
        <pt x="65" y="569" on="1"/>
        <pt x="242" y="569" on="1"/>
        <pt x="372" y="569" on="0"/>
        <pt x="508" y="501" on="0"/>
        <pt x="508" y="422" on="1"/>
        <pt x="508" y="372" on="0"/>
        <pt x="446" y="313" on="0"/>
        <pt x="399" y="301" on="1"/>
      </contour>
      <contour>
        <pt x="222" y="347" on="1"/>
        <pt x="265" y="347" on="1"/>
        <pt x="308" y="347" on="0"/>
        <pt x="349" y="375" on="0"/>
        <pt x="349" y="407" on="1"/>
        <pt x="349" y="435" on="0"/>
        <pt x="304" y="460" on="0"/>
        <pt x="257" y="460" on="1"/>
        <pt x="222" y="460" on="1"/>
      </contour>
      <contour>
        <pt x="319" y="111" on="0"/>
        <pt x="371" y="139" on="0"/>
        <pt x="371" y="178" on="1"/>
        <pt x="371" y="246" on="0"/>
        <pt x="275" y="246" on="1"/>
        <pt x="222" y="246" on="1"/>
        <pt x="222" y="111" on="1"/>
        <pt x="268" y="111" on="1"/>
      </contour>
    </TTGlyph>
    <TTGlyph name="backslash" xMin="73" yMin="-112" xMax="447" yMax="816">
      <contour>
        <pt x="308" y="-112" on="1"/>
        <pt x="73" y="785" on="1"/>
        <pt x="211" y="816" on="1"/>
        <pt x="447" y="-80" on="1"/>
      </contour>
    </TTGlyph>
    <TTGlyph name="bar" xMin="115" yMin="-105" xMax="262" yMax="810">
      <contour>
        <pt x="115" y="-105" on="1"/>
        <pt x="115" y="810" on="1"/>
        <pt x="262" y="810" on="1"/>
        <pt x="262" y="-105" on="1"/>
      </contour>
    </TTGlyph>
    <TTGlyph name="beta" xMin="62" yMin="-222" xMax="581" yMax="759">
      <contour>
        <pt x="581" y="384" on="0"/>
        <pt x="581" y="207" on="1"/>
        <pt x="581" y="141" on="0"/>
        <pt x="523" y="39" on="0"/>
        <pt x="417" y="-17" on="0"/>
        <pt x="349" y="-17" on="1"/>
        <pt x="278" y="-17" on="0"/>
        <pt x="214" y="28" on="1"/>
        <pt x="214" y="-200" on="1"/>
        <pt x="62" y="-222" on="1"/>
        <pt x="62" y="546" on="1"/>
        <pt x="62" y="645" on="0"/>
        <pt x="191" y="759" on="0"/>
        <pt x="296" y="759" on="1"/>
        <pt x="365" y="759" on="0"/>
        <pt x="469" y="712" on="0"/>
        <pt x="525" y="628" on="0"/>
        <pt x="525" y="575" on="1"/>
        <pt x="525" y="507" on="0"/>
        <pt x="453" y="420" on="0"/>
        <pt x="386" y="405" on="1"/>
      </contour>
      <contour>
        <pt x="359" y="104" on="0"/>
        <pt x="422" y="162" on="0"/>
        <pt x="422" y="220" on="1"/>
        <pt x="422" y="344" on="0"/>
        <pt x="294" y="344" on="1"/>
        <pt x="255" y="344" on="1"/>
        <pt x="265" y="451" on="1"/>
        <pt x="289" y="451" on="1"/>
        <pt x="327" y="451" on="0"/>
        <pt x="372" y="505" on="0"/>
        <pt x="372" y="556" on="1"/>
        <pt x="372" y="602" on="0"/>
        <pt x="331" y="647" on="0"/>
        <pt x="294" y="647" on="1"/>
        <pt x="214" y="647" on="0"/>
        <pt x="214" y="547" on="1"/>
        <pt x="214" y="128" on="1"/>
        <pt x="253" y="104" on="0"/>
        <pt x="313" y="104" on="1"/>
      </contour>
    </TTGlyph>
    <TTGlyph name="beta.sc" xMin="65" yMin="0" xMax="534" yMax="569">
      <component glyphName="b.sc" x="0" y="0" flags="0x0"/>
    </TTGlyph>
    <TTGlyph name="braceleft" xMin="9" yMin="-140" xMax="298" yMax="840">
      <contour>
        <pt x="254" y="730" on="0"/>
        <pt x="222" y="703" on="0"/>
        <pt x="222" y="670" on="1"/>
        <pt x="222" y="484" on="1"/>
        <pt x="222" y="421" on="0"/>
        <pt x="172" y="363" on="0"/>
        <pt x="118" y="349" on="1"/>
        <pt x="170" y="338" on="0"/>
        <pt x="222" y="279" on="0"/>
        <pt x="222" y="216" on="1"/>
        <pt x="222" y="30" on="1"/>
        <pt x="222" y="-3" on="0"/>
        <pt x="255" y="-30" on="0"/>
        <pt x="298" y="-30" on="1"/>
        <pt x="298" y="-140" on="1"/>
        <pt x="210" y="-140" on="0"/>
        <pt x="112" y="-103" on="0"/>
        <pt x="74" y="-32" on="0"/>
        <pt x="74" y="25" on="1"/>
        <pt x="74" y="204" on="1"/>
        <pt x="74" y="249" on="0"/>
        <pt x="47" y="285" on="0"/>
        <pt x="9" y="285" on="1"/>
        <pt x="9" y="414" on="1"/>
        <pt x="47" y="414" on="0"/>
        <pt x="74" y="451" on="0"/>
        <pt x="74" y="496" on="1"/>
        <pt x="74" y="675" on="1"/>
        <pt x="74" y="733" on="0"/>
        <pt x="112" y="804" on="0"/>
        <pt x="210" y="840" on="0"/>
        <pt x="298" y="840" on="1"/>
        <pt x="298" y="730" on="1"/>
      </contour>
    </TTGlyph>
    <TTGlyph name="braceleft.case" xMin="9" yMin="-150" xMax="298" yMax="830">
      <component glyphName="braceleft" x="0" y="-10" flags="0x0"/>
    </TTGlyph>
    <TTGlyph name="braceright" xMin="26" yMin="-140" xMax="314" yMax="840">
      <contour>
        <pt x="114" y="840" on="0"/>
        <pt x="211" y="804" on="0"/>
        <pt x="249" y="733" on="0"/>
        <pt x="249" y="675" on="1"/>
        <pt x="249" y="496" on="1"/>
        <pt x="249" y="451" on="0"/>
        <pt x="277" y="414" on="0"/>
        <pt x="314" y="414" on="1"/>
        <pt x="314" y="285" on="1"/>
        <pt x="277" y="285" on="0"/>
        <pt x="249" y="249" on="0"/>
        <pt x="249" y="204" on="1"/>
        <pt x="249" y="25" on="1"/>
        <pt x="249" y="-32" on="0"/>
        <pt x="211" y="-103" on="0"/>
        <pt x="114" y="-140" on="0"/>
        <pt x="26" y="-140" on="1"/>
        <pt x="26" y="-30" on="1"/>
        <pt x="69" y="-30" on="0"/>
        <pt x="101" y="-3" on="0"/>
        <pt x="101" y="30" on="1"/>
        <pt x="101" y="216" on="1"/>
        <pt x="101" y="278" on="0"/>
        <pt x="153" y="338" on="0"/>
        <pt x="206" y="349" on="1"/>
        <pt x="152" y="363" on="0"/>
        <pt x="102" y="421" on="0"/>
        <pt x="102" y="484" on="1"/>
        <pt x="102" y="670" on="1"/>
        <pt x="102" y="703" on="0"/>
        <pt x="70" y="730" on="0"/>
        <pt x="26" y="730" on="1"/>
        <pt x="26" y="840" on="1"/>
      </contour>
    </TTGlyph>
    <TTGlyph name="braceright.case" xMin="26" yMin="-150" xMax="314" yMax="830">
      <component glyphName="braceright" x="0" y="-10" flags="0x0"/>
    </TTGlyph>
    <TTGlyph name="bracketleft" xMin="34" yMin="-123" xMax="299" yMax="823">
      <contour>
        <pt x="184" y="705" on="1"/>
        <pt x="184" y="-6" on="1"/>
        <pt x="299" y="-6" on="1"/>
        <pt x="299" y="-123" on="1"/>
        <pt x="34" y="-123" on="1"/>
        <pt x="34" y="823" on="1"/>
        <pt x="299" y="823" on="1"/>
        <pt x="299" y="705" on="1"/>
      </contour>
    </TTGlyph>
    <TTGlyph name="bracketleft.case" xMin="34" yMin="-133" xMax="299" yMax="813">
      <component glyphName="bracketleft" x="0" y="-10" flags="0x0"/>
    </TTGlyph>
    <TTGlyph name="bracketright" xMin="25" yMin="-123" xMax="290" yMax="823">
      <contour>
        <pt x="25" y="-123" on="1"/>
        <pt x="25" y="-5" on="1"/>
        <pt x="140" y="-5" on="1"/>
        <pt x="140" y="705" on="1"/>
        <pt x="25" y="705" on="1"/>
        <pt x="25" y="823" on="1"/>
        <pt x="290" y="823" on="1"/>
        <pt x="290" y="-123" on="1"/>
      </contour>
    </TTGlyph>
    <TTGlyph name="bracketright.case" xMin="25" yMin="-133" xMax="290" yMax="813">
      <component glyphName="bracketright" x="0" y="-10" flags="0x0"/>
    </TTGlyph>
    <TTGlyph name="breve" xMin="30" yMin="632" xMax="375" yMax="820">
      <contour>
        <pt x="126" y="632" on="0"/>
        <pt x="36" y="729" on="0"/>
        <pt x="30" y="805" on="1"/>
        <pt x="117" y="820" on="1"/>
        <pt x="137" y="742" on="0"/>
        <pt x="202" y="742" on="1"/>
        <pt x="267" y="742" on="0"/>
        <pt x="288" y="820" on="1"/>
        <pt x="375" y="805" on="1"/>
        <pt x="369" y="730" on="0"/>
        <pt x="278" y="632" on="0"/>
        <pt x="202" y="632" on="1"/>
      </contour>
    </TTGlyph>
    <TTGlyph name="breve.case" xMin="30" yMin="751" xMax="375" yMax="928">
      <contour>
        <pt x="127" y="751" on="0"/>
        <pt x="36" y="845" on="0"/>
        <pt x="30" y="913" on="1"/>
        <pt x="117" y="928" on="1"/>
        <pt x="127" y="897" on="0"/>
        <pt x="169" y="860" on="0"/>
        <pt x="202" y="860" on="1"/>
        <pt x="235" y="860" on="0"/>
        <pt x="277" y="897" on="0"/>
        <pt x="288" y="928" on="1"/>
        <pt x="375" y="913" on="1"/>
        <pt x="369" y="845" on="0"/>
        <pt x="277" y="751" on="0"/>
        <pt x="202" y="751" on="1"/>
      </contour>
    </TTGlyph>
    <TTGlyph name="breve.sc" xMin="30" yMin="663" xMax="375" yMax="850">
      <contour>
        <pt x="126" y="663" on="0"/>
        <pt x="36" y="760" on="0"/>
        <pt x="30" y="835" on="1"/>
        <pt x="117" y="850" on="1"/>
        <pt x="138" y="773" on="0"/>
        <pt x="202" y="773" on="1"/>
        <pt x="269" y="773" on="0"/>
        <pt x="288" y="850" on="1"/>
        <pt x="375" y="835" on="1"/>
        <pt x="369" y="760" on="0"/>
        <pt x="278" y="663" on="0"/>
        <pt x="202" y="663" on="1"/>
      </contour>
    </TTGlyph>
    <TTGlyph name="brevecombcomb" xMin="39" yMin="625" xMax="384" yMax="802">
      <component glyphName="uni0306" x="0" y="0" flags="0x0"/>
    </TTGlyph>
    <TTGlyph name="brevecy" xMin="30" yMin="632" xMax="375" yMax="802">
      <contour>
        <pt x="125" y="632" on="0"/>
        <pt x="36" y="716" on="0"/>
        <pt x="30" y="786" on="1"/>
        <pt x="117" y="802" on="1"/>
        <pt x="126" y="770" on="0"/>
        <pt x="167" y="742" on="0"/>
        <pt x="202" y="742" on="1"/>
        <pt x="237" y="742" on="0"/>
        <pt x="278" y="770" on="0"/>
        <pt x="288" y="802" on="1"/>
        <pt x="375" y="786" on="1"/>
        <pt x="369" y="716" on="0"/>
        <pt x="279" y="632" on="0"/>
        <pt x="202" y="632" on="1"/>
      </contour>
    </TTGlyph>
    <TTGlyph name="brevecy.case" xMin="30" yMin="759" xMax="375" yMax="928">
      <contour>
        <pt x="125" y="759" on="0"/>
        <pt x="36" y="842" on="0"/>
        <pt x="30" y="912" on="1"/>
        <pt x="117" y="928" on="1"/>
        <pt x="127" y="897" on="0"/>
        <pt x="167" y="869" on="0"/>
        <pt x="202" y="869" on="1"/>
        <pt x="237" y="869" on="0"/>
        <pt x="279" y="897" on="0"/>
        <pt x="288" y="928" on="1"/>
        <pt x="375" y="912" on="1"/>
        <pt x="369" y="842" on="0"/>
        <pt x="279" y="759" on="0"/>
        <pt x="202" y="759" on="1"/>
      </contour>
    </TTGlyph>
    <TTGlyph name="brevecy.sc" xMin="30" yMin="663" xMax="375" yMax="832">
      <contour>
        <pt x="125" y="663" on="0"/>
        <pt x="36" y="746" on="0"/>
        <pt x="30" y="816" on="1"/>
        <pt x="117" y="832" on="1"/>
        <pt x="127" y="801" on="0"/>
        <pt x="167" y="773" on="0"/>
        <pt x="202" y="773" on="1"/>
        <pt x="237" y="773" on="0"/>
        <pt x="279" y="801" on="0"/>
        <pt x="288" y="832" on="1"/>
        <pt x="375" y="816" on="1"/>
        <pt x="369" y="746" on="0"/>
        <pt x="279" y="663" on="0"/>
        <pt x="202" y="663" on="1"/>
      </contour>
    </TTGlyph>
    <TTGlyph name="brokenbar" xMin="115" yMin="-105" xMax="262" yMax="810">
      <contour>
        <pt x="115" y="443" on="1"/>
        <pt x="115" y="810" on="1"/>
        <pt x="262" y="810" on="1"/>
        <pt x="262" y="443" on="1"/>
      </contour>
      <contour>
        <pt x="115" y="-105" on="1"/>
        <pt x="115" y="262" on="1"/>
        <pt x="262" y="262" on="1"/>
        <pt x="262" y="-105" on="1"/>
      </contour>
    </TTGlyph>
    <TTGlyph name="bullet" xMin="35" yMin="203" xMax="311" yMax="480">
      <contour>
        <pt x="232" y="480" on="0"/>
        <pt x="311" y="400" on="0"/>
        <pt x="311" y="341" on="1"/>
        <pt x="311" y="282" on="0"/>
        <pt x="232" y="203" on="0"/>
        <pt x="173" y="203" on="1"/>
        <pt x="114" y="203" on="0"/>
        <pt x="35" y="283" on="0"/>
        <pt x="35" y="342" on="1"/>
        <pt x="35" y="401" on="0"/>
        <pt x="114" y="480" on="0"/>
        <pt x="173" y="480" on="1"/>
      </contour>
    </TTGlyph>
    <TTGlyph name="bulletoperator" xMin="30" yMin="218" xMax="210" yMax="398">
      <component glyphName="periodcentered" x="0" y="0" flags="0x0"/>
    </TTGlyph>
    <TTGlyph name="c" xMin="32" yMin="-17" xMax="474" yMax="548">
      <contour>
        <pt x="347" y="548" on="0"/>
        <pt x="435" y="516" on="0"/>
        <pt x="474" y="483" on="1"/>
        <pt x="405" y="388" on="1"/>
        <pt x="357" y="427" on="0"/>
        <pt x="305" y="427" on="1"/>
        <pt x="252" y="427" on="0"/>
        <pt x="198" y="349" on="0"/>
        <pt x="198" y="262" on="1"/>
        <pt x="198" y="178" on="0"/>
        <pt x="252" y="108" on="0"/>
        <pt x="303" y="108" on="1"/>
        <pt x="331" y="108" on="0"/>
        <pt x="375" y="126" on="0"/>
        <pt x="402" y="147" on="1"/>
        <pt x="474" y="46" on="1"/>
        <pt x="395" y="-17" on="0"/>
        <pt x="295" y="-17" on="1"/>
        <pt x="214" y="-17" on="0"/>
        <pt x="96" y="52" on="0"/>
        <pt x="32" y="177" on="0"/>
        <pt x="32" y="261" on="1"/>
        <pt x="32" y="345" on="0"/>
        <pt x="96" y="475" on="0"/>
        <pt x="214" y="548" on="0"/>
        <pt x="292" y="548" on="1"/>
      </contour>
    </TTGlyph>
    <TTGlyph name="c.sc" xMin="33" yMin="-15" xMax="507" yMax="582">
      <contour>
        <pt x="368" y="582" on="0"/>
        <pt x="459" y="548" on="0"/>
        <pt x="499" y="516" on="1"/>
        <pt x="424" y="427" on="1"/>
        <pt x="375" y="468" on="0"/>
        <pt x="318" y="468" on="1"/>
        <pt x="262" y="468" on="0"/>
        <pt x="197" y="376" on="0"/>
        <pt x="197" y="286" on="1"/>
        <pt x="197" y="195" on="0"/>
        <pt x="263" y="104" on="0"/>
        <pt x="322" y="104" on="1"/>
        <pt x="353" y="104" on="0"/>
        <pt x="405" y="128" on="0"/>
        <pt x="436" y="151" on="1"/>
        <pt x="507" y="62" on="1"/>
        <pt x="473" y="28" on="0"/>
        <pt x="373" y="-15" on="0"/>
        <pt x="312" y="-15" on="1"/>
        <pt x="228" y="-15" on="0"/>
        <pt x="102" y="54" on="0"/>
        <pt x="33" y="190" on="0"/>
        <pt x="33" y="286" on="1"/>
        <pt x="33" y="377" on="0"/>
        <pt x="104" y="511" on="0"/>
        <pt x="229" y="582" on="0"/>
        <pt x="309" y="582" on="1"/>
      </contour>
    </TTGlyph>
    <TTGlyph name="cacute" xMin="32" yMin="-17" xMax="474" yMax="835">
      <component glyphName="c" x="0" y="0" flags="0x0"/>
      <component glyphName="acute" x="111" y="0" flags="0x0"/>
    </TTGlyph>
    <TTGlyph name="cacute.loclPLK" xMin="32" yMin="-17" xMax="474" yMax="809">
      <component glyphName="c" x="0" y="0" flags="0x0"/>
      <component glyphName="acute.loclPLK" x="120" y="0" flags="0x0"/>
    </TTGlyph>
    <TTGlyph name="cacute.sc" xMin="33" yMin="-15" xMax="507" yMax="865">
      <component glyphName="c.sc" x="0" y="0" flags="0x0"/>
      <component glyphName="acute.sc" x="140" y="0" flags="0x0"/>
    </TTGlyph>
    <TTGlyph name="cacute.sc.loclPLK" xMin="33" yMin="-15" xMax="507" yMax="854">
      <component glyphName="c.sc" x="0" y="0" flags="0x0"/>
      <component glyphName="acute.sc.loclPLK" x="146" y="0" flags="0x0"/>
    </TTGlyph>
    <TTGlyph name="capslock" xMin="60" yMin="-12" xMax="660" yMax="832">
      <contour>
        <pt x="60" y="534" on="1"/>
        <pt x="360" y="832" on="1"/>
        <pt x="660" y="534" on="1"/>
        <pt x="491" y="534" on="1"/>
        <pt x="491" y="255" on="1"/>
        <pt x="229" y="255" on="1"/>
        <pt x="229" y="534" on="1"/>
      </contour>
      <contour>
        <pt x="551" y="579" on="1"/>
        <pt x="360" y="768" on="1"/>
        <pt x="169" y="579" on="1"/>
        <pt x="276" y="579" on="1"/>
        <pt x="276" y="297" on="1"/>
        <pt x="444" y="297" on="1"/>
        <pt x="444" y="579" on="1"/>
      </contour>
      <contour>
        <pt x="491" y="16" on="0"/>
        <pt x="464" y="-12" on="0"/>
        <pt x="441" y="-12" on="1"/>
        <pt x="279" y="-12" on="1"/>
        <pt x="257" y="-12" on="0"/>
        <pt x="229" y="16" on="0"/>
        <pt x="229" y="38" on="1"/>
        <pt x="229" y="155" on="1"/>
        <pt x="491" y="155" on="1"/>
        <pt x="491" y="38" on="1"/>
      </contour>
      <contour>
        <pt x="444" y="32" on="1"/>
        <pt x="444" y="113" on="1"/>
        <pt x="276" y="113" on="1"/>
        <pt x="276" y="32" on="1"/>
      </contour>
    </TTGlyph>
    <TTGlyph name="caron" xMin="30" yMin="611" xMax="409" yMax="813">
      <contour>
        <pt x="268" y="611" on="1"/>
        <pt x="172" y="611" on="1"/>
        <pt x="30" y="748" on="1"/>
        <pt x="87" y="813" on="1"/>
        <pt x="220" y="722" on="1"/>
        <pt x="353" y="813" on="1"/>
        <pt x="409" y="748" on="1"/>
      </contour>
    </TTGlyph>
    <TTGlyph name="caron.alt" xMin="76" yMin="478" xMax="204" yMax="707">
      <contour>
        <pt x="157" y="478" on="1"/>
        <pt x="76" y="486" on="1"/>
        <pt x="85" y="707" on="1"/>
        <pt x="204" y="693" on="1"/>
      </contour>
    </TTGlyph>
    <TTGlyph name="caron.case" xMin="30" yMin="750" xMax="409" yMax="944">
      <contour>
        <pt x="268" y="750" on="1"/>
        <pt x="172" y="750" on="1"/>
        <pt x="30" y="879" on="1"/>
        <pt x="87" y="944" on="1"/>
        <pt x="220" y="860" on="1"/>
        <pt x="353" y="944" on="1"/>
        <pt x="409" y="879" on="1"/>
      </contour>
    </TTGlyph>
    <TTGlyph name="caron.sc" xMin="30" yMin="642" xMax="410" yMax="843">
      <contour>
        <pt x="268" y="642" on="1"/>
        <pt x="172" y="642" on="1"/>
        <pt x="30" y="778" on="1"/>
        <pt x="87" y="843" on="1"/>
        <pt x="220" y="752" on="1"/>
        <pt x="353" y="843" on="1"/>
        <pt x="410" y="778" on="1"/>
      </contour>
    </TTGlyph>
    <TTGlyph name="caroncombcomb" xMin="39" yMin="624" xMax="418" yMax="818">
      <component glyphName="uni030C" x="0" y="0" flags="0x0"/>
    </TTGlyph>
    <TTGlyph name="ccaron" xMin="32" yMin="-17" xMax="480" yMax="813">
      <component glyphName="c" x="0" y="0" flags="0x0"/>
      <component glyphName="caron" x="71" y="0" flags="0x0"/>
    </TTGlyph>
    <TTGlyph name="ccaron.sc" xMin="33" yMin="-15" xMax="507" yMax="843">
      <component glyphName="c.sc" x="0" y="0" flags="0x0"/>
      <component glyphName="caron.sc" x="97" y="0" flags="0x0"/>
    </TTGlyph>
    <TTGlyph name="ccedilla" xMin="32" yMin="-262" xMax="474" yMax="548">
      <contour>
        <pt x="408" y="-7" on="0"/>
        <pt x="324" y="-16" on="1"/>
        <pt x="324" y="-48" on="1"/>
        <pt x="376" y="-54" on="0"/>
        <pt x="427" y="-105" on="0"/>
        <pt x="427" y="-147" on="1"/>
        <pt x="427" y="-198" on="0"/>
        <pt x="346" y="-262" on="0"/>
        <pt x="278" y="-262" on="1"/>
        <pt x="245" y="-262" on="0"/>
        <pt x="186" y="-245" on="0"/>
        <pt x="166" y="-232" on="1"/>
        <pt x="202" y="-159" on="1"/>
        <pt x="233" y="-176" on="0"/>
        <pt x="266" y="-176" on="1"/>
        <pt x="313" y="-176" on="0"/>
        <pt x="313" y="-146" on="1"/>
        <pt x="313" y="-128" on="0"/>
        <pt x="269" y="-112" on="0"/>
        <pt x="221" y="-112" on="1"/>
        <pt x="233" y="-11" on="1"/>
        <pt x="139" y="8" on="0"/>
        <pt x="32" y="152" on="0"/>
        <pt x="32" y="261" on="1"/>
        <pt x="32" y="345" on="0"/>
        <pt x="96" y="475" on="0"/>
        <pt x="214" y="548" on="0"/>
        <pt x="292" y="548" on="1"/>
        <pt x="347" y="548" on="0"/>
        <pt x="435" y="516" on="0"/>
        <pt x="474" y="483" on="1"/>
        <pt x="405" y="388" on="1"/>
        <pt x="357" y="427" on="0"/>
        <pt x="305" y="427" on="1"/>
        <pt x="252" y="427" on="0"/>
        <pt x="198" y="349" on="0"/>
        <pt x="198" y="262" on="1"/>
        <pt x="198" y="178" on="0"/>
        <pt x="252" y="108" on="0"/>
        <pt x="303" y="108" on="1"/>
        <pt x="331" y="108" on="0"/>
        <pt x="375" y="126" on="0"/>
        <pt x="402" y="147" on="1"/>
        <pt x="474" y="46" on="1"/>
      </contour>
    </TTGlyph>
    <TTGlyph name="ccedilla.sc" xMin="33" yMin="-262" xMax="507" yMax="582">
      <contour>
        <pt x="386" y="-54" on="0"/>
        <pt x="437" y="-105" on="0"/>
        <pt x="437" y="-147" on="1"/>
        <pt x="437" y="-198" on="0"/>
        <pt x="356" y="-262" on="0"/>
        <pt x="288" y="-262" on="1"/>
        <pt x="255" y="-262" on="0"/>
        <pt x="196" y="-245" on="0"/>
        <pt x="176" y="-232" on="1"/>
        <pt x="212" y="-159" on="1"/>
        <pt x="246" y="-176" on="0"/>
        <pt x="276" y="-176" on="1"/>
        <pt x="323" y="-176" on="0"/>
        <pt x="323" y="-146" on="1"/>
        <pt x="323" y="-128" on="0"/>
        <pt x="279" y="-112" on="0"/>
        <pt x="231" y="-112" on="1"/>
        <pt x="244" y="-9" on="1"/>
        <pt x="145" y="10" on="0"/>
        <pt x="33" y="162" on="0"/>
        <pt x="33" y="286" on="1"/>
        <pt x="33" y="377" on="0"/>
        <pt x="104" y="511" on="0"/>
        <pt x="229" y="582" on="0"/>
        <pt x="309" y="582" on="1"/>
        <pt x="368" y="582" on="0"/>
        <pt x="459" y="548" on="0"/>
        <pt x="499" y="516" on="1"/>
        <pt x="424" y="427" on="1"/>
        <pt x="375" y="468" on="0"/>
        <pt x="318" y="468" on="1"/>
        <pt x="262" y="468" on="0"/>
        <pt x="197" y="376" on="0"/>
        <pt x="197" y="286" on="1"/>
        <pt x="197" y="195" on="0"/>
        <pt x="263" y="104" on="0"/>
        <pt x="322" y="104" on="1"/>
        <pt x="353" y="104" on="0"/>
        <pt x="405" y="128" on="0"/>
        <pt x="436" y="151" on="1"/>
        <pt x="507" y="62" on="1"/>
        <pt x="475" y="31" on="0"/>
        <pt x="388" y="-11" on="0"/>
        <pt x="334" y="-15" on="1"/>
        <pt x="334" y="-48" on="1"/>
      </contour>
    </TTGlyph>
    <TTGlyph name="ccircumflex" xMin="32" yMin="-17" xMax="480" yMax="822">
      <component glyphName="c" x="0" y="0" flags="0x0"/>
      <component glyphName="circumflex" x="71" y="0" flags="0x0"/>
    </TTGlyph>
    <TTGlyph name="ccircumflex.sc" xMin="33" yMin="-15" xMax="507" yMax="852">
      <component glyphName="c.sc" x="0" y="0" flags="0x0"/>
      <component glyphName="circumflex.sc" x="97" y="0" flags="0x0"/>
    </TTGlyph>
    <TTGlyph name="cdotaccent" xMin="32" yMin="-17" xMax="474" yMax="811">
      <component glyphName="c" x="0" y="0" flags="0x0"/>
      <component glyphName="dotaccent" x="167" y="0" flags="0x0"/>
    </TTGlyph>
    <TTGlyph name="cdotaccent.sc" xMin="33" yMin="-15" xMax="507" yMax="841">
      <component glyphName="c.sc" x="0" y="0" flags="0x0"/>
      <component glyphName="dotaccent.sc" x="193" y="0" flags="0x0"/>
    </TTGlyph>
    <TTGlyph name="cedilla" xMin="30" yMin="-262" xMax="291" yMax="16">
      <contour>
        <pt x="240" y="-54" on="0"/>
        <pt x="291" y="-105" on="0"/>
        <pt x="291" y="-147" on="1"/>
        <pt x="291" y="-198" on="0"/>
        <pt x="210" y="-262" on="0"/>
        <pt x="142" y="-262" on="1"/>
        <pt x="108" y="-262" on="0"/>
        <pt x="50" y="-245" on="0"/>
        <pt x="30" y="-232" on="1"/>
        <pt x="66" y="-159" on="1"/>
        <pt x="100" y="-176" on="0"/>
        <pt x="130" y="-176" on="1"/>
        <pt x="177" y="-176" on="0"/>
        <pt x="177" y="-146" on="1"/>
        <pt x="177" y="-128" on="0"/>
        <pt x="133" y="-112" on="0"/>
        <pt x="85" y="-112" on="1"/>
        <pt x="100" y="16" on="1"/>
        <pt x="187" y="16" on="1"/>
        <pt x="187" y="-48" on="1"/>
      </contour>
    </TTGlyph>
    <TTGlyph name="cedilla.case" xMin="30" yMin="-262" xMax="291" yMax="16">
      <contour>
        <pt x="240" y="-54" on="0"/>
        <pt x="291" y="-105" on="0"/>
        <pt x="291" y="-147" on="1"/>
        <pt x="291" y="-198" on="0"/>
        <pt x="210" y="-262" on="0"/>
        <pt x="142" y="-262" on="1"/>
        <pt x="108" y="-262" on="0"/>
        <pt x="50" y="-245" on="0"/>
        <pt x="30" y="-232" on="1"/>
        <pt x="66" y="-159" on="1"/>
        <pt x="100" y="-176" on="0"/>
        <pt x="130" y="-176" on="1"/>
        <pt x="177" y="-176" on="0"/>
        <pt x="177" y="-146" on="1"/>
        <pt x="177" y="-128" on="0"/>
        <pt x="133" y="-112" on="0"/>
        <pt x="85" y="-112" on="1"/>
        <pt x="100" y="16" on="1"/>
        <pt x="187" y="16" on="1"/>
        <pt x="187" y="-48" on="1"/>
      </contour>
    </TTGlyph>
    <TTGlyph name="cedilla.sc" xMin="30" yMin="-262" xMax="291" yMax="16">
      <contour>
        <pt x="240" y="-54" on="0"/>
        <pt x="291" y="-105" on="0"/>
        <pt x="291" y="-147" on="1"/>
        <pt x="291" y="-198" on="0"/>
        <pt x="210" y="-262" on="0"/>
        <pt x="142" y="-262" on="1"/>
        <pt x="108" y="-262" on="0"/>
        <pt x="50" y="-245" on="0"/>
        <pt x="30" y="-232" on="1"/>
        <pt x="66" y="-159" on="1"/>
        <pt x="100" y="-176" on="0"/>
        <pt x="130" y="-176" on="1"/>
        <pt x="177" y="-176" on="0"/>
        <pt x="177" y="-146" on="1"/>
        <pt x="177" y="-128" on="0"/>
        <pt x="133" y="-112" on="0"/>
        <pt x="85" y="-112" on="1"/>
        <pt x="100" y="16" on="1"/>
        <pt x="187" y="16" on="1"/>
        <pt x="187" y="-48" on="1"/>
      </contour>
    </TTGlyph>
    <TTGlyph name="cent" xMin="32" yMin="-161" xMax="474" yMax="691">
      <contour>
        <pt x="417" y="0" on="0"/>
        <pt x="346" y="-13" on="1"/>
        <pt x="346" y="-161" on="1"/>
        <pt x="232" y="-161" on="1"/>
        <pt x="232" y="-11" on="1"/>
        <pt x="138" y="8" on="0"/>
        <pt x="32" y="152" on="0"/>
        <pt x="32" y="261" on="1"/>
        <pt x="32" y="372" on="0"/>
        <pt x="140" y="523" on="0"/>
        <pt x="233" y="542" on="1"/>
        <pt x="233" y="691" on="1"/>
        <pt x="346" y="691" on="1"/>
        <pt x="346" y="544" on="1"/>
        <pt x="415" y="533" on="0"/>
        <pt x="474" y="483" on="1"/>
        <pt x="405" y="388" on="1"/>
        <pt x="357" y="427" on="0"/>
        <pt x="305" y="427" on="1"/>
        <pt x="252" y="427" on="0"/>
        <pt x="198" y="349" on="0"/>
        <pt x="198" y="262" on="1"/>
        <pt x="198" y="178" on="0"/>
        <pt x="252" y="108" on="0"/>
        <pt x="303" y="108" on="1"/>
        <pt x="331" y="108" on="0"/>
        <pt x="375" y="126" on="0"/>
        <pt x="402" y="147" on="1"/>
        <pt x="474" y="46" on="1"/>
      </contour>
    </TTGlyph>
    <TTGlyph name="cent.osf" xMin="32" yMin="-161" xMax="474" yMax="691">
      <component glyphName="cent" x="0" y="0" flags="0x0"/>
    </TTGlyph>
    <TTGlyph name="cent.tf" xMin="59" yMin="-161" xMax="501" yMax="691">
      <contour>
        <pt x="444" y="0" on="0"/>
        <pt x="373" y="-13" on="1"/>
        <pt x="373" y="-161" on="1"/>
        <pt x="259" y="-161" on="1"/>
        <pt x="259" y="-11" on="1"/>
        <pt x="165" y="8" on="0"/>
        <pt x="59" y="153" on="0"/>
        <pt x="59" y="262" on="1"/>
        <pt x="59" y="372" on="0"/>
        <pt x="167" y="524" on="0"/>
        <pt x="260" y="543" on="1"/>
        <pt x="260" y="691" on="1"/>
        <pt x="373" y="691" on="1"/>
        <pt x="373" y="544" on="1"/>
        <pt x="442" y="533" on="0"/>
        <pt x="501" y="483" on="1"/>
        <pt x="433" y="389" on="1"/>
        <pt x="385" y="427" on="0"/>
        <pt x="332" y="427" on="1"/>
        <pt x="280" y="427" on="0"/>
        <pt x="225" y="348" on="0"/>
        <pt x="225" y="262" on="1"/>
        <pt x="225" y="178" on="0"/>
        <pt x="280" y="108" on="0"/>
        <pt x="331" y="108" on="1"/>
        <pt x="358" y="108" on="0"/>
        <pt x="402" y="126" on="0"/>
        <pt x="430" y="147" on="1"/>
        <pt x="501" y="46" on="1"/>
      </contour>
    </TTGlyph>
    <TTGlyph name="cent.tosf" xMin="59" yMin="-161" xMax="501" yMax="691">
      <component glyphName="cent.tf" x="0" y="0" flags="0x0"/>
    </TTGlyph>
    <TTGlyph name="chi" xMin="-22" yMin="-221" xMax="506" yMax="545">
      <contour>
        <pt x="244" y="60" on="1"/>
        <pt x="144" y="-221" on="1"/>
        <pt x="-17" y="-204" on="1"/>
        <pt x="165" y="183" on="1"/>
        <pt x="106" y="311" on="0"/>
        <pt x="26" y="447" on="0"/>
        <pt x="-22" y="498" on="1"/>
        <pt x="133" y="545" on="1"/>
        <pt x="171" y="489" on="0"/>
        <pt x="217" y="394" on="0"/>
        <pt x="248" y="297" on="1"/>
        <pt x="323" y="544" on="1"/>
        <pt x="485" y="528" on="1"/>
        <pt x="328" y="185" on="1"/>
        <pt x="506" y="-196" on="1"/>
        <pt x="349" y="-221" on="1"/>
      </contour>
    </TTGlyph>
    <TTGlyph name="chi.sc" xMin="-4" yMin="0" xMax="519" yMax="568">
      <component glyphName="x.sc" x="0" y="0" flags="0x0"/>
    </TTGlyph>
    <TTGlyph name="circumflex" xMin="30" yMin="620" xMax="409" yMax="822">
      <contour>
        <pt x="171" y="822" on="1"/>
        <pt x="268" y="822" on="1"/>
        <pt x="409" y="685" on="1"/>
        <pt x="353" y="620" on="1"/>
        <pt x="220" y="712" on="1"/>
        <pt x="86" y="620" on="1"/>
        <pt x="30" y="685" on="1"/>
      </contour>
    </TTGlyph>
    <TTGlyph name="circumflex.case" xMin="30" yMin="755" xMax="409" yMax="949">
      <contour>
        <pt x="87" y="755" on="1"/>
        <pt x="30" y="820" on="1"/>
        <pt x="172" y="949" on="1"/>
        <pt x="268" y="949" on="1"/>
        <pt x="409" y="820" on="1"/>
        <pt x="353" y="755" on="1"/>
        <pt x="220" y="839" on="1"/>
      </contour>
    </TTGlyph>
    <TTGlyph name="circumflex.sc" xMin="30" yMin="651" xMax="410" yMax="852">
      <contour>
        <pt x="171" y="852" on="1"/>
        <pt x="268" y="852" on="1"/>
        <pt x="410" y="715" on="1"/>
        <pt x="353" y="651" on="1"/>
        <pt x="220" y="742" on="1"/>
        <pt x="87" y="651" on="1"/>
        <pt x="30" y="715" on="1"/>
      </contour>
    </TTGlyph>
    <TTGlyph name="circumflexcombcomb" xMin="39" yMin="629" xMax="418" yMax="823">
      <component glyphName="uni0302" x="0" y="0" flags="0x0"/>
    </TTGlyph>
    <TTGlyph name="clear" xMin="100" yMin="-12" xMax="1140" yMax="713">
      <contour>
        <pt x="128" y="-12" on="0"/>
        <pt x="100" y="16" on="0"/>
        <pt x="100" y="38" on="1"/>
        <pt x="100" y="663" on="1"/>
        <pt x="100" y="686" on="0"/>
        <pt x="128" y="713" on="0"/>
        <pt x="150" y="713" on="1"/>
        <pt x="1090" y="713" on="1"/>
        <pt x="1113" y="713" on="0"/>
        <pt x="1140" y="686" on="0"/>
        <pt x="1140" y="663" on="1"/>
        <pt x="1140" y="38" on="1"/>
        <pt x="1140" y="16" on="0"/>
        <pt x="1113" y="-12" on="0"/>
        <pt x="1090" y="-12" on="1"/>
        <pt x="150" y="-12" on="1"/>
      </contour>
      <contour>
        <pt x="620" y="288" on="1"/>
        <pt x="774" y="134" on="1"/>
        <pt x="841" y="201" on="1"/>
        <pt x="687" y="355" on="1"/>
        <pt x="841" y="508" on="1"/>
        <pt x="774" y="577" on="1"/>
        <pt x="620" y="422" on="1"/>
        <pt x="466" y="577" on="1"/>
        <pt x="399" y="508" on="1"/>
        <pt x="553" y="355" on="1"/>
        <pt x="399" y="201" on="1"/>
        <pt x="466" y="134" on="1"/>
      </contour>
    </TTGlyph>
    <TTGlyph name="colon" xMin="29" yMin="-17" xMax="210" yMax="509">
      <component glyphName="period" x="0" y="0" flags="0x0"/>
      <component glyphName="period" x="0" y="345" flags="0x0"/>
    </TTGlyph>
    <TTGlyph name="comma" xMin="26" yMin="-177" xMax="210" yMax="164">
      <contour>
        <pt x="158" y="164" on="0"/>
        <pt x="210" y="112" on="0"/>
        <pt x="210" y="74" on="1"/>
        <pt x="210" y="52" on="0"/>
        <pt x="196" y="8" on="0"/>
        <pt x="178" y="-32" on="1"/>
        <pt x="115" y="-177" on="1"/>
        <pt x="26" y="-177" on="1"/>
        <pt x="69" y="-1" on="1"/>
        <pt x="50" y="12" on="0"/>
        <pt x="29" y="51" on="0"/>
        <pt x="29" y="74" on="1"/>
        <pt x="29" y="112" on="0"/>
        <pt x="81" y="164" on="0"/>
        <pt x="120" y="164" on="1"/>
      </contour>
    </TTGlyph>
    <TTGlyph name="copyright" xMin="67" yMin="99" xMax="743" yMax="766">
      <contour>
        <pt x="499" y="766" on="0"/>
        <pt x="653" y="677" on="0"/>
        <pt x="743" y="524" on="0"/>
        <pt x="743" y="432" on="1"/>
        <pt x="743" y="340" on="0"/>
        <pt x="653" y="188" on="0"/>
        <pt x="499" y="99" on="0"/>
        <pt x="406" y="99" on="1"/>
        <pt x="313" y="99" on="0"/>
        <pt x="158" y="188" on="0"/>
        <pt x="67" y="341" on="0"/>
        <pt x="67" y="432" on="1"/>
        <pt x="67" y="524" on="0"/>
        <pt x="158" y="677" on="0"/>
        <pt x="313" y="766" on="0"/>
        <pt x="406" y="766" on="1"/>
      </contour>
      <contour>
        <pt x="336" y="687" on="0"/>
        <pt x="223" y="619" on="0"/>
        <pt x="159" y="502" on="0"/>
        <pt x="159" y="432" on="1"/>
        <pt x="159" y="362" on="0"/>
        <pt x="223" y="246" on="0"/>
        <pt x="336" y="179" on="0"/>
        <pt x="406" y="179" on="1"/>
        <pt x="475" y="179" on="0"/>
        <pt x="588" y="246" on="0"/>
        <pt x="652" y="362" on="0"/>
        <pt x="652" y="432" on="1"/>
        <pt x="652" y="502" on="0"/>
        <pt x="588" y="619" on="0"/>
        <pt x="475" y="687" on="0"/>
        <pt x="406" y="687" on="1"/>
      </contour>
      <contour>
        <pt x="445" y="630" on="0"/>
        <pt x="512" y="603" on="0"/>
        <pt x="539" y="579" on="1"/>
        <pt x="490" y="518" on="1"/>
        <pt x="472" y="532" on="0"/>
        <pt x="440" y="543" on="0"/>
        <pt x="419" y="543" on="1"/>
        <pt x="386" y="543" on="0"/>
        <pt x="345" y="490" on="0"/>
        <pt x="345" y="433" on="1"/>
        <pt x="345" y="324" on="0"/>
        <pt x="418" y="324" on="1"/>
        <pt x="460" y="324" on="0"/>
        <pt x="498" y="353" on="1"/>
        <pt x="542" y="289" on="1"/>
        <pt x="486" y="236" on="0"/>
        <pt x="409" y="236" on="1"/>
        <pt x="327" y="236" on="0"/>
        <pt x="231" y="339" on="0"/>
        <pt x="231" y="433" on="1"/>
        <pt x="231" y="493" on="0"/>
        <pt x="277" y="582" on="0"/>
        <pt x="357" y="630" on="0"/>
        <pt x="408" y="630" on="1"/>
      </contour>
    </TTGlyph>
    <TTGlyph name="currency" xMin="17" yMin="78" xMax="543" yMax="606">
      <contour>
        <pt x="501" y="276" on="0"/>
        <pt x="468" y="223" on="1"/>
        <pt x="543" y="148" on="1"/>
        <pt x="474" y="78" on="1"/>
        <pt x="396" y="154" on="1"/>
        <pt x="346" y="125" on="0"/>
        <pt x="280" y="125" on="1"/>
        <pt x="215" y="125" on="0"/>
        <pt x="165" y="154" on="1"/>
        <pt x="87" y="78" on="1"/>
        <pt x="17" y="148" on="1"/>
        <pt x="94" y="224" on="1"/>
        <pt x="61" y="277" on="0"/>
        <pt x="61" y="342" on="1"/>
        <pt x="61" y="405" on="0"/>
        <pt x="93" y="458" on="1"/>
        <pt x="17" y="536" on="1"/>
        <pt x="87" y="606" on="1"/>
        <pt x="165" y="528" on="1"/>
        <pt x="217" y="558" on="0"/>
        <pt x="280" y="558" on="1"/>
        <pt x="344" y="558" on="0"/>
        <pt x="396" y="528" on="1"/>
        <pt x="474" y="606" on="1"/>
        <pt x="543" y="536" on="1"/>
        <pt x="468" y="460" on="1"/>
        <pt x="501" y="407" on="0"/>
        <pt x="501" y="342" on="1"/>
      </contour>
      <contour>
        <pt x="328" y="231" on="0"/>
        <pt x="377" y="289" on="0"/>
        <pt x="377" y="342" on="1"/>
        <pt x="377" y="395" on="0"/>
        <pt x="328" y="452" on="0"/>
        <pt x="281" y="452" on="1"/>
        <pt x="233" y="452" on="0"/>
        <pt x="183" y="394" on="0"/>
        <pt x="183" y="342" on="1"/>
        <pt x="183" y="289" on="0"/>
        <pt x="233" y="231" on="0"/>
        <pt x="281" y="231" on="1"/>
      </contour>
    </TTGlyph>
    <TTGlyph name="currency.osf" xMin="17" yMin="78" xMax="543" yMax="606">
      <component glyphName="currency" x="0" y="0" flags="0x0"/>
    </TTGlyph>
    <TTGlyph name="currency.tf" xMin="17" yMin="78" xMax="543" yMax="606">
      <component glyphName="currency" x="0" y="0" flags="0x0"/>
    </TTGlyph>
    <TTGlyph name="currency.tosf" xMin="17" yMin="78" xMax="543" yMax="606">
      <component glyphName="currency" x="0" y="0" flags="0x0"/>
    </TTGlyph>
    <TTGlyph name="d" xMin="37" yMin="-17" xMax="538" yMax="759">
      <contour>
        <pt x="538" y="0" on="1"/>
        <pt x="398" y="0" on="1"/>
        <pt x="390" y="62" on="1"/>
        <pt x="366" y="26" on="0"/>
        <pt x="290" y="-17" on="0"/>
        <pt x="239" y="-17" on="1"/>
        <pt x="140" y="-17" on="0"/>
        <pt x="37" y="135" on="0"/>
        <pt x="37" y="267" on="1"/>
        <pt x="37" y="349" on="0"/>
        <pt x="90" y="476" on="0"/>
        <pt x="190" y="548" on="0"/>
        <pt x="257" y="548" on="1"/>
        <pt x="292" y="548" on="0"/>
        <pt x="355" y="522" on="0"/>
        <pt x="380" y="498" on="1"/>
        <pt x="380" y="759" on="1"/>
        <pt x="538" y="742" on="1"/>
      </contour>
      <contour>
        <pt x="342" y="99" on="0"/>
        <pt x="380" y="158" on="1"/>
        <pt x="380" y="388" on="1"/>
        <pt x="361" y="410" on="0"/>
        <pt x="322" y="433" on="0"/>
        <pt x="298" y="433" on="1"/>
        <pt x="253" y="433" on="0"/>
        <pt x="201" y="352" on="0"/>
        <pt x="201" y="266" on="1"/>
        <pt x="201" y="173" on="0"/>
        <pt x="246" y="99" on="0"/>
        <pt x="289" y="99" on="1"/>
      </contour>
    </TTGlyph>
    <TTGlyph name="d.sc" xMin="65" yMin="0" xMax="558" yMax="568">
      <contour>
        <pt x="386" y="568" on="0"/>
        <pt x="558" y="447" on="0"/>
        <pt x="558" y="288" on="1"/>
        <pt x="558" y="0" on="0"/>
        <pt x="255" y="0" on="1"/>
        <pt x="65" y="0" on="1"/>
        <pt x="65" y="568" on="1"/>
        <pt x="243" y="568" on="1"/>
      </contour>
      <contour>
        <pt x="222" y="112" on="1"/>
        <pt x="265" y="112" on="1"/>
        <pt x="331" y="112" on="0"/>
        <pt x="396" y="189" on="0"/>
        <pt x="396" y="288" on="1"/>
        <pt x="396" y="383" on="0"/>
        <pt x="329" y="457" on="0"/>
        <pt x="263" y="457" on="1"/>
        <pt x="222" y="457" on="1"/>
      </contour>
    </TTGlyph>
    <TTGlyph name="dagger" xMin="25" yMin="0" xMax="503" yMax="676">
      <contour>
        <pt x="503" y="536" on="1"/>
        <pt x="503" y="408" on="1"/>
        <pt x="338" y="408" on="1"/>
        <pt x="338" y="0" on="1"/>
        <pt x="190" y="0" on="1"/>
        <pt x="190" y="408" on="1"/>
        <pt x="25" y="408" on="1"/>
        <pt x="25" y="536" on="1"/>
        <pt x="190" y="536" on="1"/>
        <pt x="190" y="676" on="1"/>
        <pt x="338" y="676" on="1"/>
        <pt x="338" y="536" on="1"/>
      </contour>
    </TTGlyph>
    <TTGlyph name="dagger.osf" xMin="25" yMin="0" xMax="503" yMax="676">
      <component glyphName="dagger" x="0" y="0" flags="0x0"/>
    </TTGlyph>
    <TTGlyph name="dagger.tf" xMin="33" yMin="0" xMax="526" yMax="693">
      <contour>
        <pt x="526" y="553" on="1"/>
        <pt x="526" y="425" on="1"/>
        <pt x="354" y="425" on="1"/>
        <pt x="354" y="0" on="1"/>
        <pt x="206" y="0" on="1"/>
        <pt x="206" y="425" on="1"/>
        <pt x="33" y="425" on="1"/>
        <pt x="33" y="553" on="1"/>
        <pt x="206" y="553" on="1"/>
        <pt x="206" y="693" on="1"/>
        <pt x="354" y="693" on="1"/>
        <pt x="354" y="553" on="1"/>
      </contour>
    </TTGlyph>
    <TTGlyph name="dagger.tosf" xMin="41" yMin="0" xMax="519" yMax="676">
      <component glyphName="dagger" x="15" y="0" flags="0x0"/>
    </TTGlyph>
    <TTGlyph name="daggerdbl" xMin="25" yMin="0" xMax="503" yMax="676">
      <contour>
        <pt x="338" y="273" on="1"/>
        <pt x="503" y="273" on="1"/>
        <pt x="503" y="145" on="1"/>
        <pt x="338" y="145" on="1"/>
        <pt x="338" y="0" on="1"/>
        <pt x="190" y="0" on="1"/>
        <pt x="190" y="145" on="1"/>
        <pt x="25" y="145" on="1"/>
        <pt x="25" y="273" on="1"/>
        <pt x="190" y="273" on="1"/>
        <pt x="190" y="408" on="1"/>
        <pt x="25" y="408" on="1"/>
        <pt x="25" y="536" on="1"/>
        <pt x="190" y="536" on="1"/>
        <pt x="190" y="676" on="1"/>
        <pt x="338" y="676" on="1"/>
        <pt x="338" y="536" on="1"/>
        <pt x="503" y="536" on="1"/>
        <pt x="503" y="408" on="1"/>
        <pt x="338" y="408" on="1"/>
      </contour>
    </TTGlyph>
    <TTGlyph name="daggerdbl.osf" xMin="25" yMin="0" xMax="503" yMax="676">
      <component glyphName="daggerdbl" x="0" y="0" flags="0x0"/>
    </TTGlyph>
    <TTGlyph name="daggerdbl.tf" xMin="33" yMin="0" xMax="526" yMax="693">
      <contour>
        <pt x="354" y="285" on="1"/>
        <pt x="523" y="285" on="1"/>
        <pt x="523" y="157" on="1"/>
        <pt x="354" y="157" on="1"/>
        <pt x="354" y="0" on="1"/>
        <pt x="206" y="0" on="1"/>
        <pt x="206" y="157" on="1"/>
        <pt x="37" y="157" on="1"/>
        <pt x="37" y="285" on="1"/>
        <pt x="206" y="285" on="1"/>
        <pt x="206" y="425" on="1"/>
        <pt x="33" y="425" on="1"/>
        <pt x="33" y="553" on="1"/>
        <pt x="206" y="553" on="1"/>
        <pt x="206" y="693" on="1"/>
        <pt x="354" y="693" on="1"/>
        <pt x="354" y="553" on="1"/>
        <pt x="526" y="553" on="1"/>
        <pt x="526" y="425" on="1"/>
        <pt x="354" y="425" on="1"/>
      </contour>
    </TTGlyph>
    <TTGlyph name="daggerdbl.tosf" xMin="41" yMin="0" xMax="519" yMax="676">
      <component glyphName="daggerdbl" x="15" y="0" flags="0x0"/>
    </TTGlyph>
    <TTGlyph name="dcaron" xMin="37" yMin="-17" xMax="729" yMax="759">
      <component glyphName="d" x="0" y="0" flags="0x0"/>
      <component glyphName="caron.alt" x="524" y="48" flags="0x0"/>
    </TTGlyph>
    <TTGlyph name="dcaron.sc" xMin="65" yMin="0" xMax="558" yMax="843">
      <component glyphName="d.sc" x="0" y="0" flags="0x0"/>
      <component glyphName="caron.sc" x="50" y="0" flags="0x0"/>
    </TTGlyph>
    <TTGlyph name="dcroat" xMin="37" yMin="-17" xMax="600" yMax="759">
      <contour>
        <pt x="538" y="596" on="1"/>
        <pt x="538" y="0" on="1"/>
        <pt x="398" y="0" on="1"/>
        <pt x="390" y="62" on="1"/>
        <pt x="366" y="26" on="0"/>
        <pt x="290" y="-17" on="0"/>
        <pt x="239" y="-17" on="1"/>
        <pt x="140" y="-17" on="0"/>
        <pt x="37" y="135" on="0"/>
        <pt x="37" y="267" on="1"/>
        <pt x="37" y="349" on="0"/>
        <pt x="90" y="476" on="0"/>
        <pt x="190" y="548" on="0"/>
        <pt x="257" y="548" on="1"/>
        <pt x="292" y="548" on="0"/>
        <pt x="355" y="522" on="0"/>
        <pt x="380" y="498" on="1"/>
        <pt x="380" y="596" on="1"/>
        <pt x="250" y="596" on="1"/>
        <pt x="237" y="688" on="1"/>
        <pt x="380" y="688" on="1"/>
        <pt x="380" y="759" on="1"/>
        <pt x="538" y="742" on="1"/>
        <pt x="538" y="688" on="1"/>
        <pt x="600" y="688" on="1"/>
        <pt x="600" y="596" on="1"/>
      </contour>
      <contour>
        <pt x="342" y="99" on="0"/>
        <pt x="380" y="158" on="1"/>
        <pt x="380" y="388" on="1"/>
        <pt x="361" y="410" on="0"/>
        <pt x="322" y="433" on="0"/>
        <pt x="298" y="433" on="1"/>
        <pt x="253" y="433" on="0"/>
        <pt x="201" y="352" on="0"/>
        <pt x="201" y="266" on="1"/>
        <pt x="201" y="173" on="0"/>
        <pt x="246" y="99" on="0"/>
        <pt x="289" y="99" on="1"/>
      </contour>
    </TTGlyph>
    <TTGlyph name="dcroat.sc" xMin="6" yMin="0" xMax="553" yMax="569">
      <component glyphName="eth.sc" x="0" y="0" flags="0x0"/>
    </TTGlyph>
    <TTGlyph name="degree" xMin="39" yMin="369" xMax="396" yMax="710">
      <contour>
        <pt x="173" y="369" on="0"/>
        <pt x="91" y="411" on="0"/>
        <pt x="39" y="490" on="0"/>
        <pt x="39" y="541" on="1"/>
        <pt x="39" y="592" on="0"/>
        <pt x="90" y="669" on="0"/>
        <pt x="173" y="710" on="0"/>
        <pt x="218" y="710" on="1"/>
        <pt x="263" y="710" on="0"/>
        <pt x="345" y="669" on="0"/>
        <pt x="396" y="592" on="0"/>
        <pt x="396" y="541" on="1"/>
        <pt x="396" y="489" on="0"/>
        <pt x="345" y="411" on="0"/>
        <pt x="263" y="369" on="0"/>
        <pt x="218" y="369" on="1"/>
      </contour>
      <contour>
        <pt x="249" y="462" on="0"/>
        <pt x="287" y="505" on="0"/>
        <pt x="287" y="541" on="1"/>
        <pt x="287" y="577" on="0"/>
        <pt x="250" y="619" on="0"/>
        <pt x="218" y="619" on="1"/>
        <pt x="186" y="619" on="0"/>
        <pt x="148" y="577" on="0"/>
        <pt x="148" y="541" on="1"/>
        <pt x="148" y="505" on="0"/>
        <pt x="186" y="462" on="0"/>
        <pt x="218" y="462" on="1"/>
      </contour>
    </TTGlyph>
    <TTGlyph name="degree.osf" xMin="39" yMin="369" xMax="396" yMax="710">
      <component glyphName="degree" x="0" y="0" flags="0x0"/>
    </TTGlyph>
    <TTGlyph name="degree.tf" xMin="59" yMin="389" xMax="416" yMax="730">
      <component glyphName="degree" x="20" y="20" flags="0x0"/>
    </TTGlyph>
    <TTGlyph name="degree.tosf" xMin="59" yMin="369" xMax="416" yMax="710">
      <component glyphName="degree" x="20" y="0" flags="0x0"/>
    </TTGlyph>
    <TTGlyph name="deleterightKey" xMin="100" yMin="-12" xMax="1360" yMax="713">
      <contour>
        <pt x="128" y="-12" on="0"/>
        <pt x="100" y="16" on="0"/>
        <pt x="100" y="38" on="1"/>
        <pt x="100" y="663" on="1"/>
        <pt x="100" y="686" on="0"/>
        <pt x="128" y="713" on="0"/>
        <pt x="150" y="713" on="1"/>
        <pt x="980" y="713" on="1"/>
        <pt x="1360" y="352" on="1"/>
        <pt x="980" y="-12" on="1"/>
        <pt x="150" y="-12" on="1"/>
      </contour>
      <contour>
        <pt x="570" y="288" on="1"/>
        <pt x="724" y="134" on="1"/>
        <pt x="791" y="201" on="1"/>
        <pt x="637" y="355" on="1"/>
        <pt x="791" y="508" on="1"/>
        <pt x="724" y="577" on="1"/>
        <pt x="570" y="422" on="1"/>
        <pt x="416" y="577" on="1"/>
        <pt x="349" y="508" on="1"/>
        <pt x="503" y="355" on="1"/>
        <pt x="349" y="201" on="1"/>
        <pt x="416" y="134" on="1"/>
      </contour>
    </TTGlyph>
    <TTGlyph name="delta" xMin="32" yMin="-17" xMax="545" yMax="759">
      <contour>
        <pt x="447" y="474" on="0"/>
        <pt x="545" y="352" on="0"/>
        <pt x="545" y="248" on="1"/>
        <pt x="545" y="169" on="0"/>
        <pt x="482" y="49" on="0"/>
        <pt x="366" y="-17" on="0"/>
        <pt x="288" y="-17" on="1"/>
        <pt x="169" y="-17" on="0"/>
        <pt x="32" y="121" on="0"/>
        <pt x="32" y="241" on="1"/>
        <pt x="32" y="391" on="0"/>
        <pt x="185" y="462" on="1"/>
        <pt x="127" y="494" on="0"/>
        <pt x="86" y="561" on="0"/>
        <pt x="86" y="606" on="1"/>
        <pt x="86" y="672" on="0"/>
        <pt x="194" y="759" on="0"/>
        <pt x="300" y="759" on="1"/>
        <pt x="411" y="759" on="0"/>
        <pt x="492" y="698" on="1"/>
        <pt x="420" y="614" on="1"/>
        <pt x="392" y="632" on="0"/>
        <pt x="341" y="649" on="0"/>
        <pt x="311" y="649" on="1"/>
        <pt x="273" y="649" on="0"/>
        <pt x="238" y="623" on="0"/>
        <pt x="238" y="601" on="1"/>
        <pt x="238" y="584" on="0"/>
        <pt x="252" y="561" on="0"/>
        <pt x="294" y="536" on="0"/>
        <pt x="338" y="518" on="1"/>
      </contour>
      <contour>
        <pt x="381" y="99" on="0"/>
        <pt x="381" y="249" on="1"/>
        <pt x="381" y="299" on="0"/>
        <pt x="363" y="358" on="0"/>
        <pt x="315" y="401" on="0"/>
        <pt x="267" y="424" on="1"/>
        <pt x="227" y="391" on="0"/>
        <pt x="195" y="309" on="0"/>
        <pt x="195" y="247" on="1"/>
        <pt x="195" y="172" on="0"/>
        <pt x="240" y="99" on="0"/>
        <pt x="288" y="99" on="1"/>
      </contour>
    </TTGlyph>
    <TTGlyph name="delta.sc" xMin="-13" yMin="0" xMax="540" yMax="570">
      <contour>
        <pt x="-13" y="0" on="1"/>
        <pt x="169" y="570" on="1"/>
        <pt x="358" y="570" on="1"/>
        <pt x="540" y="0" on="1"/>
      </contour>
      <contour>
        <pt x="348" y="113" on="1"/>
        <pt x="262" y="457" on="1"/>
        <pt x="175" y="113" on="1"/>
      </contour>
    </TTGlyph>
    <TTGlyph name="dieresis" xMin="31" yMin="641" xMax="425" yMax="799">
      <contour>
        <pt x="146" y="799" on="0"/>
        <pt x="193" y="753" on="0"/>
        <pt x="193" y="720" on="1"/>
        <pt x="193" y="687" on="0"/>
        <pt x="146" y="641" on="0"/>
        <pt x="112" y="641" on="1"/>
        <pt x="78" y="641" on="0"/>
        <pt x="31" y="687" on="0"/>
        <pt x="31" y="720" on="1"/>
        <pt x="31" y="753" on="0"/>
        <pt x="78" y="799" on="0"/>
        <pt x="112" y="799" on="1"/>
      </contour>
      <contour>
        <pt x="378" y="799" on="0"/>
        <pt x="425" y="753" on="0"/>
        <pt x="425" y="720" on="1"/>
        <pt x="425" y="687" on="0"/>
        <pt x="378" y="641" on="0"/>
        <pt x="344" y="641" on="1"/>
        <pt x="310" y="641" on="0"/>
        <pt x="263" y="687" on="0"/>
        <pt x="263" y="720" on="1"/>
        <pt x="263" y="753" on="0"/>
        <pt x="310" y="799" on="0"/>
        <pt x="344" y="799" on="1"/>
      </contour>
    </TTGlyph>
    <TTGlyph name="dieresis.case" xMin="31" yMin="767" xMax="425" yMax="925">
      <contour>
        <pt x="147" y="925" on="0"/>
        <pt x="193" y="879" on="0"/>
        <pt x="193" y="847" on="1"/>
        <pt x="193" y="813" on="0"/>
        <pt x="147" y="767" on="0"/>
        <pt x="113" y="767" on="1"/>
        <pt x="79" y="767" on="0"/>
        <pt x="31" y="813" on="0"/>
        <pt x="31" y="847" on="1"/>
        <pt x="31" y="879" on="0"/>
        <pt x="79" y="925" on="0"/>
        <pt x="113" y="925" on="1"/>
      </contour>
      <contour>
        <pt x="378" y="925" on="0"/>
        <pt x="425" y="879" on="0"/>
        <pt x="425" y="847" on="1"/>
        <pt x="425" y="813" on="0"/>
        <pt x="378" y="767" on="0"/>
        <pt x="344" y="767" on="1"/>
        <pt x="310" y="767" on="0"/>
        <pt x="263" y="813" on="0"/>
        <pt x="263" y="847" on="1"/>
        <pt x="263" y="879" on="0"/>
        <pt x="310" y="925" on="0"/>
        <pt x="344" y="925" on="1"/>
      </contour>
    </TTGlyph>
    <TTGlyph name="dieresis.sc" xMin="31" yMin="671" xMax="425" yMax="829">
      <contour>
        <pt x="147" y="829" on="0"/>
        <pt x="193" y="783" on="0"/>
        <pt x="193" y="751" on="1"/>
        <pt x="193" y="717" on="0"/>
        <pt x="147" y="671" on="0"/>
        <pt x="113" y="671" on="1"/>
        <pt x="79" y="671" on="0"/>
        <pt x="31" y="717" on="0"/>
        <pt x="31" y="751" on="1"/>
        <pt x="31" y="783" on="0"/>
        <pt x="79" y="829" on="0"/>
        <pt x="113" y="829" on="1"/>
      </contour>
      <contour>
        <pt x="378" y="829" on="0"/>
        <pt x="425" y="783" on="0"/>
        <pt x="425" y="751" on="1"/>
        <pt x="425" y="717" on="0"/>
        <pt x="378" y="671" on="0"/>
        <pt x="344" y="671" on="1"/>
        <pt x="310" y="671" on="0"/>
        <pt x="263" y="717" on="0"/>
        <pt x="263" y="751" on="1"/>
        <pt x="263" y="783" on="0"/>
        <pt x="310" y="829" on="0"/>
        <pt x="344" y="829" on="1"/>
      </contour>
    </TTGlyph>
    <TTGlyph name="dieresiscombcomb" xMin="40" yMin="641" xMax="434" yMax="799">
      <component glyphName="uni0308" x="0" y="0" flags="0x0"/>
    </TTGlyph>
    <TTGlyph name="dieresistonos" xMin="30" yMin="610" xMax="456" yMax="950">
      <contour>
        <pt x="285" y="736" on="1"/>
        <pt x="196" y="751" on="1"/>
        <pt x="225" y="950" on="1"/>
        <pt x="358" y="927" on="1"/>
      </contour>
      <contour>
        <pt x="143" y="764" on="0"/>
        <pt x="189" y="719" on="0"/>
        <pt x="189" y="687" on="1"/>
        <pt x="189" y="655" on="0"/>
        <pt x="143" y="610" on="0"/>
        <pt x="110" y="610" on="1"/>
        <pt x="77" y="610" on="0"/>
        <pt x="30" y="655" on="0"/>
        <pt x="30" y="687" on="1"/>
        <pt x="30" y="719" on="0"/>
        <pt x="77" y="764" on="0"/>
        <pt x="110" y="764" on="1"/>
      </contour>
      <contour>
        <pt x="410" y="764" on="0"/>
        <pt x="456" y="719" on="0"/>
        <pt x="456" y="687" on="1"/>
        <pt x="456" y="655" on="0"/>
        <pt x="410" y="610" on="0"/>
        <pt x="376" y="610" on="1"/>
        <pt x="344" y="610" on="0"/>
        <pt x="297" y="655" on="0"/>
        <pt x="297" y="687" on="1"/>
        <pt x="297" y="719" on="0"/>
        <pt x="344" y="764" on="0"/>
        <pt x="376" y="764" on="1"/>
      </contour>
    </TTGlyph>
    <TTGlyph name="divide" xMin="48" yMin="1" xMax="470" yMax="664">
      <component glyphName="period" x="139" y="17" flags="0x0"/>
      <component glyphName="period" x="139" y="500" flags="0x0"/>
      <component glyphName="minus" x="0" y="0" flags="0x0"/>
    </TTGlyph>
    <TTGlyph name="divide.osf" xMin="48" yMin="0" xMax="470" yMax="664">
      <contour>
        <pt x="297" y="664" on="0"/>
        <pt x="350" y="612" on="0"/>
        <pt x="350" y="574" on="1"/>
        <pt x="350" y="537" on="0"/>
        <pt x="297" y="484" on="0"/>
        <pt x="259" y="484" on="1"/>
        <pt x="222" y="484" on="0"/>
        <pt x="169" y="537" on="0"/>
        <pt x="169" y="574" on="1"/>
        <pt x="169" y="612" on="0"/>
        <pt x="222" y="664" on="0"/>
        <pt x="259" y="664" on="1"/>
      </contour>
      <contour>
        <pt x="470" y="393" on="1"/>
        <pt x="470" y="271" on="1"/>
        <pt x="48" y="271" on="1"/>
        <pt x="48" y="393" on="1"/>
      </contour>
      <contour>
        <pt x="297" y="181" on="0"/>
        <pt x="350" y="128" on="0"/>
        <pt x="350" y="91" on="1"/>
        <pt x="350" y="53" on="0"/>
        <pt x="297" y="0" on="0"/>
        <pt x="259" y="0" on="1"/>
        <pt x="222" y="0" on="0"/>
        <pt x="169" y="53" on="0"/>
        <pt x="169" y="91" on="1"/>
        <pt x="169" y="128" on="0"/>
        <pt x="222" y="181" on="0"/>
        <pt x="259" y="181" on="1"/>
      </contour>
    </TTGlyph>
    <TTGlyph name="divide.tf" xMin="69" yMin="1" xMax="491" yMax="664">
      <contour>
        <pt x="318" y="664" on="0"/>
        <pt x="371" y="612" on="0"/>
        <pt x="371" y="574" on="1"/>
        <pt x="371" y="537" on="0"/>
        <pt x="318" y="484" on="0"/>
        <pt x="280" y="484" on="1"/>
        <pt x="243" y="484" on="0"/>
        <pt x="190" y="537" on="0"/>
        <pt x="190" y="574" on="1"/>
        <pt x="190" y="612" on="0"/>
        <pt x="243" y="664" on="0"/>
        <pt x="280" y="664" on="1"/>
      </contour>
      <contour>
        <pt x="491" y="394" on="1"/>
        <pt x="491" y="271" on="1"/>
        <pt x="69" y="271" on="1"/>
        <pt x="69" y="394" on="1"/>
      </contour>
      <contour>
        <pt x="318" y="181" on="0"/>
        <pt x="371" y="129" on="0"/>
        <pt x="371" y="91" on="1"/>
        <pt x="371" y="54" on="0"/>
        <pt x="318" y="1" on="0"/>
        <pt x="280" y="1" on="1"/>
        <pt x="243" y="1" on="0"/>
        <pt x="190" y="54" on="0"/>
        <pt x="190" y="91" on="1"/>
        <pt x="190" y="129" on="0"/>
        <pt x="243" y="181" on="0"/>
        <pt x="280" y="181" on="1"/>
      </contour>
    </TTGlyph>
    <TTGlyph name="divide.tosf" xMin="69" yMin="1" xMax="491" yMax="664">
      <contour>
        <pt x="318" y="664" on="0"/>
        <pt x="371" y="612" on="0"/>
        <pt x="371" y="574" on="1"/>
        <pt x="371" y="537" on="0"/>
        <pt x="318" y="484" on="0"/>
        <pt x="280" y="484" on="1"/>
        <pt x="243" y="484" on="0"/>
        <pt x="190" y="537" on="0"/>
        <pt x="190" y="574" on="1"/>
        <pt x="190" y="612" on="0"/>
        <pt x="243" y="664" on="0"/>
        <pt x="280" y="664" on="1"/>
      </contour>
      <contour>
        <pt x="491" y="394" on="1"/>
        <pt x="491" y="271" on="1"/>
        <pt x="69" y="271" on="1"/>
        <pt x="69" y="394" on="1"/>
      </contour>
      <contour>
        <pt x="318" y="181" on="0"/>
        <pt x="371" y="129" on="0"/>
        <pt x="371" y="91" on="1"/>
        <pt x="371" y="54" on="0"/>
        <pt x="318" y="1" on="0"/>
        <pt x="280" y="1" on="1"/>
        <pt x="243" y="1" on="0"/>
        <pt x="190" y="54" on="0"/>
        <pt x="190" y="91" on="1"/>
        <pt x="190" y="129" on="0"/>
        <pt x="243" y="181" on="0"/>
        <pt x="280" y="181" on="1"/>
      </contour>
    </TTGlyph>
    <TTGlyph name="divisionslash" xMin="-167" yMin="-85" xMax="336" yMax="759">
      <component glyphName="fraction" x="0" y="0" flags="0x0"/>
    </TTGlyph>
    <TTGlyph name="dollar" xMin="9" yMin="-161" xMax="525" yMax="830">
      <contour>
        <pt x="525" y="122" on="0"/>
        <pt x="427" y="15" on="0"/>
        <pt x="340" y="-3" on="1"/>
        <pt x="340" y="-161" on="1"/>
        <pt x="226" y="-161" on="1"/>
        <pt x="226" y="-9" on="1"/>
        <pt x="94" y="2" on="0"/>
        <pt x="9" y="85" on="1"/>
        <pt x="90" y="173" on="1"/>
        <pt x="162" y="106" on="0"/>
        <pt x="256" y="106" on="1"/>
        <pt x="305" y="106" on="0"/>
        <pt x="361" y="150" on="0"/>
        <pt x="361" y="188" on="1"/>
        <pt x="361" y="213" on="0"/>
        <pt x="341" y="246" on="0"/>
        <pt x="289" y="273" on="0"/>
        <pt x="240" y="288" on="1"/>
        <pt x="130" y="323" on="0"/>
        <pt x="37" y="419" on="0"/>
        <pt x="37" y="494" on="1"/>
        <pt x="37" y="569" on="0"/>
        <pt x="141" y="670" on="0"/>
        <pt x="226" y="683" on="1"/>
        <pt x="226" y="830" on="1"/>
        <pt x="340" y="830" on="1"/>
        <pt x="340" y="682" on="1"/>
        <pt x="437" y="666" on="0"/>
        <pt x="506" y="601" on="1"/>
        <pt x="433" y="515" on="1"/>
        <pt x="367" y="571" on="0"/>
        <pt x="288" y="571" on="1"/>
        <pt x="246" y="571" on="0"/>
        <pt x="198" y="537" on="0"/>
        <pt x="198" y="506" on="1"/>
        <pt x="198" y="484" on="0"/>
        <pt x="219" y="456" on="0"/>
        <pt x="273" y="431" on="0"/>
        <pt x="327" y="414" on="1"/>
        <pt x="428" y="382" on="0"/>
        <pt x="525" y="286" on="0"/>
        <pt x="525" y="200" on="1"/>
      </contour>
    </TTGlyph>
    <TTGlyph name="dollar.osf" xMin="9" yMin="-161" xMax="525" yMax="830">
      <component glyphName="dollar" x="0" y="0" flags="0x0"/>
    </TTGlyph>
    <TTGlyph name="dollar.tf" xMin="13" yMin="-161" xMax="526" yMax="851">
      <contour>
        <pt x="526" y="127" on="0"/>
        <pt x="428" y="17" on="0"/>
        <pt x="340" y="0" on="1"/>
        <pt x="340" y="-161" on="1"/>
        <pt x="225" y="-161" on="1"/>
        <pt x="225" y="-6" on="1"/>
        <pt x="96" y="6" on="0"/>
        <pt x="13" y="89" on="1"/>
        <pt x="92" y="178" on="1"/>
        <pt x="165" y="111" on="0"/>
        <pt x="258" y="111" on="1"/>
        <pt x="307" y="111" on="0"/>
        <pt x="364" y="155" on="0"/>
        <pt x="364" y="194" on="1"/>
        <pt x="364" y="220" on="0"/>
        <pt x="343" y="253" on="0"/>
        <pt x="292" y="281" on="0"/>
        <pt x="243" y="297" on="1"/>
        <pt x="133" y="331" on="0"/>
        <pt x="40" y="429" on="0"/>
        <pt x="40" y="506" on="1"/>
        <pt x="40" y="582" on="0"/>
        <pt x="142" y="684" on="0"/>
        <pt x="225" y="697" on="1"/>
        <pt x="225" y="851" on="1"/>
        <pt x="340" y="851" on="1"/>
        <pt x="340" y="697" on="1"/>
        <pt x="436" y="683" on="0"/>
        <pt x="507" y="614" on="1"/>
        <pt x="434" y="527" on="1"/>
        <pt x="368" y="584" on="0"/>
        <pt x="290" y="584" on="1"/>
        <pt x="248" y="584" on="0"/>
        <pt x="200" y="549" on="0"/>
        <pt x="200" y="517" on="1"/>
        <pt x="200" y="495" on="0"/>
        <pt x="221" y="466" on="0"/>
        <pt x="275" y="441" on="0"/>
        <pt x="329" y="424" on="1"/>
        <pt x="429" y="392" on="0"/>
        <pt x="526" y="294" on="0"/>
        <pt x="526" y="206" on="1"/>
      </contour>
    </TTGlyph>
    <TTGlyph name="dollar.tosf" xMin="13" yMin="-161" xMax="515" yMax="831">
      <contour>
        <pt x="515" y="124" on="0"/>
        <pt x="421" y="16" on="0"/>
        <pt x="337" y="-2" on="1"/>
        <pt x="337" y="-161" on="1"/>
        <pt x="223" y="-161" on="1"/>
        <pt x="223" y="-8" on="1"/>
        <pt x="159" y="-2" on="0"/>
        <pt x="51" y="49" on="0"/>
        <pt x="13" y="87" on="1"/>
        <pt x="92" y="174" on="1"/>
        <pt x="128" y="142" on="0"/>
        <pt x="212" y="107" on="0"/>
        <pt x="255" y="107" on="1"/>
        <pt x="301" y="107" on="0"/>
        <pt x="357" y="151" on="0"/>
        <pt x="357" y="188" on="1"/>
        <pt x="357" y="213" on="0"/>
        <pt x="337" y="246" on="0"/>
        <pt x="289" y="274" on="0"/>
        <pt x="243" y="290" on="1"/>
        <pt x="136" y="327" on="0"/>
        <pt x="47" y="420" on="0"/>
        <pt x="47" y="495" on="1"/>
        <pt x="47" y="569" on="0"/>
        <pt x="145" y="667" on="0"/>
        <pt x="223" y="681" on="1"/>
        <pt x="223" y="831" on="1"/>
        <pt x="337" y="831" on="1"/>
        <pt x="337" y="683" on="1"/>
        <pt x="434" y="668" on="0"/>
        <pt x="503" y="601" on="1"/>
        <pt x="436" y="516" on="1"/>
        <pt x="362" y="571" on="0"/>
        <pt x="295" y="571" on="1"/>
        <pt x="254" y="571" on="0"/>
        <pt x="206" y="537" on="0"/>
        <pt x="206" y="506" on="1"/>
        <pt x="206" y="484" on="0"/>
        <pt x="226" y="456" on="0"/>
        <pt x="276" y="429" on="0"/>
        <pt x="327" y="411" on="1"/>
        <pt x="391" y="389" on="0"/>
        <pt x="471" y="338" on="0"/>
        <pt x="515" y="259" on="0"/>
        <pt x="515" y="201" on="1"/>
      </contour>
    </TTGlyph>
    <TTGlyph name="dotaccent" xMin="30" yMin="631" xMax="217" yMax="811">
      <contour>
        <pt x="164" y="811" on="0"/>
        <pt x="217" y="760" on="0"/>
        <pt x="217" y="721" on="1"/>
        <pt x="217" y="682" on="0"/>
        <pt x="164" y="631" on="0"/>
        <pt x="123" y="631" on="1"/>
        <pt x="82" y="631" on="0"/>
        <pt x="30" y="682" on="0"/>
        <pt x="30" y="721" on="1"/>
        <pt x="30" y="760" on="0"/>
        <pt x="82" y="811" on="0"/>
        <pt x="123" y="811" on="1"/>
      </contour>
    </TTGlyph>
    <TTGlyph name="dotaccent.case" xMin="30" yMin="758" xMax="217" yMax="937">
      <contour>
        <pt x="165" y="937" on="0"/>
        <pt x="217" y="886" on="0"/>
        <pt x="217" y="847" on="1"/>
        <pt x="217" y="808" on="0"/>
        <pt x="165" y="758" on="0"/>
        <pt x="124" y="758" on="1"/>
        <pt x="83" y="758" on="0"/>
        <pt x="30" y="809" on="0"/>
        <pt x="30" y="847" on="1"/>
        <pt x="30" y="886" on="0"/>
        <pt x="83" y="937" on="0"/>
        <pt x="124" y="937" on="1"/>
      </contour>
    </TTGlyph>
    <TTGlyph name="dotaccent.sc" xMin="30" yMin="662" xMax="217" yMax="841">
      <contour>
        <pt x="165" y="841" on="0"/>
        <pt x="217" y="790" on="0"/>
        <pt x="217" y="751" on="1"/>
        <pt x="217" y="712" on="0"/>
        <pt x="165" y="662" on="0"/>
        <pt x="124" y="662" on="1"/>
        <pt x="83" y="662" on="0"/>
        <pt x="30" y="713" on="0"/>
        <pt x="30" y="751" on="1"/>
        <pt x="30" y="790" on="0"/>
        <pt x="83" y="841" on="0"/>
        <pt x="124" y="841" on="1"/>
      </contour>
    </TTGlyph>
    <TTGlyph name="dotaccentcombcomb" xMin="39" yMin="632" xMax="226" yMax="811">
      <component glyphName="uni0307" x="0" y="0" flags="0x0"/>
    </TTGlyph>
    <TTGlyph name="dotlessi" xMin="62" yMin="0" xMax="220" yMax="531">
      <contour>
        <pt x="62" y="0" on="1"/>
        <pt x="62" y="531" on="1"/>
        <pt x="220" y="531" on="1"/>
        <pt x="220" y="0" on="1"/>
      </contour>
    </TTGlyph>
    <TTGlyph name="dotlessi.sc" xMin="65" yMin="0" xMax="222" yMax="568">
      <component glyphName="i.sc" x="0" y="0" flags="0x0"/>
    </TTGlyph>
    <TTGlyph name="dotlessj.sc" xMin="-11" yMin="-150" xMax="234" yMax="568">
      <component glyphName="j.sc" x="0" y="0" flags="0x0"/>
    </TTGlyph>
    <TTGlyph name="dotmath" xMin="30" yMin="218" xMax="210" yMax="398">
      <component glyphName="periodcentered" x="0" y="0" flags="0x0"/>
    </TTGlyph>
    <TTGlyph name="e" xMin="32" yMin="-17" xMax="525" yMax="548">
      <contour>
        <pt x="525" y="243" on="0"/>
        <pt x="522" y="219" on="1"/>
        <pt x="194" y="219" on="1"/>
        <pt x="201" y="152" on="0"/>
        <pt x="261" y="98" on="0"/>
        <pt x="314" y="98" on="1"/>
        <pt x="346" y="98" on="0"/>
        <pt x="406" y="121" on="0"/>
        <pt x="441" y="145" on="1"/>
        <pt x="506" y="57" on="1"/>
        <pt x="413" y="-17" on="0"/>
        <pt x="299" y="-17" on="1"/>
        <pt x="170" y="-17" on="0"/>
        <pt x="32" y="135" on="0"/>
        <pt x="32" y="263" on="1"/>
        <pt x="32" y="344" on="0"/>
        <pt x="90" y="473" on="0"/>
        <pt x="202" y="548" on="0"/>
        <pt x="280" y="548" on="1"/>
        <pt x="395" y="548" on="0"/>
        <pt x="525" y="404" on="0"/>
        <pt x="525" y="276" on="1"/>
      </contour>
      <contour>
        <pt x="370" y="321" on="1"/>
        <pt x="368" y="443" on="0"/>
        <pt x="284" y="443" on="1"/>
        <pt x="243" y="443" on="0"/>
        <pt x="199" y="384" on="0"/>
        <pt x="193" y="314" on="1"/>
        <pt x="370" y="314" on="1"/>
      </contour>
    </TTGlyph>
    <TTGlyph name="e.sc" xMin="65" yMin="0" xMax="445" yMax="568">
      <contour>
        <pt x="222" y="458" on="1"/>
        <pt x="222" y="344" on="1"/>
        <pt x="403" y="344" on="1"/>
        <pt x="403" y="236" on="1"/>
        <pt x="222" y="236" on="1"/>
        <pt x="222" y="111" on="1"/>
        <pt x="442" y="111" on="1"/>
        <pt x="442" y="0" on="1"/>
        <pt x="65" y="0" on="1"/>
        <pt x="65" y="568" on="1"/>
        <pt x="445" y="568" on="1"/>
        <pt x="428" y="458" on="1"/>
      </contour>
    </TTGlyph>
    <TTGlyph name="eacute" xMin="32" yMin="-17" xMax="525" yMax="835">
      <component glyphName="e" x="0" y="0" flags="0x0"/>
      <component glyphName="acute" x="103" y="0" flags="0x0"/>
    </TTGlyph>
    <TTGlyph name="eacute.sc" xMin="65" yMin="0" xMax="445" yMax="865">
      <component glyphName="e.sc" x="0" y="0" flags="0x0"/>
      <component glyphName="acute.sc" x="79" y="0" flags="0x0"/>
    </TTGlyph>
    <TTGlyph name="ebreve" xMin="32" yMin="-17" xMax="525" yMax="820">
      <component glyphName="e" x="0" y="0" flags="0x0"/>
      <component glyphName="breve" x="80" y="0" flags="0x0"/>
    </TTGlyph>
    <TTGlyph name="ebreve.sc" xMin="65" yMin="0" xMax="445" yMax="850">
      <component glyphName="e.sc" x="0" y="0" flags="0x0"/>
      <component glyphName="breve.sc" x="53" y="0" flags="0x0"/>
    </TTGlyph>
    <TTGlyph name="ecaron" xMin="32" yMin="-17" xMax="525" yMax="813">
      <component glyphName="e" x="0" y="0" flags="0x0"/>
      <component glyphName="caron" x="63" y="0" flags="0x0"/>
    </TTGlyph>
    <TTGlyph name="ecaron.sc" xMin="65" yMin="0" xMax="446" yMax="843">
      <component glyphName="e.sc" x="0" y="0" flags="0x0"/>
      <component glyphName="caron.sc" x="36" y="0" flags="0x0"/>
    </TTGlyph>
    <TTGlyph name="ecircumflex" xMin="32" yMin="-17" xMax="525" yMax="822">
      <component glyphName="e" x="0" y="0" flags="0x0"/>
      <component glyphName="circumflex" x="63" y="0" flags="0x0"/>
    </TTGlyph>
    <TTGlyph name="ecircumflex.sc" xMin="65" yMin="0" xMax="446" yMax="852">
      <component glyphName="e.sc" x="0" y="0" flags="0x0"/>
      <component glyphName="circumflex.sc" x="36" y="0" flags="0x0"/>
    </TTGlyph>
    <TTGlyph name="edieresis" xMin="32" yMin="-17" xMax="525" yMax="799">
      <component glyphName="e" x="0" y="0" flags="0x0"/>
      <component glyphName="dieresis" x="54" y="0" flags="0x0"/>
    </TTGlyph>
    <TTGlyph name="edieresis.sc" xMin="58" yMin="0" xMax="452" yMax="829">
      <component glyphName="e.sc" x="0" y="0" flags="0x0"/>
      <component glyphName="dieresis.sc" x="27" y="0" flags="0x0"/>
    </TTGlyph>
    <TTGlyph name="edotaccent" xMin="32" yMin="-17" xMax="525" yMax="811">
      <component glyphName="e" x="0" y="0" flags="0x0"/>
      <component glyphName="dotaccent" x="159" y="0" flags="0x0"/>
    </TTGlyph>
    <TTGlyph name="edotaccent.sc" xMin="65" yMin="0" xMax="445" yMax="841">
      <component glyphName="e.sc" x="0" y="0" flags="0x0"/>
      <component glyphName="dotaccent.sc" x="132" y="0" flags="0x0"/>
    </TTGlyph>
    <TTGlyph name="egrave" xMin="32" yMin="-17" xMax="525" yMax="835">
      <component glyphName="e" x="0" y="0" flags="0x0"/>
      <component glyphName="grave" x="123" y="0" flags="0x0"/>
    </TTGlyph>
    <TTGlyph name="egrave.sc" xMin="65" yMin="0" xMax="445" yMax="865">
      <component glyphName="e.sc" x="0" y="0" flags="0x0"/>
      <component glyphName="grave.sc" x="92" y="0" flags="0x0"/>
    </TTGlyph>
    <TTGlyph name="eight" xMin="29" yMin="-17" xMax="551" yMax="690">
      <contour>
        <pt x="485" y="330" on="0"/>
        <pt x="551" y="241" on="0"/>
        <pt x="551" y="183" on="1"/>
        <pt x="551" y="128" on="0"/>
        <pt x="488" y="37" on="0"/>
        <pt x="368" y="-17" on="0"/>
        <pt x="287" y="-17" on="1"/>
        <pt x="208" y="-17" on="0"/>
        <pt x="91" y="36" on="0"/>
        <pt x="29" y="125" on="0"/>
        <pt x="29" y="180" on="1"/>
        <pt x="29" y="293" on="0"/>
        <pt x="155" y="348" on="1"/>
        <pt x="56" y="407" on="0"/>
        <pt x="56" y="508" on="1"/>
        <pt x="56" y="562" on="0"/>
        <pt x="116" y="644" on="0"/>
        <pt x="223" y="690" on="0"/>
        <pt x="291" y="690" on="1"/>
        <pt x="394" y="690" on="0"/>
        <pt x="525" y="597" on="0"/>
        <pt x="525" y="516" on="1"/>
        <pt x="525" y="471" on="0"/>
        <pt x="472" y="392" on="0"/>
        <pt x="417" y="363" on="1"/>
      </contour>
      <contour>
        <pt x="254" y="583" on="0"/>
        <pt x="209" y="543" on="0"/>
        <pt x="209" y="506" on="1"/>
        <pt x="209" y="472" on="0"/>
        <pt x="248" y="429" on="0"/>
        <pt x="291" y="411" on="1"/>
        <pt x="313" y="403" on="1"/>
        <pt x="346" y="426" on="0"/>
        <pt x="372" y="475" on="0"/>
        <pt x="372" y="508" on="1"/>
        <pt x="372" y="542" on="0"/>
        <pt x="331" y="583" on="0"/>
        <pt x="292" y="583" on="1"/>
      </contour>
      <contour>
        <pt x="340" y="96" on="0"/>
        <pt x="393" y="145" on="0"/>
        <pt x="393" y="184" on="1"/>
        <pt x="393" y="225" on="0"/>
        <pt x="347" y="272" on="0"/>
        <pt x="289" y="293" on="1"/>
        <pt x="255" y="305" on="1"/>
        <pt x="188" y="266" on="0"/>
        <pt x="188" y="188" on="1"/>
        <pt x="188" y="146" on="0"/>
        <pt x="244" y="96" on="0"/>
        <pt x="292" y="96" on="1"/>
      </contour>
    </TTGlyph>
    <TTGlyph name="eight.dnom" xMin="23" yMin="-12" xMax="377" yMax="431">
      <contour>
        <pt x="335" y="205" on="0"/>
        <pt x="377" y="149" on="0"/>
        <pt x="377" y="114" on="1"/>
        <pt x="377" y="80" on="0"/>
        <pt x="335" y="23" on="0"/>
        <pt x="254" y="-12" on="0"/>
        <pt x="198" y="-12" on="1"/>
        <pt x="143" y="-12" on="0"/>
        <pt x="64" y="22" on="0"/>
        <pt x="23" y="79" on="0"/>
        <pt x="23" y="113" on="1"/>
        <pt x="23" y="182" on="0"/>
        <pt x="105" y="215" on="1"/>
        <pt x="40" y="252" on="0"/>
        <pt x="40" y="316" on="1"/>
        <pt x="40" y="365" on="0"/>
        <pt x="129" y="431" on="0"/>
        <pt x="200" y="431" on="1"/>
        <pt x="273" y="431" on="0"/>
        <pt x="361" y="372" on="0"/>
        <pt x="361" y="322" on="1"/>
        <pt x="361" y="296" on="0"/>
        <pt x="326" y="245" on="0"/>
        <pt x="290" y="226" on="1"/>
      </contour>
      <contour>
        <pt x="154" y="355" on="0"/>
        <pt x="154" y="314" on="1"/>
        <pt x="154" y="278" on="0"/>
        <pt x="198" y="263" on="1"/>
        <pt x="213" y="257" on="1"/>
        <pt x="232" y="270" on="0"/>
        <pt x="246" y="298" on="0"/>
        <pt x="246" y="315" on="1"/>
        <pt x="246" y="334" on="0"/>
        <pt x="223" y="355" on="0"/>
        <pt x="201" y="355" on="1"/>
      </contour>
      <contour>
        <pt x="230" y="70" on="0"/>
        <pt x="260" y="96" on="0"/>
        <pt x="260" y="116" on="1"/>
        <pt x="260" y="137" on="0"/>
        <pt x="234" y="161" on="0"/>
        <pt x="202" y="173" on="1"/>
        <pt x="176" y="182" on="1"/>
        <pt x="141" y="162" on="0"/>
        <pt x="141" y="119" on="1"/>
        <pt x="141" y="96" on="0"/>
        <pt x="173" y="70" on="0"/>
        <pt x="201" y="70" on="1"/>
      </contour>
    </TTGlyph>
    <TTGlyph name="eight.numr" xMin="23" yMin="260" xMax="377" yMax="703">
      <component glyphName="eight.dnom" x="0" y="272" flags="0x0"/>
    </TTGlyph>
    <TTGlyph name="eight.osf" xMin="29" yMin="-17" xMax="551" yMax="690">
      <contour>
        <pt x="485" y="330" on="0"/>
        <pt x="551" y="241" on="0"/>
        <pt x="551" y="183" on="1"/>
        <pt x="551" y="128" on="0"/>
        <pt x="488" y="37" on="0"/>
        <pt x="368" y="-17" on="0"/>
        <pt x="287" y="-17" on="1"/>
        <pt x="208" y="-17" on="0"/>
        <pt x="91" y="36" on="0"/>
        <pt x="29" y="125" on="0"/>
        <pt x="29" y="180" on="1"/>
        <pt x="29" y="293" on="0"/>
        <pt x="155" y="348" on="1"/>
        <pt x="56" y="407" on="0"/>
        <pt x="56" y="508" on="1"/>
        <pt x="56" y="562" on="0"/>
        <pt x="116" y="644" on="0"/>
        <pt x="223" y="690" on="0"/>
        <pt x="291" y="690" on="1"/>
        <pt x="394" y="690" on="0"/>
        <pt x="525" y="597" on="0"/>
        <pt x="525" y="516" on="1"/>
        <pt x="525" y="471" on="0"/>
        <pt x="472" y="392" on="0"/>
        <pt x="417" y="363" on="1"/>
      </contour>
      <contour>
        <pt x="254" y="583" on="0"/>
        <pt x="209" y="543" on="0"/>
        <pt x="209" y="506" on="1"/>
        <pt x="209" y="472" on="0"/>
        <pt x="248" y="429" on="0"/>
        <pt x="291" y="411" on="1"/>
        <pt x="313" y="403" on="1"/>
        <pt x="346" y="426" on="0"/>
        <pt x="372" y="475" on="0"/>
        <pt x="372" y="508" on="1"/>
        <pt x="372" y="542" on="0"/>
        <pt x="331" y="583" on="0"/>
        <pt x="292" y="583" on="1"/>
      </contour>
      <contour>
        <pt x="340" y="96" on="0"/>
        <pt x="393" y="145" on="0"/>
        <pt x="393" y="184" on="1"/>
        <pt x="393" y="225" on="0"/>
        <pt x="347" y="272" on="0"/>
        <pt x="289" y="293" on="1"/>
        <pt x="255" y="305" on="1"/>
        <pt x="188" y="266" on="0"/>
        <pt x="188" y="188" on="1"/>
        <pt x="188" y="146" on="0"/>
        <pt x="244" y="96" on="0"/>
        <pt x="292" y="96" on="1"/>
      </contour>
    </TTGlyph>
    <TTGlyph name="eight.tf" xMin="25" yMin="-17" xMax="535" yMax="710">
      <contour>
        <pt x="471" y="339" on="0"/>
        <pt x="535" y="249" on="0"/>
        <pt x="535" y="188" on="1"/>
        <pt x="535" y="130" on="0"/>
        <pt x="474" y="37" on="0"/>
        <pt x="357" y="-17" on="0"/>
        <pt x="277" y="-17" on="1"/>
        <pt x="200" y="-17" on="0"/>
        <pt x="85" y="36" on="0"/>
        <pt x="25" y="128" on="0"/>
        <pt x="25" y="185" on="1"/>
        <pt x="25" y="304" on="0"/>
        <pt x="149" y="359" on="1"/>
        <pt x="51" y="418" on="0"/>
        <pt x="51" y="522" on="1"/>
        <pt x="51" y="579" on="0"/>
        <pt x="110" y="664" on="0"/>
        <pt x="215" y="710" on="0"/>
        <pt x="281" y="710" on="1"/>
        <pt x="382" y="710" on="0"/>
        <pt x="509" y="614" on="0"/>
        <pt x="509" y="528" on="1"/>
        <pt x="509" y="430" on="0"/>
        <pt x="403" y="373" on="1"/>
      </contour>
      <contour>
        <pt x="243" y="604" on="0"/>
        <pt x="201" y="562" on="0"/>
        <pt x="201" y="520" on="1"/>
        <pt x="201" y="481" on="0"/>
        <pt x="242" y="437" on="0"/>
        <pt x="290" y="419" on="1"/>
        <pt x="302" y="413" on="1"/>
        <pt x="334" y="436" on="0"/>
        <pt x="360" y="486" on="0"/>
        <pt x="360" y="521" on="1"/>
        <pt x="360" y="560" on="0"/>
        <pt x="318" y="604" on="0"/>
        <pt x="280" y="604" on="1"/>
      </contour>
      <contour>
        <pt x="328" y="96" on="0"/>
        <pt x="379" y="147" on="0"/>
        <pt x="379" y="188" on="1"/>
        <pt x="379" y="233" on="0"/>
        <pt x="335" y="282" on="0"/>
        <pt x="277" y="302" on="1"/>
        <pt x="246" y="315" on="1"/>
        <pt x="181" y="275" on="0"/>
        <pt x="181" y="193" on="1"/>
        <pt x="181" y="148" on="0"/>
        <pt x="236" y="96" on="0"/>
        <pt x="282" y="96" on="1"/>
      </contour>
    </TTGlyph>
    <TTGlyph name="eight.tosf" xMin="27" yMin="-17" xMax="537" yMax="690">
      <contour>
        <pt x="472" y="329" on="0"/>
        <pt x="537" y="241" on="0"/>
        <pt x="537" y="183" on="1"/>
        <pt x="537" y="128" on="0"/>
        <pt x="475" y="37" on="0"/>
        <pt x="358" y="-17" on="0"/>
        <pt x="278" y="-17" on="1"/>
        <pt x="201" y="-17" on="0"/>
        <pt x="87" y="36" on="0"/>
        <pt x="27" y="125" on="0"/>
        <pt x="27" y="180" on="1"/>
        <pt x="27" y="294" on="0"/>
        <pt x="150" y="349" on="1"/>
        <pt x="53" y="407" on="0"/>
        <pt x="53" y="508" on="1"/>
        <pt x="53" y="562" on="0"/>
        <pt x="112" y="644" on="0"/>
        <pt x="216" y="690" on="0"/>
        <pt x="282" y="690" on="1"/>
        <pt x="383" y="690" on="0"/>
        <pt x="511" y="595" on="0"/>
        <pt x="511" y="513" on="1"/>
        <pt x="511" y="421" on="0"/>
        <pt x="405" y="363" on="1"/>
      </contour>
      <contour>
        <pt x="245" y="583" on="0"/>
        <pt x="203" y="543" on="0"/>
        <pt x="203" y="505" on="1"/>
        <pt x="203" y="470" on="0"/>
        <pt x="243" y="427" on="0"/>
        <pt x="288" y="409" on="1"/>
        <pt x="304" y="403" on="1"/>
        <pt x="336" y="425" on="0"/>
        <pt x="361" y="475" on="0"/>
        <pt x="361" y="507" on="1"/>
        <pt x="361" y="541" on="0"/>
        <pt x="319" y="583" on="0"/>
        <pt x="282" y="583" on="1"/>
      </contour>
      <contour>
        <pt x="330" y="96" on="0"/>
        <pt x="381" y="146" on="0"/>
        <pt x="381" y="184" on="1"/>
        <pt x="381" y="224" on="0"/>
        <pt x="336" y="271" on="0"/>
        <pt x="280" y="292" on="1"/>
        <pt x="247" y="305" on="1"/>
        <pt x="182" y="267" on="0"/>
        <pt x="182" y="188" on="1"/>
        <pt x="182" y="146" on="0"/>
        <pt x="237" y="96" on="0"/>
        <pt x="284" y="96" on="1"/>
      </contour>
    </TTGlyph>
    <TTGlyph name="eightinferior" xMin="23" yMin="-217" xMax="377" yMax="226">
      <component glyphName="eight.dnom" x="0" y="-205" flags="0x0"/>
    </TTGlyph>
    <TTGlyph name="eightsuperior" xMin="23" yMin="309" xMax="377" yMax="752">
      <component glyphName="eight.dnom" x="0" y="321" flags="0x0"/>
    </TTGlyph>
    <TTGlyph name="ellipsis" xMin="29" yMin="-17" xMax="697" yMax="164">
      <component glyphName="period" x="243" y="0" flags="0x0"/>
      <component glyphName="period" x="486" y="0" flags="0x0"/>
      <component glyphName="period" x="0" y="0" flags="0x0"/>
    </TTGlyph>
    <TTGlyph name="emacron" xMin="32" yMin="-17" xMax="525" yMax="765">
      <component glyphName="e" x="0" y="0" flags="0x0"/>
      <component glyphName="macron" x="99" y="0" flags="0x0"/>
    </TTGlyph>
    <TTGlyph name="emacron.sc" xMin="65" yMin="0" xMax="445" yMax="795">
      <component glyphName="e.sc" x="0" y="0" flags="0x0"/>
      <component glyphName="macron.sc" x="72" y="0" flags="0x0"/>
    </TTGlyph>
    <TTGlyph name="emdash" xMin="21" yMin="252" xMax="775" yMax="374">
      <contour>
        <pt x="775" y="374" on="1"/>
        <pt x="775" y="252" on="1"/>
        <pt x="21" y="252" on="1"/>
        <pt x="21" y="374" on="1"/>
      </contour>
    </TTGlyph>
    <TTGlyph name="emdash.case" xMin="21" yMin="297" xMax="775" yMax="419">
      <component glyphName="emdash" x="0" y="45" flags="0x0"/>
    </TTGlyph>
</ttFont>
